<svg width="185" height="135" viewBox="0 0 185 135" fill="none" xmlns="http://www.w3.org/2000/svg">
<path fill-rule="evenodd" clip-rule="evenodd" d="M137.692 35.6741C137.692 34.5221 137.692 33.6833 137.692 32.8445C137.692 27.9345 137.647 23.0244 137.725 18.1256C137.748 16.7499 137.334 15.6874 136.495 14.6584C134.907 12.7235 133.061 11.1129 130.757 10.1734C126.921 8.61878 123.096 6.95228 118.98 6.32595C114.461 5.65488 109.909 5.07331 105.357 6.00162C103.377 6.40426 101.431 6.95228 99.4405 7.4444C92.5732 4.34629 85.4263 2.15414 77.9662 0.890284C71.1437 -0.261723 64.3211 -0.0716156 57.4762 0.230367C54.9373 0.342212 52.4096 0.588282 49.8819 0.800789C45.3633 1.19225 41.102 2.51207 36.9861 4.34633C36.069 4.76016 35.1966 5.29699 34.3466 5.85622C33.038 6.70624 32.1768 7.85822 31.6735 9.3905C30.2307 13.8084 28.676 18.1928 27.1549 22.5883C26.9089 23.3041 26.6293 23.9975 26.3273 24.8028C25.5108 24.7693 24.7614 24.7357 24.0121 24.6909C21.7081 24.5567 19.46 24.7804 17.2902 25.6752C15.6572 26.3462 13.9236 26.8272 12.3018 27.5318C8.43201 29.2207 5.44577 31.8267 3.94704 35.9202C2.90688 36.4124 1.85553 36.9045 0.725891 37.4413C0.725891 38.1348 0.681168 38.7164 0.737091 39.2868C1.3075 46.2771 1.91147 53.2786 2.48187 60.2801C2.90689 65.425 3.276 70.5699 3.68982 75.7148C4.29379 83.1413 4.90894 90.5566 5.51291 97.972C5.91554 102.86 6.30698 107.758 6.67607 112.646C6.84384 114.749 6.91095 116.863 7.10109 118.965C7.15701 119.614 7.36948 120.307 7.68263 120.878C9.29321 123.808 11.3064 126.425 14.192 128.181C18.8448 131.011 23.7995 133.17 29.1458 134.299C32.8031 135.071 36.5164 135.239 40.2408 134.635C41.9073 134.366 43.5962 134.311 45.2851 134.12C48.3049 133.774 51.3247 133.449 54.3333 133.002C55.2281 132.868 56.0893 132.42 56.9393 132.062C72.8102 125.531 88.6698 118.988 104.529 112.445C106.252 111.74 107.985 111.069 109.674 110.297C111.095 109.649 112.549 109.436 114.103 109.447C131.283 109.47 148.451 109.425 165.631 109.492C168.583 109.503 171.066 108.463 173.359 106.819C175.238 105.477 176.647 103.676 177.9 101.741C180.182 98.2292 181.692 94.3706 182.754 90.3553C184.946 82.0899 185.472 73.6904 184.6 65.1901C184.096 60.2913 183.123 55.5043 181.445 50.8627C180.372 47.91 178.996 45.1139 177.195 42.5191C175.104 39.4992 172.319 37.3966 168.93 36.0768C168.471 35.8979 167.946 35.8531 167.442 35.8307C166.257 35.786 165.071 35.786 163.886 35.7748C156.191 35.7748 148.485 35.7748 140.79 35.7748C139.884 35.7748 138.967 35.7189 137.692 35.6741ZM2.98518 41.9934C5.15498 43.604 6.81026 44.9014 8.53267 46.0869C11.1834 47.91 14.1362 48.816 17.3685 48.7712C19.5718 48.7489 21.7752 48.6594 23.9674 48.7153C27.5464 48.8048 31.0471 48.212 34.5367 47.5633C35.7782 47.3396 37.0197 46.9817 38.1829 46.5119C41.1579 45.304 44.1331 44.0738 47.0299 42.6981C48.6181 41.9487 50.1391 40.9757 51.5596 39.9243C53.0583 38.8282 54.4004 37.5308 55.7985 36.3005C56.1788 35.9649 56.5143 35.5735 56.7827 35.1597C56.8946 34.9919 56.8834 34.6005 56.7492 34.4663C56.5479 34.2426 56.2123 34.03 55.9327 34.03C55.6307 34.03 55.2952 34.2425 55.0491 34.4439C53.8188 35.4728 52.5661 36.4906 51.3918 37.5867C50.0161 38.8729 48.4838 39.9131 46.8062 40.7296C45.3633 41.423 43.8982 42.0941 42.4106 42.6869C39.8941 43.6823 37.4223 44.8343 34.8163 45.5166C31.6399 46.3666 28.3517 46.7804 25.0298 46.7804C22.6587 46.7804 20.2876 46.8587 17.9277 46.9035C16.1382 46.9482 14.3822 46.7244 12.6934 46.0869C12.3802 45.9639 12.1341 45.6619 11.5972 45.2481C12.8051 45.181 13.644 45.1139 14.494 45.1027C16.2053 45.0691 17.827 44.6441 19.46 44.1408C23.6542 42.8658 26.9424 40.2822 29.7945 37.0722C31.3827 35.2715 32.1097 33.1576 31.6399 30.7306C31.5616 30.3391 31.4834 29.9589 31.3603 29.422C32.8031 29.2766 34.1453 29.4444 35.465 29.5786C41.9409 30.2497 48.4167 30.9319 54.8925 31.6253C56.011 31.7484 56.861 31.3905 57.3867 30.3839C56.4695 27.5766 56.1005 24.7357 55.9439 21.8613C55.8209 19.6691 55.6643 17.4769 55.4742 15.2848C55.4518 15.0275 55.1274 14.692 54.8701 14.5913C54.434 14.4236 53.9531 14.6473 53.8748 15.0946C53.7406 15.8216 53.6846 16.5934 53.7406 17.3427C54.0202 21.056 54.1096 24.7805 54.8366 28.449C54.8814 28.6839 54.8478 28.9299 54.8478 29.3661C53.6287 29.5003 52.4655 29.3438 51.3135 29.2319C46.5153 28.7733 41.7172 28.3035 36.919 27.845C34.7268 27.6325 32.5347 27.4311 30.3537 27.2186C29.3918 27.1292 28.4971 26.9167 28.1392 25.6416C29.9846 20.2619 31.8748 14.7479 33.7538 9.23397C34.0111 8.46223 34.5032 7.99248 35.1854 7.55629C38.3618 5.5207 41.8626 4.31272 45.4864 3.45152C48.7075 2.67978 52.0069 2.38898 55.2952 2.25476C62.9789 1.9416 70.6627 1.44949 78.3241 2.89229C83.9052 3.94364 89.3745 5.297 94.6312 7.47799C95.5707 7.86945 96.5213 8.21612 97.4497 8.61876C98.7471 9.1668 99.6642 10.0504 100.212 11.4149C101.129 13.6854 102.17 15.9111 103.187 18.148C103.389 18.5954 103.702 19.0092 104.026 19.3783C104.149 19.5125 104.507 19.5349 104.708 19.4566C104.91 19.3783 105.189 19.1211 105.178 18.9421C105.167 18.45 105.111 17.9355 104.921 17.4882C103.925 15.1506 102.874 12.8465 101.868 10.509C101.677 10.0728 101.331 9.64773 101.588 9.03259C104.563 7.82466 107.706 7.39966 110.949 7.51151C114.674 7.6569 118.398 7.81349 121.977 8.97668C124.147 9.6813 126.306 10.4419 128.442 11.236C130.69 12.0636 132.692 13.2939 134.347 15.0723C135.32 16.1124 135.801 17.2197 135.779 18.696C135.701 23.606 135.757 28.5161 135.745 33.4149C135.745 34.086 135.678 34.7458 135.634 35.5287C134.985 35.6182 134.415 35.7636 133.844 35.7636C126.06 35.7748 118.275 35.7748 110.491 35.7636C110.01 35.7636 109.529 35.5847 108.992 35.484C108.567 33.2471 108.164 31.0997 107.762 28.9411C107.382 26.8608 107.024 24.7804 106.61 22.7001C106.42 21.7606 105.905 21.425 104.954 21.5481C104.116 21.6599 103.288 21.8389 102.46 21.9955C90.6831 24.3107 78.9057 26.6259 67.1284 28.9411C64.556 29.4444 61.9835 29.9365 59.4111 30.4734C58.1808 30.7306 57.8676 31.1332 57.9124 32.4195C57.9571 33.7728 58.0689 35.1261 58.1808 36.4683C58.6058 41.3559 59.0532 46.2435 59.4782 51.1312C60.0598 57.9649 60.619 64.7875 61.2118 71.6212C61.8046 78.4438 62.4197 85.2775 63.0237 92.1001C63.6724 99.5154 64.3099 106.931 64.9362 114.346C65.0704 115.934 65.1376 117.534 65.2382 119.223C64.3547 119.603 63.5941 119.95 62.8112 120.252C59.8249 121.426 56.8275 122.578 53.83 123.752C53.282 123.965 52.7115 124.177 52.2306 124.502C52.0181 124.647 51.8951 125.083 51.9175 125.385C51.951 125.9 52.4208 126.101 52.8346 126C53.6511 125.81 54.4563 125.542 55.2393 125.229C68.0008 120.252 80.7512 115.274 93.5015 110.286C94.6759 109.828 95.8055 109.28 97.2371 108.653C99.1161 109.47 101.387 109.57 103.679 109.47C103.937 109.459 104.194 109.447 104.44 109.492C104.72 109.548 105.156 109.414 105.167 110.074C104.373 110.42 103.545 110.812 102.706 111.159C87.1599 117.59 71.6022 123.987 56.0669 130.429C54.7136 130.989 53.3491 131.335 51.9175 131.492C50.3293 131.671 48.7299 131.883 47.1305 132.04C45.9561 132.163 44.7706 132.23 43.5962 132.342C42.6679 132.42 41.7283 132.454 40.8224 132.622C36.7624 133.36 32.7248 133.226 28.7319 132.275C24.5154 131.279 20.5896 129.523 16.7533 127.521C14.0355 126.101 11.9999 124.043 10.2999 121.571C10.2327 121.471 10.3111 121.269 10.3222 121.124C12.9282 122.444 15.5454 123.763 18.1514 125.072C21.0482 126.526 24.1239 127.488 27.3003 127.991C33.9999 129.054 40.6211 128.618 47.1081 126.582C47.343 126.504 47.645 126.437 47.7792 126.269C47.9693 126.034 48.1595 125.665 48.1035 125.408C48.0476 125.162 47.6562 124.804 47.4213 124.826C46.5042 124.882 45.5647 124.96 44.6923 125.229C41.8402 126.101 38.9322 126.582 35.946 126.571C33.8321 126.56 31.707 126.537 29.6044 126.414C28.43 126.347 27.2556 126.135 26.1036 125.877C21.5067 124.871 17.4021 122.656 13.2638 120.554C12.7381 120.285 12.2795 119.905 11.7874 119.569C9.14786 117.735 8.34256 115.185 8.76758 111.908C9.33798 112.199 9.76295 112.445 10.1992 112.646C11.4295 113.205 12.6263 113.865 13.9013 114.29C18.6659 115.878 23.5423 116.829 28.5865 116.717C29.6043 116.695 30.6221 116.751 31.6288 116.796C36.2927 117.042 40.9231 116.762 45.5199 115.901C48.6851 115.319 51.7497 114.391 54.8254 113.44C57.5768 112.59 59.8249 111.024 62.0954 109.403C62.2967 109.257 62.4533 109.045 62.6099 108.843C62.9119 108.463 62.923 108.072 62.5875 107.703C62.252 107.345 61.8493 107.322 61.4467 107.568C61.1559 107.736 60.8874 107.937 60.619 108.15C58.2591 109.995 55.5972 111.181 52.7563 112.12C48.2266 113.608 43.5738 114.547 38.8651 114.805C32.9597 115.118 27.0095 115.118 21.1488 114.145C18.4981 113.709 15.8921 112.87 13.3309 112.042C11.9776 111.606 10.7137 110.879 9.67352 109.828C9.27087 109.425 8.75638 109.134 8.26425 108.765C7.68266 101.406 7.10106 94.0798 6.50827 86.7427C5.90431 79.3274 5.2668 71.912 4.69638 64.4855C4.13716 57.1261 3.39902 49.8226 2.98518 41.9934ZM106.285 88.0066C106.084 86.8098 105.928 85.9039 105.771 84.9979C105.626 84.1703 105.525 83.3202 105.29 82.5149C103.847 77.5043 103.422 72.3929 103.624 67.2033C103.735 64.3848 104.227 61.6446 105.268 59.0386C106.397 56.2201 107.538 53.3904 108.802 50.6278C110.178 47.6192 111.833 44.7448 114.528 42.6757C115.725 41.7473 117 40.9197 118.13 40.1144C119.058 40.2263 119.796 40.3829 120.546 40.3829C125.791 40.4052 131.037 40.4052 136.282 40.3829C136.774 40.3829 137.3 40.3269 137.759 40.1479C137.994 40.0585 138.251 39.6558 138.251 39.3874C138.251 39.1302 137.971 38.694 137.748 38.6493C137.099 38.515 136.417 38.4927 135.734 38.4927C131.764 38.4815 127.782 38.4926 123.8 38.4815C123.04 38.4815 122.279 38.4591 121.519 38.4032C121.373 38.392 121.25 38.1124 121.071 37.9222C123.163 37.5084 134.437 37.3742 143.183 37.6426C143.396 37.6538 143.597 37.7881 144.033 37.9558C143.541 38.3249 143.228 38.5486 142.915 38.7947C140.611 40.6177 138.866 42.8546 137.803 45.5948C137.199 47.1606 136.54 48.7265 135.913 50.2811C135.723 50.7509 135.466 51.1983 135.321 51.6792C135.175 52.1266 135.354 52.5069 135.801 52.7082C136.249 52.8984 136.64 52.7529 136.92 52.395C137.121 52.1378 137.278 51.8246 137.412 51.5115C138.139 49.8002 138.9 48.1113 139.571 46.3777C140.689 43.5369 142.378 41.1993 145.118 39.7229C145.789 39.365 146.449 38.996 147.075 38.5598C148.015 37.9111 149.044 37.6203 150.174 37.6203C153.562 37.6315 156.94 37.6202 160.329 37.6314C160.665 37.6314 161 37.6314 161.045 38.2578C157.287 41.2105 154.938 45.2817 153.171 49.7331C151.516 53.9161 150.475 58.2781 149.872 62.7295C148.988 69.3955 148.966 76.0503 149.883 82.7163C150.632 88.1967 151.997 93.4982 154.435 98.4865C155.934 101.551 157.79 104.358 160.441 106.573C160.676 106.774 161.034 106.964 160.821 107.434C160.609 107.468 160.374 107.557 160.139 107.557C156.168 107.568 152.187 107.524 148.205 107.591C146.773 107.613 145.778 106.998 145.006 105.902C142.4 102.233 140.052 98.397 138.53 94.1693C136.786 89.3152 135.443 84.338 134.571 79.2379C134.515 78.9135 134.482 78.5333 134.303 78.276C134.135 78.03 133.799 77.7951 133.52 77.7727C133.039 77.7168 132.714 78.0971 132.692 78.5444C132.67 79.2155 132.692 79.909 132.849 80.5576C133.542 83.5104 134.236 86.4743 135.03 89.4046C135.958 92.8383 136.976 96.2384 138.821 99.3253C140.208 101.641 141.584 103.978 142.937 106.316C143.127 106.64 143.194 107.031 143.362 107.501C142.747 107.535 142.333 107.568 141.908 107.568C134.124 107.568 126.339 107.568 118.555 107.568C118.13 107.568 117.705 107.568 117.291 107.524C116.676 107.468 116.586 107.311 116.609 106.159C117.448 106.159 118.275 106.159 119.114 106.159C124.785 106.159 130.455 106.159 136.126 106.159C136.797 106.159 137.479 106.17 138.15 106.058C138.407 106.014 138.732 105.678 138.799 105.41C138.922 104.974 138.665 104.549 138.217 104.437C137.736 104.314 137.222 104.28 136.719 104.28C130.455 104.269 124.192 104.269 117.94 104.28C117.358 104.28 116.687 104.235 116.217 104.493C115.703 104.772 115.39 105.399 114.953 105.913C113.623 105.063 112.896 103.855 112.247 102.558C111.296 100.679 110.278 98.822 109.328 96.943C108.645 95.5785 107.986 94.2028 107.426 92.7935C107.091 91.9547 106.655 91.0823 106.979 90.0198C107.639 89.9862 108.31 89.9191 108.97 89.9191C116.251 89.9079 123.521 89.9191 130.802 89.9191C131.305 89.9191 131.82 89.9415 132.312 89.8856C132.759 89.8408 133.106 89.5724 133.128 89.0803C133.151 88.5993 132.871 88.2414 132.412 88.1855C131.495 88.0848 130.556 88.0289 129.628 88.0289C122.861 88.0177 116.094 88.0289 109.316 88.0289C108.444 88.0065 107.516 88.0066 106.285 88.0066ZM67.3856 118.182C67.2962 117.936 67.162 117.713 67.1396 117.489C64.7238 89.4158 62.3079 61.3427 59.9144 33.2695C59.892 33.0346 60.0039 32.7773 60.071 32.453C60.5295 32.2964 60.9881 32.0951 61.469 31.9945C63.706 31.5359 65.9541 31.1221 68.191 30.6747C79.6327 28.4154 91.0857 26.1562 102.539 23.9193C103.243 23.7739 104.004 23.4494 104.91 23.9975C105.245 25.787 105.637 27.6884 105.939 29.6009C106.252 31.5694 106.957 33.4932 106.766 35.6406C105.838 35.7636 105.055 36.0209 104.317 35.4169C105.145 33.4149 105.312 32.5089 105.122 31.4128C104.787 29.5227 103.948 28.8293 102.013 28.874C101.51 28.8852 100.995 28.8963 100.492 28.9746C99.407 29.12 98.5681 29.6905 98.1543 30.6971C97.8747 31.3905 97.651 32.151 97.6174 32.8892C97.5727 34.0524 97.7181 35.2156 97.7964 36.4235C95.6042 37.2512 93.7029 38.4703 92.1035 40.1591C90.6383 41.7026 89.4416 43.4362 88.4014 45.2929C86.6119 48.4916 85.3592 51.8917 84.4532 55.4261C81.8584 65.5928 81.6571 75.8378 83.5809 86.1387C84.4309 90.7244 85.8066 95.1647 87.9876 99.3253C89.4975 102.2 91.3317 104.817 93.9042 106.852C94.1502 107.043 94.3292 107.311 94.5193 107.524C94.3404 107.758 94.2845 107.96 94.1503 108.005C85.4934 111.405 76.8366 114.793 68.1686 118.171C67.9449 118.227 67.6653 118.171 67.3856 118.182ZM107.605 107.389C104.339 108.53 101.409 108.53 98.803 106.07C98.3221 105.622 97.7181 105.253 97.1253 104.962C95.0897 103.967 93.5239 102.468 92.193 100.667C90.8732 98.8891 89.8442 96.9542 89.0053 94.9186C87.0704 90.277 86.0191 85.4118 85.4263 80.4346C84.7888 75.0325 84.7888 69.6304 85.4263 64.2283C85.9631 59.6762 86.9027 55.2135 88.5356 50.9299C89.5646 48.2344 90.8508 45.662 92.6739 43.4027C94.3068 41.3783 96.2417 39.8013 98.8365 39.1973C99.1609 39.119 99.5524 39.0966 99.7984 38.9065C101.051 37.9558 102.483 38.0005 103.926 38.0117C104.351 38.0117 104.809 38.1124 105.189 37.9893C107.102 37.3742 109.048 37.7545 110.983 37.6538C111.263 37.6426 111.553 37.788 112.124 37.9334C111.296 38.7052 110.681 39.2532 110.099 39.8348C109.014 40.8974 107.84 41.8927 106.901 43.0783C105.491 44.8678 104.351 46.8699 102.919 48.637C100.268 51.9029 99.228 55.8063 98.2662 59.7545C98.1543 60.2242 98.1991 60.7723 98.3333 61.242C98.4004 61.4881 98.7806 61.7789 99.049 61.8012C99.3175 61.8236 99.7201 61.5999 99.8544 61.365C100.044 61.0183 100.044 60.5597 100.134 60.1571C101.006 56.3543 102.035 52.6187 104.641 49.5318C105.57 48.4357 106.531 47.3284 107.225 46.0869C108.522 43.727 110.468 41.9934 112.459 40.2934C113.488 39.421 114.629 38.7052 115.725 37.9222C116.307 37.5084 116.911 37.5755 117.828 37.8775C117.034 38.4815 116.452 38.94 115.859 39.3762C114.976 40.0249 114.059 40.6289 113.197 41.3112C110.39 43.5145 108.623 46.5008 107.169 49.666C105.86 52.5069 104.686 55.4036 103.545 58.3228C102.986 59.7321 102.505 61.1973 102.248 62.6848C101.118 69.2837 101.577 75.8266 103.266 82.2912C103.802 84.338 104.25 86.396 104.172 88.5322C104.16 88.9349 104.295 89.3487 104.418 89.7402C104.608 90.2994 104.865 90.8251 105.066 91.3619C105.626 92.8607 106.062 94.4265 106.744 95.8581C108.086 98.6766 109.54 101.45 111.005 104.202C111.397 104.94 111.99 105.577 112.459 106.271C112.683 106.606 112.873 106.964 113.108 107.367C111.151 107.557 111.151 107.557 110.032 106.606C109.585 106.226 109.126 105.846 108.746 105.399C107.572 104.068 106.42 102.714 105.245 101.383C104.977 101.07 104.708 100.701 104.351 100.522C104.116 100.399 103.702 100.477 103.433 100.612C103.266 100.69 103.131 101.037 103.143 101.249C103.165 101.562 103.277 101.931 103.467 102.177C104.093 102.971 104.798 103.71 105.435 104.504C106.174 105.399 107.113 106.148 107.605 107.389ZM151.896 71.5429C151.806 68.2211 152.232 64.0158 152.992 59.844C153.786 55.5044 155.005 51.2877 157.041 47.3508C158.137 45.2369 159.468 43.302 161.213 41.6467C164.825 38.1907 170.35 38.1348 174.041 41.6467C175.585 43.1231 176.815 44.8231 177.844 46.6909C179.455 49.5877 180.573 52.6858 181.378 55.8958C183.783 65.4697 183.996 75.1332 182.262 84.8301C181.49 89.1697 180.26 93.3863 178.202 97.3232C177.106 99.4371 175.764 101.372 174.03 103.039C170.44 106.495 164.702 106.539 161.224 103.005C160.105 101.864 159.076 100.612 158.182 99.2917C156.75 97.189 155.766 94.8403 154.961 92.4245C152.768 85.9486 151.885 79.2714 151.896 71.5429ZM6.69846 34.6788C6.9557 34.1978 7.04514 33.9518 7.20171 33.7616C9.90837 30.4622 13.5881 28.5943 17.3685 26.8607C17.7487 26.6818 18.1849 26.6371 18.5987 26.57C19.9297 26.3463 21.2719 26.1673 22.6028 25.9213C23.7548 25.7088 24.7838 26.0219 25.7569 26.57C27.1773 27.3641 27.7141 29.0529 26.9871 30.4846C26.7635 30.9319 26.4503 31.3458 26.126 31.7372C23.2292 35.1821 19.6165 37.6091 15.4447 39.1861C14.0131 39.7341 12.5144 39.969 11.0492 39.1637C10.8367 39.0407 10.5459 38.9289 10.3334 38.9848C10.0426 39.0519 9.72945 39.242 9.53931 39.4657C9.42746 39.5999 9.47218 39.9802 9.58401 40.1591C10.1656 41.0986 11.0604 41.4901 12.1341 41.5572C13.6776 41.6579 15.1651 41.4006 16.5855 40.7967C21.3502 38.7946 25.4549 35.9426 28.4971 31.6813C28.732 31.3569 29.0116 31.055 29.2688 30.7642C30.13 31.2675 30.007 32.0168 29.8728 32.632C29.6267 33.784 29.1682 34.8801 28.3629 35.7972C23.9226 40.8638 18.4198 43.481 11.6196 43.2573C10.0538 43.2014 8.91299 42.4967 7.88402 41.4006C6.82149 40.2598 5.94907 39.0743 6.17276 37.4413C7.97346 36.2558 7.97345 36.2558 8.18596 34.5446C7.79449 34.6005 7.39191 34.634 6.69846 34.6788ZM103.087 35.5511C102.225 35.7413 101.521 35.8866 100.883 36.0209C100.604 35.6965 100.447 35.4952 100.268 35.3274C99.0938 34.209 99.3063 32.8668 99.8432 31.6141C100.291 30.5628 101.398 30.8089 102.304 30.7977C102.527 30.7977 102.751 30.9878 102.908 31.0661C103.858 32.5872 102.36 34.03 103.087 35.5511ZM4.55098 39.8012C4.42795 39.8795 4.30498 39.9578 4.18195 40.0361C3.9247 39.7341 3.6003 39.4657 3.43253 39.119C3.16411 38.5709 3.51085 38.4368 4.08125 38.4479C4.22665 38.8953 4.39439 39.3427 4.55098 39.8012Z" fill="white"/>
<path fill-rule="evenodd" clip-rule="evenodd" d="M101.398 19.6803C102.281 16.3138 100.794 13.8644 98.5905 11.6834C97.1141 10.2182 95.2016 9.46881 93.3337 8.68589C92.7633 8.45102 91.9916 8.56289 91.3317 8.64118C87.9652 9.01027 84.6098 9.42409 81.2545 9.82673C76.1319 10.4307 71.0094 11.0347 65.8869 11.6498C64.4553 11.8176 63.0349 11.9966 61.6032 12.1643C60.8203 12.2538 60.4177 12.7459 60.2388 13.4617C60.1717 13.7078 60.1381 13.965 60.1269 14.211C59.8137 18.2598 59.5006 22.3087 59.1986 26.3575C59.1762 26.6036 59.1874 26.8608 59.2097 27.118C59.2657 27.6437 59.7131 28.0911 60.2276 28.0575C60.8986 28.0128 61.5809 27.9345 62.2408 27.8003C74.8345 25.2726 87.4395 22.7337 100.033 20.1836C100.503 20.083 100.95 19.8369 101.398 19.6803ZM62.0618 14.3565C62.9566 13.7637 63.8066 13.7861 64.6343 13.6854C68.4929 13.238 72.3404 12.7682 76.199 12.3209C80.8965 11.7616 85.5829 11.2024 90.2804 10.6768C92.8416 10.386 92.8305 10.4419 95.1009 11.5603C96.745 12.3768 97.9642 13.6183 98.9708 15.1059C99.5971 16.0454 99.9326 17.052 99.4405 18.3158C97.5615 18.7073 95.6713 19.0987 93.77 19.4902C83.4354 21.5817 73.1121 23.6732 62.7776 25.7535C62.2967 25.843 61.7822 26.0107 61.1894 25.4068C61.4802 21.7942 61.771 18.0362 62.0618 14.3565Z" fill="white"/>
<path fill-rule="evenodd" clip-rule="evenodd" d="M21.6522 62.0473C24.851 61.846 28.0721 61.8124 31.2485 61.3762C34.1565 60.9736 37.031 60.213 39.883 59.4525C40.9008 59.1728 41.8179 58.4682 42.7574 57.909C43.5515 57.4392 44.2673 56.8241 45.095 56.4103C47.5891 55.18 50.128 54.0392 52.6333 52.82C53.461 52.4174 54.2663 51.9364 55.0156 51.3996C55.4071 51.12 55.7538 50.6726 55.9216 50.2252C56.0446 49.9009 55.9216 49.3864 55.7091 49.0956C55.4183 48.6817 54.8926 48.7936 54.613 49.1404C53.6176 50.3818 52.1971 50.9523 50.8214 51.5898C48.5286 52.6635 46.2358 53.7148 43.9653 54.8444C43.1377 55.2583 42.3772 55.8175 41.6502 56.3767C40.6212 57.1596 39.5027 57.6629 38.25 57.9985C33.5749 59.2735 28.8439 60.0229 23.9898 59.9558C21.9654 59.9334 19.941 59.9669 17.9054 59.9446C16.9771 59.9334 16.0488 59.8887 15.1205 59.8104C12.0671 59.5196 9.42754 58.3229 7.30248 56.0748C7.13471 55.8846 6.95577 55.7057 6.75444 55.5491C6.3518 55.2583 5.71429 55.3478 5.36758 55.7057C5.02085 56.0636 5.02081 56.6787 5.457 57.0701C7.73865 59.1169 10.1433 60.8729 13.2974 61.4433C16.0823 61.9466 18.8561 61.8683 21.6522 62.0473Z" fill="white"/>
<path fill-rule="evenodd" clip-rule="evenodd" d="M26.0811 87.2013C26.0811 80.8597 26.0811 74.5292 26.0811 68.1988C26.0811 67.36 26.0587 66.5099 25.9804 65.6711C25.9357 65.2125 25.6113 64.877 25.1304 64.9777C24.8508 65.0336 24.4817 65.2684 24.3922 65.5145C24.2356 65.9731 24.1909 66.4987 24.1909 67.002C24.1909 80.513 24.1909 94.0239 24.2021 107.546C24.2021 108.128 24.258 108.732 24.4258 109.28C24.4929 109.514 24.9403 109.761 25.1975 109.749C25.4547 109.738 25.8909 109.447 25.9357 109.235C26.0587 108.497 26.0811 107.725 26.0811 106.976C26.0811 100.365 26.0811 93.789 26.0811 87.2013Z" fill="white"/>
<path fill-rule="evenodd" clip-rule="evenodd" d="M32.613 91.5408C32.613 85.4676 32.613 79.3833 32.613 73.3101C32.613 72.639 32.613 71.9567 32.5682 71.2857C32.5347 70.7152 32.065 70.2567 31.6288 70.3126C31.036 70.4021 30.7787 70.8047 30.7116 71.3528C30.6669 71.7666 30.6781 72.1916 30.6669 72.6166C30.6669 73.4555 30.6669 74.3055 30.6669 75.1443C30.6669 86.7091 30.6669 98.2739 30.6669 109.839C30.6669 110.599 30.6445 111.371 30.8011 112.098C30.8682 112.389 31.3491 112.724 31.6959 112.791C32.1432 112.881 32.49 112.501 32.5347 112.042C32.6018 111.371 32.6018 110.7 32.6018 110.029C32.613 103.866 32.613 97.7035 32.613 91.5408Z" fill="white"/>
<path fill-rule="evenodd" clip-rule="evenodd" d="M44.256 86.1499C44.256 81.0721 44.2784 76.0056 44.2448 70.9278C44.2337 69.6639 44.0547 68.4113 43.9988 67.1474C43.9764 66.6553 44.0883 66.1632 44.1442 65.6711C44.189 65.2013 44.01 64.8434 43.585 64.6421C43.1824 64.452 42.5112 64.7204 42.3547 65.2125C42.1757 65.7606 42.0415 66.3533 42.0527 66.9237C42.1086 69.0264 42.2988 71.1403 42.3099 73.243C42.3435 82.8841 42.3211 92.5251 42.3323 102.166C42.3323 102.927 42.3435 103.687 42.4777 104.437C42.556 104.873 42.9922 105.152 43.4396 105.029C43.7192 104.951 44.0771 104.66 44.1218 104.403C44.2449 103.743 44.256 103.061 44.256 102.39C44.2672 96.9766 44.256 91.5632 44.256 86.1499Z" fill="white"/>
<path fill-rule="evenodd" clip-rule="evenodd" d="M18.8223 96.1713C18.8223 100.656 18.8111 105.141 18.8335 109.626C18.8335 110.297 18.9006 110.968 19.0236 111.628C19.0572 111.807 19.3816 112.076 19.5605 112.076C19.8513 112.064 20.2315 111.93 20.4105 111.707C20.6006 111.472 20.6677 111.08 20.6901 110.756C20.7348 109.995 20.7237 109.235 20.7237 108.474C20.7461 100.187 20.7684 91.8876 20.7796 83.5999C20.7796 82.6715 20.6789 81.7432 20.5671 80.8149C20.5112 80.3452 20.1421 80.0767 19.6723 80.1103C19.1914 80.1439 18.9118 80.4906 18.8894 80.9491C18.8447 81.788 18.8782 82.638 18.8782 83.4768C18.8782 87.7046 18.8782 91.9323 18.8782 96.1713C18.8447 96.1713 18.8335 96.1713 18.8223 96.1713Z" fill="white"/>
<path fill-rule="evenodd" clip-rule="evenodd" d="M110.893 26.8719C111.811 26.7489 112.739 26.6259 113.656 26.4917C115.747 26.1785 117.828 25.8541 119.953 25.8653C122.268 25.8765 124.46 25.1831 126.608 24.4002C128.196 23.8186 129.739 23.1363 131.305 22.4988C132.927 21.8389 133.878 20.6086 134.224 18.9309C134.291 18.6066 134.079 18.1144 133.822 17.8572C133.542 17.5664 132.782 17.8572 132.524 18.2934C132.357 18.5842 132.312 18.9533 132.11 19.1993C131.697 19.7138 131.316 20.3961 130.757 20.6198C128.431 21.604 126.071 22.5435 123.655 23.304C122.302 23.729 120.836 23.7962 119.416 23.9639C117.492 24.1988 115.557 24.4001 113.622 24.6015C112.705 24.7021 111.766 24.7245 110.86 24.8699C110.289 24.9594 109.719 25.1607 109.216 25.4403C109.014 25.5522 108.858 26.0442 108.925 26.3015C108.992 26.5363 109.35 26.8048 109.63 26.8607C110.032 26.939 110.468 26.8384 110.882 26.816C110.893 26.8272 110.893 26.8495 110.893 26.8719Z" fill="white"/>
<path fill-rule="evenodd" clip-rule="evenodd" d="M125.568 11.4597C124.74 12.5782 123.655 12.69 122.604 12.9472C120.725 13.417 119.819 14.6585 119.942 16.3697C120.042 17.7231 120.937 18.8862 122.358 19.2777C124.315 19.8145 126.205 19.5573 127.86 18.2934C129.773 16.8171 129.751 14.1552 127.804 12.69C127.212 12.2426 126.496 11.963 125.568 11.4597ZM123.979 17.6783C123.756 17.6448 123.42 17.6224 123.096 17.5329C122.358 17.3316 121.91 16.7612 121.91 16.0789C121.91 15.419 122.391 14.9046 123.196 14.748C124.08 14.5802 125.087 14.8598 125.758 13.9538C125.802 13.8867 126.082 13.9426 126.239 13.9986C127.391 14.4012 127.737 15.8105 126.876 16.6382C126.093 17.3763 125.12 17.5888 123.979 17.6783Z" fill="white"/>
<path fill-rule="evenodd" clip-rule="evenodd" d="M111.453 18.4948C112.113 18.4165 112.873 18.383 113.611 18.2488C116.542 17.7231 117.056 15.6204 116.083 13.115C115.334 11.1913 112.705 10.1735 110.245 10.7998C108.299 11.2919 106.945 13.9874 107.46 16.1237C107.762 17.3875 108.534 18.204 109.853 18.3942C110.357 18.4613 110.86 18.4501 111.453 18.4948ZM112.068 16.5934C111.33 16.5934 110.994 16.6158 110.659 16.5934C109.708 16.5151 109.317 16.0789 109.305 15.1394C109.305 13.5512 110.994 12.3097 112.661 12.69C113.79 12.9473 114.417 13.6184 114.573 14.7368C114.685 15.5421 114.406 16.0566 113.645 16.2691C112.996 16.4368 112.336 16.5375 112.068 16.5934Z" fill="white"/>
<path fill-rule="evenodd" clip-rule="evenodd" d="M38.0041 9.44644C38.1942 9.44644 38.4515 9.41283 38.6975 9.45757C42.8246 10.1622 47.0859 10.0392 51.1347 11.303C52.2867 11.6609 52.9354 11.4708 53.0137 10.878C53.1032 10.2405 52.667 9.81548 51.5261 9.46876C49.5129 8.8648 47.4438 8.50688 45.3523 8.27201C43.5181 8.07069 41.6838 7.81344 39.8495 7.63448C38.9324 7.54501 38.0041 7.54502 37.087 7.57857C36.4271 7.61213 36.0468 8.149 36.1027 8.78652C36.1474 9.28983 36.5501 9.59182 37.1988 9.56945C37.4448 9.56945 37.6909 9.50236 38.0041 9.44644Z" fill="white"/>
<path fill-rule="evenodd" clip-rule="evenodd" d="M121.351 51.2095C118.32 51.2095 115.278 51.1983 112.247 51.2095C111.654 51.2095 111.061 51.2095 110.48 51.299C110.032 51.3661 109.741 51.6569 109.753 52.1602C109.764 52.6635 110.099 52.9319 110.524 53.0214C111.017 53.122 111.531 53.1332 112.034 53.1444C118.611 53.1668 125.187 53.178 131.764 53.1668C132.234 53.1668 132.726 52.9878 133.173 52.7977C133.341 52.7194 133.52 52.3615 133.475 52.1825C133.408 51.8918 133.195 51.4667 132.972 51.4108C132.413 51.2654 131.809 51.2431 131.227 51.2431C127.928 51.2095 124.639 51.2207 121.351 51.2095Z" fill="white"/>
<path fill-rule="evenodd" clip-rule="evenodd" d="M118.242 75.6029C121.362 75.6029 124.494 75.6029 127.614 75.6029C127.95 75.6029 128.285 75.6253 128.621 75.6141C129.393 75.5805 129.885 75.2338 129.952 74.7194C130.019 74.1937 129.538 73.7463 128.766 73.6904C128.095 73.6457 127.413 73.6456 126.742 73.6456C123.443 73.6456 120.154 73.6456 116.866 73.6456C114.081 73.6456 111.296 73.6344 108.5 73.6568C108.008 73.6568 107.482 73.7016 107.024 73.8805C106.789 73.97 106.565 74.4062 106.576 74.6858C106.587 74.9542 106.867 75.3793 107.102 75.4352C107.661 75.5806 108.265 75.5917 108.858 75.5917C111.99 75.6029 115.121 75.6029 118.242 75.6029Z" fill="white"/>
<path fill-rule="evenodd" clip-rule="evenodd" d="M123.163 48.7489C126.127 48.7489 129.091 48.7489 132.043 48.7489C132.547 48.7489 133.061 48.7713 133.565 48.7489C134.392 48.7153 134.828 48.3575 134.784 47.7982C134.739 47.2278 134.336 46.9258 133.497 46.8587C133.072 46.8251 132.647 46.8252 132.234 46.8252C126.138 46.8252 120.054 46.814 113.958 46.8364C113.287 46.8364 112.616 46.9146 111.967 47.0824C111.744 47.1495 111.475 47.5857 111.475 47.8429C111.486 48.1002 111.766 48.5252 112.001 48.5812C112.56 48.7266 113.164 48.7266 113.757 48.7266C116.9 48.7489 120.031 48.7489 123.163 48.7489Z" fill="white"/>
<path fill-rule="evenodd" clip-rule="evenodd" d="M118.163 78.2425C115.043 78.2425 111.922 78.2313 108.802 78.2537C108.232 78.2537 107.639 78.3655 107.102 78.5669C106.901 78.6452 106.766 79.1149 106.744 79.4057C106.733 79.5958 106.99 79.9202 107.169 79.9537C107.818 80.0768 108.489 80.1663 109.149 80.1663C114.629 80.1774 120.11 80.1774 125.601 80.1774C126.608 80.1774 127.626 80.2333 128.632 80.211C128.945 80.211 129.292 80.0991 129.56 79.9314C129.739 79.8195 129.952 79.5176 129.93 79.3386C129.885 79.0478 129.706 78.6004 129.493 78.5333C128.867 78.3431 128.185 78.2537 127.525 78.2537C124.416 78.2313 121.284 78.2537 118.163 78.2425Z" fill="white"/>
<path fill-rule="evenodd" clip-rule="evenodd" d="M123.085 95.9028C119.796 95.9028 116.508 95.8916 113.22 95.914C112.001 95.9252 111.419 96.3054 111.531 96.9206C111.643 97.491 112.124 97.793 113.13 97.8153C114.227 97.8489 115.323 97.8265 116.419 97.8265C121.306 97.8265 126.194 97.8265 131.093 97.8265C131.853 97.8265 132.614 97.8265 133.363 97.7706C134.146 97.7147 134.638 97.2673 134.549 96.7529C134.448 96.1601 133.99 95.9587 133.453 95.9251C132.86 95.9028 132.278 95.9028 131.686 95.9028C128.822 95.9028 125.959 95.9028 123.085 95.9028Z" fill="white"/>
<path fill-rule="evenodd" clip-rule="evenodd" d="M121.989 91.3172C118.946 91.3172 115.904 91.3172 112.862 91.3283C112.269 91.3283 111.665 91.3284 111.106 91.4738C110.871 91.5297 110.58 91.9435 110.569 92.212C110.558 92.4692 110.826 92.8159 111.072 92.9837C111.33 93.1515 111.71 93.1962 112.034 93.2185C112.627 93.2521 113.22 93.2409 113.801 93.2409C119.55 93.2409 125.288 93.2521 131.037 93.2409C131.697 93.2409 132.368 93.1515 133.005 92.9725C133.229 92.9054 133.475 92.4468 133.464 92.1896C133.441 91.9323 133.128 91.5409 132.882 91.4849C132.312 91.3507 131.708 91.3507 131.126 91.3507C128.062 91.306 125.031 91.3172 121.989 91.3172Z" fill="white"/>
<path fill-rule="evenodd" clip-rule="evenodd" d="M119.539 65.5257C122.503 65.5257 125.456 65.5368 128.408 65.5145C128.99 65.5033 129.572 65.4026 130.131 65.246C130.299 65.2013 130.466 64.8658 130.478 64.6533C130.489 64.4408 130.355 64.15 130.198 63.9934C130.03 63.8368 129.762 63.7473 129.516 63.7026C129.191 63.6355 128.845 63.6355 128.509 63.6355C122.514 63.6355 116.508 63.6243 110.513 63.6355C110.01 63.6355 109.495 63.669 109.026 63.8368C108.768 63.9263 108.511 64.2842 108.455 64.5638C108.355 65.0447 108.713 65.3579 109.16 65.425C109.742 65.5033 110.334 65.5145 110.927 65.5145C113.79 65.5368 116.665 65.5257 119.539 65.5257Z" fill="white"/>
<path fill-rule="evenodd" clip-rule="evenodd" d="M119.058 60.4032C116.195 60.4032 113.332 60.392 110.469 60.4143C109.887 60.4143 109.283 60.4367 108.724 60.5821C108.489 60.6492 108.209 61.063 108.198 61.3203C108.187 61.5887 108.422 61.9802 108.668 62.1032C109.015 62.2822 109.473 62.3269 109.876 62.3269C115.938 62.3381 122 62.3381 128.073 62.3381C128.33 62.3381 128.576 62.3381 128.833 62.2934C129.437 62.2039 129.93 61.5999 129.807 61.0407C129.672 60.4703 129.247 60.3137 128.666 60.3137C125.467 60.3361 122.268 60.3249 119.069 60.3249C119.058 60.3473 119.058 60.3697 119.058 60.4032Z" fill="white"/>
<path fill-rule="evenodd" clip-rule="evenodd" d="M121.463 82.6604C118.588 82.6604 115.714 82.6492 112.84 82.6716C112.347 82.6716 111.844 82.7834 111.386 82.9288C111.218 82.9847 111.05 83.3203 111.039 83.5328C111.028 83.7453 111.173 84.0473 111.341 84.1703C111.609 84.3493 111.956 84.4723 112.28 84.4834C113.119 84.5282 113.969 84.517 114.808 84.517C119.796 84.5394 124.785 84.5617 129.762 84.5617C130.243 84.5617 130.768 84.4387 131.193 84.215C131.406 84.1032 131.518 83.6558 131.529 83.365C131.529 83.186 131.26 82.8729 131.081 82.8394C130.511 82.7275 129.918 82.6716 129.326 82.6604C126.708 82.6492 124.091 82.6604 121.463 82.6604Z" fill="white"/>
<path fill-rule="evenodd" clip-rule="evenodd" d="M126.16 102.144C128.945 102.144 131.73 102.144 134.515 102.144C134.683 102.144 134.851 102.177 135.019 102.166C135.924 102.133 136.551 101.696 136.439 101.115C136.294 100.365 135.667 100.343 135.074 100.31C134.739 100.287 134.403 100.22 134.068 100.22C128.42 100.209 122.76 100.198 117.112 100.22C116.631 100.22 116.139 100.421 115.692 100.623C115.535 100.701 115.423 101.07 115.457 101.283C115.479 101.495 115.669 101.808 115.837 101.853C116.396 101.987 116.989 102.077 117.571 102.088C120.445 102.11 123.308 102.099 126.183 102.099C126.16 102.11 126.16 102.121 126.16 102.144Z" fill="white"/>
<path fill-rule="evenodd" clip-rule="evenodd" d="M126.597 43.0895C123.968 43.0895 121.351 43.0783 118.723 43.0895C118.219 43.0895 117.694 43.0783 117.224 43.2349C116.978 43.3132 116.698 43.7158 116.687 43.9842C116.676 44.2415 116.933 44.633 117.179 44.7672C117.537 44.9573 117.984 45.0133 118.387 45.0133C123.633 45.0245 128.878 45.0133 134.124 45.0021C134.549 45.0021 134.974 44.9574 135.388 44.8791C135.947 44.7672 136.26 44.4093 136.282 43.8277C136.294 43.3468 135.857 42.9889 135.22 43.0001C132.77 43.0336 130.321 43.0671 127.86 43.1007C127.447 43.0895 127.022 43.0895 126.597 43.0895Z" fill="white"/>
<path fill-rule="evenodd" clip-rule="evenodd" d="M129.974 69.1271C128.856 68.8475 127.681 68.8363 126.518 68.8363C120.277 68.8251 114.048 68.8363 107.807 68.8363C107.303 68.8363 106.789 68.8475 106.297 68.8922C105.682 68.9482 105.245 69.3732 105.312 69.8094C105.413 70.4357 105.894 70.5811 106.42 70.6147C107.012 70.6594 107.594 70.6594 108.187 70.6594C113.746 70.6594 119.315 70.6371 124.874 70.6706C126.127 70.6818 127.379 70.8271 128.632 70.9725C129.952 71.1291 130.243 70.7824 129.974 69.1271Z" fill="white"/>
<path fill-rule="evenodd" clip-rule="evenodd" d="M134.381 68.456C134.224 66.0961 134.001 63.7362 134.56 61.3986C134.772 60.5038 135.019 59.6091 135.253 58.7143C135.399 58.1439 135.6 57.5847 135.701 57.0143C135.779 56.5557 135.544 56.1419 135.074 56.0636C134.806 56.0301 134.403 56.1866 134.224 56.3991C133.956 56.7011 133.811 57.1149 133.665 57.5064C132.759 59.8887 132.278 62.3717 132.312 64.9217C132.357 67.785 132.446 70.6594 132.524 73.5227C132.547 74.1154 132.558 74.7418 133.318 74.9095C133.922 75.0326 134.37 74.4733 134.381 73.5115C134.392 71.8338 134.381 70.1449 134.381 68.456Z" fill="white"/>
<path fill-rule="evenodd" clip-rule="evenodd" d="M120.758 56.0859C118.141 56.0859 115.524 56.0747 112.918 56.0971C112.258 56.1083 111.576 56.1978 110.927 56.3432C110.748 56.3768 110.502 56.7235 110.524 56.9024C110.558 57.1932 110.703 57.607 110.927 57.7189C111.285 57.8978 111.732 57.9314 112.146 57.9314C117.962 57.9426 123.789 57.9426 129.605 57.9314C129.941 57.9314 130.321 57.9314 130.589 57.7748C130.824 57.6406 131.07 57.2715 131.07 57.0143C131.07 56.7458 130.824 56.3208 130.601 56.2537C130.142 56.0971 129.616 56.0971 129.113 56.0971C126.317 56.0747 123.543 56.0859 120.758 56.0859Z" fill="white"/>
<path fill-rule="evenodd" clip-rule="evenodd" d="M78.5813 64.1836C76.6911 65.1007 75.0135 65.8612 73.3694 66.7001C69.0745 68.8922 69.1081 73.1199 70.7857 76.218C71.5575 77.6497 72.5529 78.9135 73.7832 79.9537C74.4095 80.4794 75.2036 80.8484 75.9642 81.184C76.5682 81.4636 77.2504 81.5866 77.9886 81.8103C78.3912 86.1052 80.3038 89.8744 81.892 93.7778C82.1157 94.3146 82.3617 94.8627 82.6861 95.3436C82.9322 95.7127 83.3795 95.8917 83.7822 95.5561C84.0059 95.366 84.2519 94.9857 84.2072 94.7285C84.1065 94.1581 83.8605 93.61 83.648 93.0619C82.8091 90.9369 81.9479 88.823 81.0978 86.7091C80.438 85.0426 80.013 83.3426 79.9571 81.5419C79.9123 80.2221 79.6439 79.9984 78.3241 79.7412C78.078 79.6965 77.8208 79.6853 77.5748 79.6517C76.2662 79.4616 75.2036 78.8353 74.32 77.851C73.4029 76.8444 72.5305 75.793 72.0943 74.4845C71.1101 71.5317 71.8259 69.8205 73.895 68.5567C75.3378 67.6731 76.7807 66.7895 78.4919 66.4876C79.7558 66.2751 80.3709 65.548 80.4827 64.2618C80.6169 62.6624 80.7288 61.0407 81.0643 59.486C81.9032 55.605 82.7979 51.7352 84.6322 48.1673C84.8559 47.7311 84.8223 47.362 84.4644 47.0377C84.0841 46.6797 83.4578 46.6909 83.1334 47.1607C82.742 47.6975 82.3617 48.2791 82.138 48.9054C80.5722 53.2898 79.1294 57.6965 78.7715 62.3828C78.738 62.9868 78.6484 63.5684 78.5813 64.1836Z" fill="white"/>
<path fill-rule="evenodd" clip-rule="evenodd" d="M76.859 43.2685C76.8366 43.0671 76.8366 42.3849 76.7024 41.725C76.1767 39.1414 74.2977 37.3966 71.6917 37.0275C71.4457 36.9939 71.1549 36.9044 70.9424 36.9939C69.3766 37.6426 67.889 38.4367 66.8153 39.7789C65.7528 41.0987 65.4172 42.6645 65.6857 44.3198C66.2113 47.6528 69.5108 50.0686 72.6648 49.4647C75.0695 49.0061 76.7136 47.1606 76.8702 44.7559C76.8814 44.4204 76.859 44.0849 76.859 43.2685ZM74.9576 43.2685C74.9576 43.9731 74.98 44.3086 74.9576 44.6441C74.8458 45.9192 74.253 46.9034 73.045 47.3843C71.7141 47.91 70.4279 47.8429 69.287 46.8251C66.9159 44.7001 66.9719 41.9822 69.4436 39.9914C69.5779 39.8907 69.7233 39.79 69.824 39.667C70.5398 38.817 71.4457 38.8953 72.3516 39.2085C73.6378 39.6558 74.4543 40.5617 74.7563 41.8927C74.8793 42.4631 74.9241 43.0448 74.9576 43.2685Z" fill="white"/>
<path fill-rule="evenodd" clip-rule="evenodd" d="M73.1121 101.641C72.4186 102.166 71.7587 102.67 71.0989 103.173C69.8462 104.146 69.5666 105.097 70.137 106.472C70.741 107.926 71.8482 108.687 73.2239 108.575C75.4049 108.396 76.7023 106.83 76.4786 104.627C76.2661 102.412 75.4384 101.696 73.1121 101.641ZM74.443 104.012C74.5101 104.627 74.6555 105.041 74.5884 105.41C74.443 106.17 73.9397 106.539 73.1904 106.595C72.5864 106.64 72.0608 106.26 71.9154 105.633C71.77 105.018 72.1838 104.727 72.6871 104.549C73.1457 104.392 73.6265 104.258 74.443 104.012Z" fill="white"/>
<path fill-rule="evenodd" clip-rule="evenodd" d="M77.3735 76.207C77.5413 76.207 77.709 76.2181 77.8879 76.207C80.0354 76.0951 80.4492 75.6924 80.4045 73.6457C80.3821 72.7173 80.2702 71.789 80.1248 70.8719C80.0242 70.2344 79.4873 69.8094 78.861 69.8653C78.2906 69.9212 77.6195 69.9771 77.1945 70.3015C76.3221 70.9502 75.5504 71.7331 74.8234 72.5496C74.2865 73.1424 74.2194 73.9253 74.376 74.7082C74.5661 75.6589 75.1253 76.1622 76.1208 76.2293C76.5458 76.2628 76.9596 76.2405 77.3846 76.2405C77.3734 76.2405 77.3735 76.2293 77.3735 76.207ZM78.2347 72.0463C78.3129 72.8404 78.3801 73.4444 78.4472 74.026C77.1162 74.3615 77.1162 74.3615 76.3445 73.847C76.6688 73.0529 77.2169 72.4937 78.2347 72.0463Z" fill="white"/>
<path fill-rule="evenodd" clip-rule="evenodd" d="M68.4258 96.518C68.4594 97.5806 68.9179 98.6543 70.0587 99.2359C71.166 99.7951 72.3404 99.728 73.4141 99.0793C74.8793 98.1957 75.2484 95.8134 74.1523 94.4489C73.9957 94.2588 73.8056 94.0574 73.5819 93.9791C72.3739 93.5429 71.1436 93.364 69.9245 93.9344C68.9291 94.4153 68.4258 95.2206 68.4258 96.518ZM70.3495 96.3279C70.4166 95.7911 71.0318 95.4331 71.7029 95.5562C72.4411 95.6904 72.8437 96.1042 72.7989 96.6746C72.7542 97.2674 72.2397 97.67 71.5687 97.6477C70.8417 97.6141 70.2712 96.999 70.3495 96.3279Z" fill="white"/>
<path fill-rule="evenodd" clip-rule="evenodd" d="M98.0089 75.9385C98.0089 78.1307 97.9418 80.334 98.0201 82.5262C98.1432 85.9151 98.7359 89.2369 99.9103 92.4469C100.291 93.4758 100.425 94.5831 100.727 95.6345C100.906 96.2832 101.118 96.9319 101.409 97.5247C101.599 97.9161 102.024 98.095 102.483 97.9496C102.952 97.8042 103.176 97.4351 103.064 96.9766C102.662 95.3436 102.337 93.6772 101.767 92.0889C100.302 87.973 99.7873 83.7229 99.7426 79.3945C99.709 75.849 99.7314 72.2923 99.7202 68.7468C99.7202 68.0758 99.6978 67.3935 99.6195 66.7224C99.5748 66.2639 99.2504 65.9284 98.7695 66.0402C98.4899 66.1073 98.1096 66.3534 98.0425 66.5994C97.8859 67.1587 97.8636 67.7626 97.8524 68.3442C97.83 70.8831 97.8412 73.422 97.8412 75.9497C97.9083 75.9385 97.9642 75.9385 98.0089 75.9385Z" fill="white"/>
<path fill-rule="evenodd" clip-rule="evenodd" d="M154.334 72.1358C154.289 76.2293 154.949 80.8933 156.47 85.423C157.253 87.7606 158.271 89.9863 159.647 92.033C160.788 93.7331 162.141 95.243 163.897 96.3279C166.917 98.1957 169.97 98.1957 172.979 96.3279C174.88 95.1424 176.312 93.4758 177.509 91.608C179.119 89.0915 180.238 86.3624 180.998 83.488C183.302 74.6858 183.168 65.9284 180.372 57.2492C179.566 54.7438 178.426 52.3839 176.871 50.2476C175.775 48.7265 174.5 47.3732 172.878 46.4002C169.925 44.6218 166.95 44.6218 164.009 46.4002C162.163 47.5186 160.765 49.0956 159.58 50.874C157.578 53.8714 156.359 57.182 155.52 60.6492C154.625 64.3625 154.334 67.2369 154.334 72.1358ZM156.549 71.3976C156.515 68.1652 156.918 64.9777 157.622 61.846C158.305 58.7814 159.367 55.8399 161.056 53.1668C162.152 51.4332 163.45 49.8897 165.239 48.8272C167.711 47.3396 170.205 47.3396 172.677 48.816C174.153 49.6996 175.305 50.9187 176.289 52.3168C177.967 54.6879 179.086 57.3275 179.846 60.1236C181.77 67.1139 181.859 74.1489 180.215 81.184C179.466 84.4052 178.303 87.4809 176.379 90.2211C175.294 91.7646 174.03 93.1068 172.364 94.0127C170.104 95.2318 167.845 95.2318 165.586 94.0239C164.143 93.241 163.002 92.1337 162.007 90.8475C160.709 89.1586 159.747 87.2796 158.998 85.2999C157.276 80.8261 156.627 76.1622 156.549 71.3976Z" fill="white"/>
</svg>
