<svg width="151" height="135" viewBox="0 0 151 135" fill="none" xmlns="http://www.w3.org/2000/svg">
<path fill-rule="evenodd" clip-rule="evenodd" d="M114.355 120.238C114.061 121.65 113.781 122.872 113.531 124.108C112.943 127.095 112.383 130.082 111.81 133.055C111.78 133.187 111.78 133.334 111.751 133.481C111.442 134.879 111.118 135.144 109.72 134.938C107.204 134.57 104.687 134.188 102.171 133.79C96.1672 132.849 90.1634 131.892 84.1596 130.95C77.4641 129.891 70.7539 128.817 64.0585 127.757C58.2606 126.845 52.4628 125.947 46.6797 125.035C40.8819 124.122 35.0988 123.21 29.301 122.298C23.4443 121.371 17.5728 120.458 11.7162 119.516C8.50823 119.001 5.30029 118.486 2.07764 117.986C1.72447 117.927 1.37132 117.898 1.03287 117.81C0.267672 117.618 -0.0854984 117.221 0.0175087 116.456C0.194092 115.19 0.414825 113.939 0.664985 112.689C3.47561 98.0469 6.28621 83.3904 9.11155 68.7487C12.3048 52.1646 15.5127 35.5805 18.7059 18.9816C19.2945 15.9355 19.8685 12.8748 20.4718 9.81401C20.5306 9.53442 20.6189 9.2695 20.6778 9.03406C23.1941 8.06285 23.1941 8.09227 25.5191 8.47487C31.3022 9.41665 37.1 10.329 42.8979 11.2561C44.2222 11.4621 45.5319 11.6387 46.9446 11.8447C47.2094 11.2414 47.4596 10.7558 47.6362 10.2407C48.5191 7.6214 49.3873 5.01677 50.2555 2.39744C50.4174 1.92655 50.5498 1.45574 50.7264 0.999563C51.0649 0.146076 51.418 -0.089419 52.3598 0.0283034C54.2581 0.263748 56.1416 0.528638 58.0399 0.778798C64.8972 1.73529 71.7545 2.69182 78.6119 3.66303C84.1448 4.44294 89.6631 5.25224 95.196 6.01744C100.729 6.79735 106.262 7.54783 111.795 8.31302C117.328 9.09293 122.861 9.87288 128.379 10.6528C132.852 11.2855 137.341 11.9035 141.814 12.5216C144.124 12.8453 146.435 13.1397 148.745 13.4781C149.231 13.5517 149.687 13.7283 150.084 13.846C150.614 14.5082 150.393 15.1409 150.275 15.759C149.422 20.2765 148.554 24.7794 147.685 29.297C145.463 40.8927 143.256 52.4884 141.034 64.084C139.003 74.7085 136.973 85.3328 134.942 95.9426C133.441 103.786 131.94 111.629 130.439 119.472C129.909 122.283 129.806 122.371 126.996 121.945C123.567 121.43 120.138 120.929 116.71 120.429C116.048 120.341 115.341 120.311 114.355 120.238ZM1.88636 116.323C4.16723 116.691 6.31565 117.044 8.4788 117.383C14.2766 118.295 20.0744 119.207 25.8723 120.12C31.7289 121.047 37.6004 121.974 43.4718 122.901C49.2696 123.813 55.0674 124.726 60.8652 125.638C66.7366 126.565 72.5933 127.507 78.4647 128.419C84.3361 129.346 90.1928 130.273 96.0642 131.2C100.332 131.863 104.584 132.525 108.852 133.172C109.249 133.231 109.661 133.187 110.103 133.187C110.25 132.643 110.397 132.172 110.485 131.686C110.824 129.95 111.133 128.213 111.471 126.477C115.135 107.391 118.799 88.2906 122.463 69.2049C125.083 55.5933 127.702 41.9816 130.307 28.37C130.395 27.8991 130.38 27.4134 130.41 26.869C129.748 26.7365 129.203 26.6189 128.659 26.5306C123.008 25.6329 117.343 24.7353 111.692 23.8376C105.762 22.8959 99.8313 21.9394 93.8863 20.9829C88.2357 20.0852 82.5703 19.1877 76.9196 18.29C71.1218 17.363 65.3387 16.4359 59.5409 15.5088C57.3041 15.1557 55.0674 14.8614 52.8454 14.4346C50.5645 13.9932 48.2542 13.8313 45.9734 13.4045C41.5293 12.5658 37.0412 11.9477 32.5677 11.2266C29.1685 10.6822 25.7693 10.1083 22.2817 9.53442C22.1934 9.75514 22.061 10.0053 22.0169 10.2702C15.2773 45.3367 8.55237 80.4033 1.82748 115.47C1.76862 115.661 1.84221 115.882 1.88636 116.323ZM56.7891 13.3898C57.4071 12.5658 57.3924 11.6828 57.5837 10.8735C58.0693 8.85747 58.0988 8.79859 60.1442 9.10761C62.6605 9.49021 65.1621 9.94645 67.6784 10.3732C74.7123 11.5651 81.761 12.7571 88.7949 13.949C95.8288 15.1557 102.863 16.3623 109.911 17.5689C117.784 18.908 125.671 20.2324 133.544 21.5568C134.868 21.7775 136.193 22.0277 137.502 22.2925C138.121 22.425 138.444 22.9106 138.4 23.5433C138.385 23.8229 138.297 24.1025 138.253 24.3821C137.532 28.6348 136.796 32.8876 136.075 37.1403C134.177 48.3681 132.279 59.5811 130.366 70.8089C128.556 81.4775 126.716 92.1314 124.906 102.8C124.347 106.14 124.362 106.155 121.007 105.728C119.756 105.566 118.52 105.463 117.137 105.419C116.342 109.628 115.562 113.719 114.797 117.81C114.767 118.001 114.856 118.207 114.885 118.354C114.988 118.442 115.032 118.531 115.091 118.531C119.211 119.149 123.332 119.767 127.467 120.341C127.849 120.399 128.261 120.267 128.659 120.223C128.835 119.428 129.012 118.737 129.144 118.045C132.176 102.138 135.192 86.2305 138.238 70.338C141.667 52.3559 145.125 34.3738 148.568 16.377C148.642 15.9797 148.833 15.5529 148.304 15.0085C116.651 10.5792 84.7923 6.12043 52.9484 1.67641C52.7571 1.64698 52.5511 1.72054 52.3598 1.74997C51.3886 3.7071 49.2107 10.3879 49.0047 12.0949C51.5652 12.7129 54.1845 13.0955 56.7891 13.3898ZM125.539 62.6419C126.584 61.9502 127.57 61.4794 128.32 60.7436C128.982 60.1109 129.718 59.9785 130.469 59.949C131.278 56.8588 132.087 51.576 131.925 50.2221C130.218 51.2964 128.835 52.7091 127.246 53.8716C127.143 53.9452 127.055 54.0923 127.025 54.2248C126.878 54.7692 126.701 55.3137 126.657 55.8729C126.613 56.4468 126.216 57.0059 126.554 57.7711C127.261 57.1678 127.835 56.6675 128.423 56.1672C128.85 55.7993 129.247 55.402 129.703 55.0783C130.012 54.8575 130.439 54.8722 130.63 55.2107C130.778 55.4755 130.822 55.8729 130.748 56.1672C130.689 56.4026 130.395 56.5792 130.189 56.7705C128.938 57.9183 127.732 59.1102 126.437 60.1992C125.73 60.8025 125.392 61.4646 125.539 62.6419ZM124.406 68.2778C124.597 68.2925 124.7 68.3367 124.73 68.3073C125.848 67.3508 127.069 66.4826 127.79 65.1435C127.967 64.805 128.335 64.6138 128.673 64.8198C128.923 64.9816 129.129 65.3348 129.218 65.6291C129.277 65.8645 129.188 66.2029 129.026 66.409C128.688 66.8504 128.261 67.2478 127.864 67.6304C126.701 68.7634 125.495 69.8523 124.362 71.0001C123.346 72.0302 123.185 72.7513 123.464 74.3553C125.686 72.9132 126.216 72.2951 126.922 70.4263C127.702 69.9407 127.996 70.9266 128.585 70.9708C129.659 66.5415 130.115 63.4071 129.865 61.8325C128.276 62.5389 127.025 63.6573 125.73 64.7315C124.568 65.7027 124.406 66.924 124.406 68.2778ZM135.619 29.9886C135.957 28.5171 136.296 27.2074 136.252 25.574C135.707 25.9713 135.383 26.2216 135.045 26.457C134.707 26.6924 134.353 26.9425 133.986 27.1338C133.573 27.3399 133.117 27.1633 132.897 26.7807C132.676 26.3981 132.867 26.0744 133.132 25.8536C133.662 25.3974 134.265 25.0296 134.78 24.5587C135.001 24.3674 135.06 23.9996 135.28 23.5287C134 23.3227 132.911 23.1313 131.631 22.9253C131.381 23.249 131.116 23.5875 130.851 23.9112C130.557 24.2791 130.248 24.6176 129.851 25.0885C130.38 25.1915 130.733 25.2209 131.072 25.3092C132.131 25.5888 132.352 25.8536 132.176 26.9573C131.984 28.2081 131.69 29.4442 131.469 30.695C131.41 31.0629 131.16 31.4896 131.69 31.9017C132.646 31.1365 133.603 30.3712 134.515 29.6355C134.883 29.7532 135.148 29.8415 135.619 29.9886ZM123.611 100.681C123.744 99.4743 124.244 98.3706 124.038 97.0609C123.744 97.1787 123.508 97.2228 123.376 97.3405C122.213 98.4736 120.962 99.5478 119.947 100.799C119.344 101.534 118.652 101.785 117.813 101.858C117.725 102.52 117.652 103.065 117.563 103.727C119.373 103.948 121.08 104.301 122.979 104.183C123.023 103.698 123.067 103.271 123.111 102.829C122.449 103.079 121.948 103.315 121.419 103.477C121.271 103.521 120.948 103.359 120.889 103.227C120.786 103.006 120.727 102.609 120.845 102.461C121.595 101.637 122.316 100.769 123.611 100.681ZM127.393 77.9163C125.201 79.5644 123.538 81.4774 121.492 82.8754C121.213 84.0085 120.963 85.0974 120.904 86.3924C121.286 86.2305 121.551 86.1569 121.757 86.0097C122.728 85.3034 123.685 84.5971 124.627 83.8466C126.422 82.4045 127.32 80.5357 127.393 77.9163ZM119.653 92.7641C119.829 92.7788 119.932 92.8083 119.962 92.7788C121.654 91.3956 123.361 90.0418 124.994 88.6144C125.995 87.7462 126.216 86.6867 125.966 84.9061C124.053 86.3188 122.199 87.6873 120.374 89.0264C119.962 90.2772 119.756 91.5133 119.653 92.7641ZM118.27 99.5773C118.373 99.6362 118.461 99.695 118.564 99.7686C120.374 98.0028 122.199 96.2369 123.994 94.4563C124.185 94.265 124.406 93.956 124.362 93.7353C124.229 92.9995 124.715 92.5728 125.009 92.0283C125.186 91.7193 125.127 91.2925 125.2 90.7039C122.655 92.2049 121.036 94.3975 118.917 96.1633C118.711 97.2228 118.49 98.4001 118.27 99.5773ZM135.545 30.8274C133.853 32.2106 132.485 33.3143 131.145 34.4327C130.939 34.6092 130.704 34.8447 130.66 35.0949C130.454 36.2427 129.983 37.361 130.115 38.5971C131.602 38.2734 132.205 36.9931 133.044 36.1102C133.618 36.2721 134.059 36.3898 134.574 36.5369C134.883 34.6975 135.177 32.9758 135.545 30.8274ZM134.206 37.9644C133.897 38.0968 133.691 38.1556 133.529 38.2733C132.47 39.0974 131.396 39.9068 130.38 40.7897C129.144 41.8492 128.703 43.3942 129.026 45.4397C130.277 44.2919 131.543 43.306 132.22 41.8345C132.72 41.8051 133.132 41.7756 133.618 41.7462C133.868 40.5248 134.236 39.3329 134.206 37.9644ZM128.011 48.6771C128.011 49.4128 127.511 50.2369 127.732 51.3111C128.894 50.5901 129.777 49.7955 130.675 49.0156C130.939 48.7801 131.145 48.4563 131.44 48.2944C131.778 48.1179 132.205 48.0738 132.602 47.9855C132.779 46.9407 132.955 45.9694 133.103 44.9835C133.147 44.6745 133.338 44.2772 132.764 44.1154C131.278 45.5574 129.762 46.9995 128.011 48.6771ZM127.879 75.5472C127.996 74.9586 128.114 74.473 128.202 73.9874C128.276 73.5459 128.467 73.0898 128.114 72.5453C126.157 74.3259 124.303 76.0181 122.449 77.6957C122.316 78.4903 122.199 79.226 122.051 80.2119C124.288 78.7992 125.686 76.7538 127.879 75.5472ZM113.163 19.7909C111.501 19.4819 110.264 19.2465 109.028 19.0258C108.822 18.9964 108.572 18.9816 108.41 19.0699C107.483 19.5555 106.659 20.1588 106.041 21.2919C107.675 21.5568 109.117 21.7775 110.515 21.9982C111.324 21.3213 112.074 20.7033 113.163 19.7909ZM119.491 21.0712C119.049 20.8504 118.888 20.7181 118.696 20.6886C117.46 20.4826 116.209 20.2913 115.032 20.1147C114.326 20.8652 113.723 21.5126 113.075 22.2043C114.002 22.8812 115.076 22.6016 115.989 22.9253C116.931 23.2637 117.637 22.9106 118.284 22.2778C118.623 21.9247 118.976 21.5862 119.491 21.0712ZM98.5953 20.1441C99.2133 19.2465 100.302 18.9669 100.552 17.7602C99.228 17.2157 97.8595 17.1422 96.4468 16.9951C95.8877 17.775 95.0194 18.3047 94.8576 19.4966C96.1231 19.7173 97.2709 19.9086 98.5953 20.1441ZM73.5939 13.1397C72.5639 12.8307 71.6957 12.6246 70.8128 12.5658C70.5479 12.551 70.2094 12.6099 70.0181 12.7718C69.2382 13.4487 68.267 13.949 67.7226 15.0232C69.1647 15.6559 70.6362 15.6118 72.0341 15.862C72.2401 15.3028 72.3579 14.8172 72.5933 14.4052C72.8288 13.9931 73.1819 13.64 73.5939 13.1397ZM80.8339 14.2433C80.4219 15.3323 79.0828 15.5677 78.6266 16.789C79.7597 17.3041 80.878 17.26 81.9081 17.3777C82.5997 16.7302 83.2325 16.171 83.8358 15.5824C83.9977 15.4205 84.0565 15.1556 84.2037 14.8319C83.0118 14.6259 81.9817 14.4493 80.8339 14.2433ZM58.8198 13.7577C59.8646 13.846 60.7034 14.3463 61.395 14.1108C61.8953 13.0661 62.3073 12.2125 62.7488 11.3149C61.6304 10.8587 60.5121 10.6527 59.2613 10.8587C59.1141 11.8299 58.6432 12.6393 58.8198 13.7577ZM86.8966 15.3322C86.0578 15.965 85.4398 16.4064 84.8364 16.8773C84.5863 17.0833 84.2331 17.2746 84.4538 17.8485C85.5869 18.0398 86.8083 18.2311 87.8236 18.4077C88.3092 17.7602 88.6624 17.2746 89.0156 16.789C89.1922 16.5389 89.354 16.2593 89.5748 15.9062C88.6183 15.3911 87.6912 15.4941 86.8966 15.3322ZM119.609 23.4257C121.124 23.6758 122.375 24.1026 123.67 23.9996C124.053 23.2932 124.406 22.6604 124.803 21.9394C123.744 21.2919 122.522 21.4832 121.478 21.1889C120.874 21.91 120.359 22.5427 119.609 23.4257ZM67.8991 12.1979C66.8102 11.7564 65.8684 11.5946 64.9267 11.6681C64.2203 12.5216 63.3227 13.1396 63.0284 14.3022C63.9113 14.7583 64.8236 14.6406 65.6035 14.8025C66.3687 13.949 67.0604 13.1691 67.8991 12.1979ZM104.275 20.9535C104.849 20.1 105.32 19.379 105.85 18.5696C104.54 18.3342 103.422 17.8927 102.348 18.0693C102.024 18.6726 101.774 19.1582 101.524 19.6291C101.376 19.894 101.2 20.1441 100.994 20.4826C101.98 20.6592 102.804 20.8211 103.628 20.9535C103.819 20.9829 104.025 20.9535 104.275 20.9535ZM75.8896 13.3604C75.198 14.3463 74.006 14.7289 73.6234 15.8178C74.0207 16.3917 74.5652 16.274 75.0213 16.3476C75.5658 16.4359 76.1103 16.48 76.5665 16.5389C77.3022 15.6413 77.9497 14.8466 78.6855 13.9343C77.7143 13.743 76.9049 13.5811 75.8896 13.3604ZM94.2248 16.4947C93.283 16.3623 92.3854 16.2446 91.6644 16.1416C90.9727 17.0245 90.3988 17.7602 89.6778 18.6726C90.9139 18.8786 91.9145 19.0552 92.9593 19.2317C93.4007 18.4518 93.8128 17.7161 94.2101 16.9951C94.2395 16.9362 94.2248 16.8626 94.2248 16.4947ZM127.025 22.1602C126.466 22.9842 125.598 23.3668 125.245 24.3968C126.569 24.441 127.658 25.059 128.703 24.7794C128.982 23.9259 129.188 23.2638 129.438 22.4986C128.585 22.3809 127.893 22.2779 127.025 22.1602Z" fill="white"/>
<path fill-rule="evenodd" clip-rule="evenodd" d="M29.036 20.6444C30.1985 20.7327 31.1845 20.7327 32.141 20.8798C43.8691 22.7192 55.5972 24.5881 67.3252 26.4422C78.0085 28.1345 88.6918 29.8268 99.3752 31.519C104.952 32.4019 110.544 33.2701 116.136 34.153C116.415 34.1972 116.695 34.2119 116.975 34.2855C117.74 34.4768 118.034 34.8741 117.902 35.6834C117.696 37.0078 117.46 38.3322 117.225 39.6565C114.032 57.0353 110.838 74.4141 107.66 91.8075C106.63 97.4435 105.585 103.065 104.599 108.715C104.187 111.085 103.716 111.085 101.656 110.776C96.0642 109.922 90.4577 109.216 84.8512 108.436C79.3182 107.671 73.7852 106.876 68.267 106.096C63.7936 105.463 59.3054 104.845 54.8172 104.227C50.2702 103.594 45.7085 102.962 41.1615 102.329C36.6144 101.696 32.0674 101.049 27.5057 100.416C24.077 99.9452 20.6483 99.4742 17.205 99.0033C16.6458 98.9298 16.0866 98.8415 15.5274 98.709C14.7622 98.5324 14.4826 98.1498 14.5415 97.3405C14.5709 96.9138 14.6739 96.5018 14.7475 96.0897C16.7488 85.3917 18.7648 74.6937 20.766 63.9957C22.7526 53.3713 24.7392 42.7468 26.7258 32.1223C27.3291 28.8555 27.9324 25.5888 28.5504 22.322C28.6535 21.8364 28.83 21.3802 29.036 20.6444ZM35.7609 99.9892C36.5997 99.327 37.2619 98.7973 37.9388 98.2823C45.6643 92.3226 53.3899 86.3629 61.1154 80.4032C78.4794 67.0123 95.8287 53.6214 113.193 40.2452C113.899 39.7007 114.709 39.2887 115.621 38.7295C116.106 37.2727 116.106 37.2727 115.886 35.8453C114.826 35.5069 113.723 35.3597 112.854 35.3744C112.266 36.066 111.839 36.6105 111.368 37.0961C111.074 37.4051 110.706 37.6259 110.367 37.876C91.1199 52.4 71.8722 66.9387 52.6246 81.4627C45.5172 86.8338 38.395 92.2049 31.3022 97.576C30.7724 97.9733 30.0661 98.2529 29.7718 99.1064C31.8172 99.4007 33.7744 99.6949 35.7609 99.9892ZM22.2523 97.885C23.0469 98.3853 23.9593 98.1498 24.7245 98.4147C26.402 98.9886 27.7411 98.4294 28.9772 97.311C29.2421 97.0756 29.5363 96.8843 29.8159 96.6636C45.6202 84.7295 61.4244 72.7954 77.2286 60.8613C87.8972 52.8121 98.5658 44.748 109.234 36.6988C109.838 36.2426 110.412 35.7423 111.089 35.1979C109.823 34.5504 108.572 34.6828 107.424 34.3738C106.659 34.1678 106.041 34.3444 105.467 34.83C105.144 35.1096 104.79 35.3449 104.452 35.5951C85.8076 49.6335 67.1634 63.6719 48.5191 77.725C40.2638 83.9348 32.0233 90.1448 23.7827 96.3693C23.2677 96.8108 22.5908 97.105 22.2523 97.885ZM43.354 101.005C47.5332 97.8114 51.4475 94.8094 55.3764 91.7928C59.3054 88.7909 63.2344 85.7742 67.1634 82.7723C71.0335 79.8146 74.9036 76.8421 78.7885 73.8843C82.7175 70.8824 86.6464 67.8658 90.5754 64.8638C94.5044 61.8619 98.4187 58.8306 102.362 55.8434C106.291 52.8709 110.132 49.766 114.252 46.8818C114.532 45.0277 115.135 43.1441 115.165 41.0251C114.267 41.2752 113.723 41.8344 113.134 42.3053C92.871 57.9329 72.608 73.5606 52.3304 89.1883C48.0776 92.4698 43.8102 95.7513 39.5722 99.0475C39.1602 99.3713 38.5274 99.5478 38.5863 100.372C40.205 100.578 41.7942 100.784 43.354 101.005ZM16.2632 97.1786C17.6906 97.4877 18.7648 97.6496 19.9567 97.0021C20.7661 96.5606 21.546 96.1044 22.267 95.5599C44.9727 78.4755 67.6637 61.3763 90.3694 44.2772C94.4897 41.1722 98.6099 38.0673 102.73 34.9476C103.083 34.6828 103.672 34.5209 103.495 33.7852C101.994 33.5497 100.479 33.3143 98.9778 33.0788C98.5216 34.4621 98.5217 34.4621 97.5652 35.1831C97.109 35.5216 96.6675 35.86 96.2114 36.1985C70.7098 55.0929 45.1935 73.9726 19.6919 92.8524C18.6765 93.6028 17.6758 94.3827 16.5869 95.2215C16.4692 95.766 16.3809 96.3693 16.2632 97.1786ZM91.4877 31.8869C91.1787 33.1083 90.2811 33.5939 89.5012 34.1972C76.0661 44.4391 62.6311 54.6808 49.196 64.9374C39.2485 72.5305 29.3157 80.153 19.324 87.6725C17.6317 88.9528 17.3374 90.5126 17.205 92.6463C18.0585 92.043 18.6912 91.631 19.3092 91.1748C38.91 76.6655 58.5108 62.1416 78.1115 47.6323C84.1889 43.1294 90.2664 38.6265 96.3438 34.1236C96.7558 33.8146 97.315 33.6233 97.4327 32.8434C95.4756 32.5196 93.6067 32.2254 91.4877 31.8869ZM50.2555 102.02C51.1826 101.372 52.1243 100.754 53.022 100.078C71.9311 85.9067 90.8256 71.7359 109.735 57.5798C110.632 56.9029 111.589 56.2996 112.575 55.6227C113.414 52.5766 113.649 50.9138 113.428 49.6041C111.721 50.6047 51.9919 96.1044 46.6356 100.49C46.4295 100.666 46.2676 100.887 45.9586 101.225C47.4154 101.814 48.8723 101.637 50.2555 102.02ZM83.9682 30.6802C83.6739 31.9016 82.8057 32.4166 82.0405 33.0199C62.1749 48.6181 42.3239 64.2017 22.4583 79.7999C21.2369 80.7564 20.0744 81.7717 18.9414 82.6988C18.7795 83.3757 18.6324 83.9202 18.5441 84.4794C18.4558 84.9797 18.2203 85.5242 18.6324 86.1569C19.3828 85.6124 20.0744 85.1268 20.7366 84.6265C34.9075 73.8254 49.0783 63.0098 63.2491 52.2087C71.5779 45.8664 79.9068 39.5241 88.2209 33.1671C88.7507 32.7698 89.4129 32.4755 89.7219 31.6367C87.8089 31.313 85.9989 31.0187 83.9682 30.6802ZM112.251 57.7563C111.206 58.4921 110.573 58.9189 109.955 59.3898C96.0495 69.8082 82.1435 80.2414 68.2376 90.6745C63.5434 94.1915 58.8492 97.7084 54.1698 101.24C53.8166 101.505 53.2133 101.667 53.4193 102.403C54.2286 102.535 55.0527 102.638 55.8768 102.815C57.3336 103.124 58.6727 103.065 59.7469 101.873C59.9382 101.667 60.203 101.534 60.4238 101.372C77.1109 89.1293 93.8128 76.8863 110.485 64.6284C110.794 64.393 111.103 64.0103 111.177 63.6424C111.574 61.8472 111.854 60.0372 112.251 57.7563ZM19.6919 79.535C20.5748 79.5645 21.0015 78.9022 21.5313 78.4902C34.4954 68.3219 47.4596 58.1537 60.4238 47.9854C67.3252 42.5702 74.212 37.1549 81.1135 31.7397C81.5255 31.416 82.1435 31.21 82.1582 30.4889C81.9522 30.4301 81.7609 30.3418 81.5549 30.3124C77.9349 29.6943 79.0092 29.5178 76.4046 31.5338C63.7494 41.4077 51.109 51.2963 38.4539 61.185C33.1122 65.3642 27.7558 69.5433 22.3995 73.7077C20.5012 75.2087 19.5006 77.0776 19.6919 79.535ZM110.456 66.8651C109.543 67.0858 108.984 67.6598 108.381 68.1012C99.7136 74.4582 91.061 80.8152 82.4084 87.1869C75.6247 92.1754 68.8556 97.1492 62.0866 102.138C61.6746 102.447 61.0565 102.623 61.0124 103.462C62.1307 103.624 63.2491 103.698 64.338 103.962C65.4123 104.227 66.2657 103.992 67.0898 103.33C67.5313 102.976 68.0021 102.653 68.4583 102.329C81.2753 93.0289 94.0924 83.7289 106.909 74.4435C107.689 73.8696 108.557 73.4134 109.529 72.7954C109.794 70.9707 110.397 69.0282 110.456 66.8651ZM21.958 67.1153C23.8121 66.0264 62.2926 35.5215 69.3854 29.5324C69.6355 29.3117 69.8563 29.0469 70.2094 28.6643C68.3406 28.1492 66.6483 27.8402 65.0885 27.7666C64.647 28.164 64.3527 28.4729 64.029 28.7231C63.1166 29.3853 62.1454 29.9592 61.2772 30.6802C49.4314 40.4071 37.6004 50.1633 25.7545 59.8901C22.37 62.6713 22.6938 62.2887 21.8991 66.5414C21.8844 66.6738 21.9285 66.821 21.958 67.1153ZM23.2971 59.3015C23.4295 59.3751 23.5767 59.4633 23.7091 59.5369C36.4673 49.0302 49.2254 38.5235 61.9836 28.0021C62.1307 27.8843 62.1896 27.6636 62.3515 27.3988C60.6003 26.869 58.8639 26.663 57.2305 26.5305C56.4948 27.178 55.862 27.7372 55.1998 28.2816C45.8998 36.0219 36.5997 43.7474 27.3144 51.4877C26.505 52.1646 25.7398 52.915 24.901 53.5625C24.5479 53.8421 24.2536 54.0923 24.1653 54.5338C23.871 56.123 23.5914 57.7123 23.2971 59.3015ZM71.8134 28.7525C71.2395 30.0622 71.2395 30.0622 70.3272 30.8126C70.0034 31.0775 69.665 31.3424 69.3265 31.6073C54.0667 43.7769 38.807 55.9464 23.5473 68.1307C22.9439 68.6163 22.3259 69.1019 21.7814 69.661C20.9721 70.4557 20.8691 71.0443 21.1339 72.457C22.7968 71.4858 69.974 34.8152 75.3745 30.2976C75.5805 30.1211 75.7277 29.8856 75.9925 29.5913C74.5651 29.0174 73.1525 29.0763 71.8134 28.7525ZM72.6374 105.11C73.6234 104.345 74.3297 103.756 75.0655 103.227C84.8806 96.178 94.6957 89.1441 104.511 82.1102C105.085 81.6982 105.644 81.2567 106.247 80.8888C106.895 80.4915 107.586 80.1678 108.322 79.7852C108.322 78.3136 109.073 76.9451 108.793 75.3559C107.954 75.4294 107.469 75.9886 106.924 76.3859C101.023 80.6387 95.1371 84.9208 89.251 89.1883C82.8499 93.8383 76.434 98.4736 70.0476 103.124C69.562 103.477 68.8998 103.683 68.7526 104.536C70.1212 104.742 71.4308 104.934 72.6374 105.11ZM24.9158 51.0609C25.2101 50.9579 25.4455 50.9432 25.5927 50.8108C35.2753 42.7615 44.9433 34.6975 54.6112 26.6188C54.6995 26.5452 54.6848 26.3687 54.7584 26.0744C53.1691 25.8095 51.5799 25.5593 50.0937 25.3091C49.7405 25.574 49.5197 25.7359 49.299 25.9272C41.9708 32.0488 34.6426 38.1703 27.2996 44.2919C26.917 44.6156 26.5492 44.9394 26.2107 45.3073C26.0194 45.5133 25.8134 45.7634 25.7692 46.0136C25.4749 47.6617 25.0188 49.2951 24.9158 51.0609ZM107.866 81.7717C107.012 82.3309 106.615 82.5958 106.218 82.8607C103.407 84.8767 100.596 86.8927 97.7859 88.8939C90.7225 93.956 83.6592 99.0033 76.6106 104.065C76.125 104.419 75.4628 104.625 75.2862 105.463C76.6547 105.655 77.9791 105.831 79.3035 106.008C79.8921 106.096 80.4219 105.993 80.8927 105.596C81.2165 105.331 81.5843 105.095 81.9228 104.845C89.7955 99.1063 97.6682 93.3674 105.541 87.6284C106.056 87.2606 106.527 86.8485 107.012 86.4659C107.277 85.0532 107.527 83.6847 107.866 81.7717ZM26.505 42.7173C27.1083 42.3053 27.5057 42.0552 27.8736 41.7462C29.4039 40.4807 30.9049 39.2151 32.4353 37.9496C37.1 34.0501 41.7648 30.1652 46.4148 26.2509C46.8121 25.9125 47.4449 25.7065 47.3566 24.8972C45.9733 24.6911 44.5901 24.4704 43.2657 24.2644C42.2357 25.1032 41.3086 25.8683 40.3816 26.6188C36.6144 29.709 32.8473 32.7992 29.0655 35.8747C28.4033 36.4192 27.6822 36.9342 27.4027 37.7583C26.8876 39.274 26.6374 40.8485 26.505 42.7173ZM82.7174 106.258C83.7769 106.847 84.601 106.655 85.3073 106.891C86.5287 107.273 87.441 106.832 88.4122 106.126C93.8275 102.138 99.2574 98.2087 104.702 94.2503C105.041 94.0002 105.364 93.7353 105.791 93.4115C105.865 92.146 106.497 90.8952 106.277 89.4679C106.026 89.5267 105.791 89.4973 105.644 89.615C98.0802 95.0743 90.546 100.548 82.7174 106.258ZM104.996 96.178C104.687 96.3252 104.437 96.4135 104.231 96.5606C99.4634 100.078 94.6957 103.609 89.9279 107.141C89.8985 107.156 89.9426 107.273 89.9868 107.465C90.6784 107.582 91.4142 107.73 92.1499 107.833C92.9887 107.95 93.8275 108.024 94.5191 108.112C97.9183 105.655 101.17 103.3 104.393 100.99C104.643 99.5331 104.879 98.2234 105.085 96.8991C105.114 96.7225 105.041 96.5165 104.996 96.178ZM37.4679 23.3814C34.981 25.3091 32.5383 27.1927 30.0955 29.091C28.521 30.3123 27.9618 31.9752 28.3003 34.2413C29.9484 33.226 39.4986 25.3974 40.7053 24.0436C39.6899 23.3814 38.5274 23.6022 37.4679 23.3814ZM103.701 103.889C102.48 104.301 99.5959 106.214 97.5505 107.95C97.4327 108.053 97.418 108.259 97.2856 108.568C99.1985 108.789 100.95 109.26 102.804 109.172C103.231 107.362 103.657 105.684 103.701 103.889ZM34.7309 22.9547C33.8921 22.5868 32.8768 22.7192 31.9644 22.4396C31.6995 22.3661 31.4052 22.3661 31.1256 22.3955C30.4929 22.4397 30.1103 22.7634 29.9631 23.4109C29.7424 24.441 29.5658 25.4857 29.4039 26.5158C29.3745 26.7512 29.4481 26.9867 29.4922 27.5164C30.9785 26.3833 32.2587 25.4269 33.5095 24.441C33.9362 24.1025 34.3336 23.6905 34.7309 23.3079C34.775 23.2637 34.7456 23.1607 34.7309 22.9547Z" fill="white"/>
</svg>
