<svg width="250" height="259" viewBox="0 0 250 259" fill="none" xmlns="http://www.w3.org/2000/svg">
<path d="M122.437 127.134H115.244C112.373 127.134 110.04 129.471 110.04 132.342V158.13C110.04 161.15 112.228 163.338 115.244 163.338H122.437C125.307 163.338 127.64 161 127.64 158.13V151.321H122.07V157.072C122.07 157.7 121.559 158.215 120.927 158.215H116.925C116.297 158.215 115.782 157.705 115.782 157.072V133.291C115.782 132.658 116.293 132.148 116.925 132.148H120.931C121.559 132.148 122.075 132.663 122.075 133.291V139.431H127.645V132.347C127.64 129.471 125.307 127.134 122.437 127.134Z" fill="white"/>
<path d="M146.149 134.34H129.828V139.431H135.204V163.347H140.774V139.431H146.149V134.34Z" fill="white"/>
<path d="M56.2001 150.638H55.6575L55.653 134.34H50.0877V163.347H54.9839L61.0917 147.804H61.6343V163.347H67.2041V134.34H62.2401L56.2001 150.638Z" fill="white"/>
<path d="M32.1665 127.129L25.367 163.342H31.2623L35.9189 133.025H36.4614L41.326 163.342H47.2349L40.4896 127.129H32.1665Z" fill="white"/>
<path d="M151.755 134.34L145.688 163.351H151.289L151.981 159.64H159.432L160.114 163.351H165.729L159.694 134.34H151.755ZM152.876 154.825L155.462 139.431H155.987L158.541 154.825H152.876Z" fill="white"/>
<path d="M88.5113 134.34L82.4442 163.351H88.0456L88.7373 159.64H96.1879L96.8705 163.351H102.486L96.4501 134.34H88.5113ZM89.6325 154.825L92.2185 139.431H92.7429L95.2972 154.825H89.6325Z" fill="white"/>
<path d="M83.9813 134.34H71.3678V163.347H76.9376V139.431H83.9813V134.34Z" fill="white"/>
<path d="M199.564 134.34H193.411C190.54 134.34 188.208 136.678 188.208 139.548V158.143C188.208 161.014 190.54 163.351 193.411 163.351H199.564C202.435 163.351 204.768 161.014 204.768 158.143V139.548C204.772 136.673 202.435 134.34 199.564 134.34ZM199.203 157.085C199.203 157.714 198.692 158.229 198.059 158.229H194.917C194.288 158.229 193.773 157.718 193.773 157.085V140.602C193.773 139.969 194.284 139.458 194.917 139.458H198.059C198.687 139.458 199.203 139.982 199.203 140.62V157.085Z" fill="white"/>
<path d="M0 83.3077V163.351H15.3984V97.9149H234.602V163.351H250V83.3077H0Z" fill="white"/>
<path d="M226.459 134.34H220.456L215.424 146.651H214.456V134.34H208.932V163.351H214.456V151.466H215.641L220.754 163.351H226.767L220.315 148.798L226.459 134.34Z" fill="white"/>
<path d="M180.825 149.174V148.631H180.82C182.972 148.183 184.595 146.267 184.595 143.974V139.53C184.595 136.669 182.262 134.34 179.392 134.34H168.586V163.347H179.649C182.52 163.347 184.853 161.009 184.853 158.139V154.038C184.853 151.628 183.117 149.612 180.825 149.174ZM174.152 139.44H177.882C178.51 139.44 179.025 139.955 179.025 140.584V145.512C179.025 146.14 178.514 146.655 177.882 146.655H174.152V139.44ZM179.283 157.085C179.283 157.714 178.772 158.229 178.139 158.229H174.147V151.475H178.139C178.768 151.475 179.283 151.99 179.283 152.619V157.085Z" fill="white"/>
<path d="M115.312 194.22C114.964 194.243 114.62 194.279 114.272 194.315C113.856 194.361 113.477 194.397 113.029 194.347C111.162 194.125 109.295 194.171 107.45 194.419C107.165 194.46 106.84 194.523 106.591 194.41C106.094 194.184 105.633 194.248 105.126 194.401C104.602 194.555 104.005 194.632 103.386 194.609C102.83 194.587 102.296 194.587 101.785 194.7C101.478 194.767 101.202 194.686 100.908 194.663C99.5837 194.569 98.2591 194.465 97.1017 194.921C96.9073 194.998 96.5999 194.994 96.4281 194.908C95.8448 194.627 95.1938 194.591 94.4343 194.727C94.2806 194.754 94.0681 194.745 93.9008 194.722C92.1558 194.492 90.4242 194.596 88.6972 194.767C88.2632 194.813 87.8518 194.799 87.4494 194.722C86.7035 194.578 86.0299 194.623 85.424 194.876C85.2251 194.957 84.9629 194.98 84.8092 194.867C84.4068 194.564 83.8462 194.555 83.2359 194.682C82.5261 194.831 81.8299 194.84 81.1201 194.7C80.8308 194.641 80.5143 194.614 80.234 194.673C79.5197 194.822 78.8506 194.826 78.1363 194.663C77.8831 194.605 77.535 194.605 77.2411 194.623C76.2375 194.686 75.2428 194.871 74.2392 194.623C74.194 194.614 74.1126 194.623 74.0629 194.632C73.2401 194.849 72.4308 194.718 71.599 194.636C70.8214 194.56 70.0211 194.559 69.2571 194.686C68.2128 194.858 67.0916 194.871 66.0427 194.862C65.1475 194.853 64.2298 194.799 63.3346 194.844C62.765 194.876 62.2722 194.871 61.7659 194.749C61.3093 194.641 60.7532 194.618 60.3644 194.754C59.415 195.088 58.2079 194.731 57.263 195.039C57.037 195.111 56.7793 194.998 56.6527 194.917C56.1463 194.573 55.4637 194.582 54.7132 194.686C54.2475 194.749 53.7638 194.79 53.3162 194.876C52.7646 194.98 52.2583 194.966 51.7339 194.849C51.1235 194.713 50.4861 194.632 49.7944 194.682C49.1343 194.731 48.4833 194.763 47.8277 194.627C47.4661 194.555 47.1225 194.641 46.8331 194.758C46.6433 194.84 46.4172 194.89 46.2318 194.772C45.834 194.505 45.2689 194.587 44.7399 194.614C44.0754 194.65 43.3836 194.944 42.7733 194.541C42.701 194.496 42.3257 194.537 42.0952 194.55C40.7163 194.627 39.3329 194.777 37.9992 194.446C37.8003 194.397 37.52 194.428 37.2804 194.406C35.9105 194.284 34.5497 194.144 33.1392 194.243C32.9086 194.261 32.6373 194.248 32.4248 194.202C31.2087 193.967 30.0378 194.22 28.8578 194.279C28.1751 194.311 27.6281 194.514 27.4699 194.858C27.3026 195.229 26.9364 195.513 26.1271 195.681C25.7203 195.767 25.6751 196.029 25.9915 196.187C26.4843 196.431 27.0359 196.653 27.5648 196.879C28.4735 197.272 29.5586 197.417 30.7657 197.286C31.9004 197.164 33.0623 197.186 34.1925 197.114C35.8743 197.005 37.4521 197.105 39.0435 197.317C40.8293 197.557 42.6513 197.57 44.4551 197.372C45.2011 197.29 45.8883 197.299 46.6026 197.39C46.9462 197.435 47.335 197.566 47.6424 197.457C48.2527 197.24 48.7365 197.349 49.2699 197.503C49.713 197.629 50.1922 197.625 50.6669 197.521C51.006 197.448 51.3631 197.408 51.7203 197.485C52.5069 197.647 53.271 197.534 54.0441 197.466C54.6363 197.417 55.2105 197.326 55.8389 197.412C57.4981 197.647 59.2025 197.62 60.9069 197.566C61.7568 197.539 62.6068 197.494 63.4205 197.661C63.7867 197.738 64.1575 197.702 64.4468 197.593C65.0843 197.349 65.7172 197.299 66.4225 197.539C66.6123 197.602 66.8746 197.616 67.0961 197.665C67.4668 197.742 67.8466 197.742 68.0997 197.602C68.7327 197.259 69.4651 197.249 70.202 197.48C70.8304 197.679 71.3774 197.729 72.0239 197.507C72.1867 197.453 72.5031 197.444 72.7111 197.476C73.3079 197.557 73.7057 197.435 74.2075 197.304C74.7998 197.15 75.2067 197.575 75.8441 197.552C76.0837 197.543 76.3279 197.534 76.563 197.507C77.0377 197.448 77.5079 197.417 78.0006 197.462C78.3623 197.494 78.7466 197.489 79.0631 197.399C79.8452 197.173 80.555 197.227 81.2467 197.476C81.9339 197.724 82.7476 197.756 83.4981 197.62C84.8725 197.376 86.2378 197.426 87.6257 197.543C88.7424 197.638 89.8094 197.575 90.7678 197.277C91.2606 197.123 91.7624 197.087 92.3095 197.218C94.2083 197.67 96.1613 197.656 98.146 197.353C98.6117 197.281 99.0547 197.335 99.5294 197.358C100.456 197.403 101.437 197.494 102.355 197.227C103.106 197.01 103.91 196.992 104.733 197.254C105.497 197.498 106.343 197.457 107.125 197.209C107.423 197.114 107.726 197.019 108.038 196.933C108.377 196.843 108.721 196.806 109.005 196.978C109.561 197.317 110.122 197.236 110.687 196.987C110.927 196.883 111.198 196.843 111.505 196.924C112.699 197.245 113.965 197.164 115.231 197.06C115.258 197.055 115.285 197.055 115.317 197.055V194.22H115.312Z" fill="white"/>
<path d="M222.346 195.319C221.876 195.179 221.681 195.012 221.654 194.777C221.636 194.609 221.645 194.442 221.595 194.279C221.573 194.202 221.428 194.125 221.22 194.13C220.506 194.153 219.737 194.116 219.091 194.229C218.399 194.347 217.929 194.293 217.436 194.098C216.871 193.877 216.256 193.832 215.578 193.976C215.153 194.067 214.737 194.031 214.357 193.931C213.788 193.777 213.259 193.664 212.838 194.026C212.752 194.103 212.522 194.089 212.35 194.053C211.866 193.94 211.382 193.768 210.817 193.908C210.085 194.094 209.927 193.71 209.447 193.655C209.135 193.619 208.846 193.655 208.566 193.714C208.091 193.809 207.63 193.818 207.169 193.696C206.536 193.529 205.917 193.511 205.297 193.719C205.089 193.786 204.831 193.755 204.596 193.719C204.194 193.655 203.774 193.615 203.389 193.533C202.657 193.38 201.979 193.389 201.332 193.615C200.844 193.786 200.306 193.777 199.773 193.687C199.103 193.569 198.457 193.348 197.829 193.728C197.711 193.795 197.508 193.728 197.34 193.701C197.123 193.664 196.834 193.597 196.662 193.628C196.065 193.755 195.514 193.908 194.845 193.705C194.772 193.682 194.528 193.764 194.388 193.809C194.148 193.89 194.017 194.035 193.47 194.058C193.452 194.044 193.389 193.963 193.28 193.904C192.512 193.474 192.304 193.42 191.309 193.633C190.306 193.845 189.144 193.737 188.181 193.994C188.136 194.008 188.059 193.999 188 193.99C187.358 193.908 186.689 193.854 186.079 193.741C185.36 193.61 184.627 193.868 183.936 193.687C183.285 193.52 182.484 193.637 181.829 193.465C181.698 193.429 181.436 193.434 181.3 193.474C180.468 193.701 179.672 193.578 178.836 193.47C178.058 193.366 177.263 193.37 176.571 193.61C176.259 193.719 175.952 193.705 175.567 193.696C174.686 193.673 173.741 193.511 172.909 193.746C171.969 194.008 171.096 193.985 170.192 193.746C170.034 193.705 169.871 193.66 169.695 193.642C169.527 193.628 169.242 193.628 169.188 193.669C168.727 194.026 168.343 193.795 167.877 193.664C167.041 193.429 166.051 193.511 165.373 193.886C165.16 194.003 165.07 194.094 164.708 194.062C164.292 194.026 163.867 194.012 163.451 193.976C162.999 193.936 162.665 193.99 162.312 194.144C161.34 194.573 161.132 194.532 160.707 193.886C160.576 193.691 160.146 193.597 159.911 193.737C159.608 193.918 159.323 193.963 158.84 193.936C158.252 193.899 157.538 193.841 157.113 194.067C156.647 194.311 156.213 194.284 155.662 194.207C154.369 194.026 153.062 193.913 151.719 194.116C151.208 194.193 150.774 194.089 150.331 193.994C149.97 193.913 149.617 193.936 149.346 194.08C149.147 194.189 148.939 194.329 148.613 194.27C147.673 194.103 146.805 194.297 145.969 194.401C145.114 194.505 144.427 194.501 143.789 194.234C143.437 194.085 143.039 194.035 142.619 194.116C141.741 194.288 140.783 194.356 139.956 194.202C138.979 194.017 138.012 194.288 137.094 194.103C137.04 194.094 136.976 194.085 136.922 194.071C136.447 193.958 136.018 193.994 135.539 194.098C135.001 194.216 134.422 194.288 133.875 194.415C133.717 194.451 133.572 194.456 133.427 194.446V197.032C134.657 196.711 135.977 196.806 137.27 196.888C137.768 196.919 138.206 196.965 138.672 196.852C139.061 196.757 139.499 196.721 139.901 196.811C140.602 196.969 141.24 197.069 141.864 196.734C142.085 196.617 142.433 196.721 142.714 196.761C143.523 196.888 144.318 197.001 145.177 196.811C145.584 196.721 145.991 196.825 146.371 196.928C147.415 197.218 148.505 197.218 149.418 196.856C150.137 196.571 150.829 196.576 151.606 196.711C152.764 196.915 153.98 196.906 155.187 196.956C156.724 197.019 158.085 196.567 159.626 196.689C159.816 196.702 160.069 196.608 160.264 196.54C160.748 196.377 161.136 196.413 161.539 196.607C161.914 196.788 162.375 196.748 162.891 196.711C164.084 196.635 165.3 196.553 166.498 196.58C167.488 196.603 168.429 196.594 169.374 196.467C170.323 196.336 171.254 196.314 172.231 196.472C173.203 196.63 175.658 196.63 176.539 196.467C177.733 196.25 178.886 196.237 180.097 196.418C181.228 196.585 182.38 196.589 183.488 196.368C183.945 196.277 184.297 196.309 184.654 196.454C184.966 196.58 185.315 196.594 185.645 196.476C186.006 196.35 186.359 196.323 186.825 196.377C187.977 196.513 188.877 196.476 190.297 196.309C190.468 196.291 190.658 196.282 190.83 196.296C191.775 196.372 192.761 196.305 193.678 196.499C194.442 196.657 195.224 196.644 195.921 196.4C196.3 196.268 196.707 196.273 197.137 196.318C197.982 196.404 198.828 196.377 199.678 196.336C200.83 196.282 201.979 196.259 203.109 196.436C203.566 196.508 204.072 196.549 204.542 196.454C205.198 196.327 205.826 196.314 206.473 196.463C206.708 196.517 206.993 196.485 207.16 196.413C207.969 196.047 208.805 196.183 209.66 196.359C209.931 196.413 210.243 196.499 210.51 196.485C211.617 196.418 212.653 196.531 213.715 196.648C214.226 196.702 214.787 196.657 215.302 196.77C215.641 196.847 216.016 196.788 216.364 196.734C216.591 196.698 216.907 196.612 217.043 196.648C217.938 196.91 219.1 196.598 219.972 196.969C220.356 197.132 221.441 196.969 221.523 196.757C221.636 196.449 222.002 196.291 222.504 196.115C223.187 195.88 223.105 195.545 222.346 195.319Z" fill="white"/>
<path d="M124.404 190.735C124.426 190.708 124.453 190.681 124.462 190.649C124.575 190.242 124.693 189.835 124.792 189.424C124.829 189.275 124.892 189.134 124.942 188.99C125.073 188.614 125.186 188.235 125.308 187.855C125.448 187.416 125.593 186.978 125.737 186.544C125.773 186.435 125.823 186.327 125.873 186.227C125.886 186.2 125.936 186.173 125.963 186.178C125.995 186.182 126.036 186.218 126.04 186.25C126.076 186.39 126.054 186.53 126.008 186.666C125.841 187.177 125.665 187.688 125.507 188.203C125.317 188.827 125.077 189.437 124.923 190.07C124.838 190.418 124.734 190.762 124.625 191.101C124.571 191.259 124.575 191.399 124.657 191.544C124.806 191.811 124.955 192.082 125.104 192.349C125.131 192.394 125.163 192.435 125.181 192.48C125.353 192.855 125.367 192.783 125.706 192.656C125.945 192.566 126.171 192.448 126.42 192.38C126.637 192.322 126.836 192.195 127.044 192.1C127.139 192.055 127.161 191.964 127.184 191.883C127.301 191.517 127.419 191.151 127.528 190.784C127.726 190.111 127.925 189.433 128.165 188.773C128.21 188.651 128.255 188.533 128.31 188.416C128.332 188.37 128.377 188.33 128.432 188.339C128.509 188.348 128.527 188.416 128.536 188.479C128.549 188.596 128.527 188.709 128.486 188.818C128.251 189.428 128.052 190.052 127.885 190.685C127.803 190.992 127.686 191.291 127.582 191.607C127.803 191.526 127.826 191.512 127.989 191.35C128.54 190.794 129.092 190.237 129.643 189.686C129.734 189.595 129.829 189.51 129.924 189.424C129.978 189.379 130.046 189.388 130.1 189.428C130.154 189.469 130.181 189.532 130.15 189.6C130.123 189.654 130.091 189.713 130.046 189.758C129.544 190.256 129.042 190.748 128.54 191.246C128.269 191.517 127.975 191.766 127.74 192.064C127.763 192.15 127.817 192.123 127.862 192.105C128.179 191.996 128.5 191.91 128.802 191.77C129.223 191.576 129.67 191.458 130.095 191.277C130.435 191.133 130.774 190.979 131.113 190.83C131.135 190.821 131.158 190.803 131.18 190.794C131.298 190.753 131.465 190.785 131.497 190.852C131.533 190.929 131.447 191.069 131.321 191.119C130.905 191.282 130.484 191.44 130.068 191.603C129.589 191.788 129.11 191.974 128.631 192.154C128.382 192.249 128.129 192.335 127.876 192.43C127.668 192.507 127.505 192.616 127.401 192.842C127.279 193.108 127.13 193.366 126.899 193.56C126.881 193.578 126.858 193.597 126.849 193.619C126.718 193.841 126.574 194.049 126.406 194.243C126.334 194.329 126.361 194.415 126.479 194.446C127.012 194.591 127.519 194.808 128.061 194.921C128.124 194.935 128.192 194.953 128.251 194.944C128.527 194.899 128.812 194.867 129.078 194.795C129.512 194.677 129.933 194.523 130.362 194.388C130.398 194.374 130.435 194.356 130.471 194.347C131.067 194.248 131.624 194.012 132.193 193.818C132.288 193.786 132.388 193.759 132.487 193.728C132.55 193.705 132.614 193.71 132.677 193.737C132.727 193.759 132.767 193.795 132.763 193.85C132.758 193.886 132.74 193.927 132.718 193.949C132.681 193.981 132.632 194.003 132.582 194.017C132.211 194.121 131.841 194.225 131.488 194.379C131.37 194.428 131.244 194.446 131.122 194.483C130.67 194.618 130.213 194.745 129.761 194.89C129.657 194.921 129.53 194.935 129.449 195.034C129.476 195.116 129.553 195.088 129.607 195.088C130.633 195.097 131.66 195.102 132.686 195.111C132.849 195.111 133.021 195.052 133.179 195.147C133.21 195.165 133.265 195.201 133.26 195.215C133.247 195.26 133.219 195.31 133.183 195.342C133.088 195.428 132.966 195.409 132.853 195.405C131.881 195.387 130.905 195.432 129.928 195.382C129.937 195.414 129.937 195.446 129.951 195.45C130.679 195.699 131.402 195.943 132.13 196.187C132.216 196.214 132.297 196.255 132.342 196.341C132.356 196.372 132.36 196.418 132.347 196.449C132.333 196.476 132.284 196.513 132.256 196.504C132.08 196.463 131.908 196.418 131.737 196.363C131.239 196.201 130.737 196.038 130.24 195.862C129.793 195.703 129.34 195.559 128.879 195.441C128.671 195.387 128.513 195.414 128.341 195.536C127.953 195.803 127.564 196.079 127.143 196.3C126.985 196.386 126.967 196.467 127.021 196.653C127.112 196.974 127.197 197.295 127.279 197.616C127.311 197.733 127.365 197.815 127.46 197.896C127.627 198.041 127.812 198.145 128.007 198.244C128.463 198.475 128.915 198.714 129.359 198.972C129.648 199.144 129.951 199.27 130.249 199.424C130.489 199.546 130.724 199.677 130.959 199.799C131.022 199.831 131.049 199.885 131.063 199.953C131.081 200.039 131.013 200.111 130.932 200.089C130.869 200.071 130.805 200.057 130.751 200.025C130.195 199.682 129.58 199.456 129.024 199.108C128.649 198.868 128.228 198.696 127.83 198.493C127.758 198.552 127.826 198.583 127.853 198.61C128.653 199.424 129.453 200.238 130.258 201.052C130.294 201.088 130.331 201.124 130.362 201.165C130.43 201.246 130.444 201.332 130.394 201.368C130.321 201.422 130.245 201.409 130.177 201.377C130.123 201.35 130.068 201.309 130.023 201.264C129.539 200.785 129.056 200.306 128.581 199.822C128.382 199.623 128.192 199.41 128.002 199.203C127.916 199.108 127.835 199.008 127.722 198.945C127.65 198.972 127.677 199.022 127.69 199.067C127.803 199.406 127.934 199.741 128.029 200.089C128.097 200.337 128.21 200.568 128.287 200.812C128.387 201.115 128.495 201.418 128.599 201.721C128.613 201.757 128.622 201.793 128.626 201.834C128.635 201.906 128.594 201.956 128.531 201.983C128.477 202.006 128.427 201.983 128.4 201.938C128.355 201.861 128.31 201.784 128.278 201.698C128.07 201.106 127.867 200.514 127.659 199.921C127.514 199.51 127.374 199.099 127.229 198.687C127.152 198.47 126.831 198.127 126.619 198.027C126.235 197.851 125.855 197.674 125.47 197.498C125.448 197.489 125.421 197.48 125.398 197.471C125.312 197.439 125.249 197.466 125.208 197.548C125.077 197.842 124.942 198.131 124.815 198.425C124.743 198.588 124.634 198.759 124.639 198.927C124.643 199.094 124.761 199.257 124.833 199.424C125.095 200.021 125.362 200.618 125.633 201.214C125.85 201.689 126.013 202.191 126.271 202.652C126.293 202.693 126.302 202.751 126.302 202.797C126.302 202.86 126.284 202.932 126.212 202.95C126.167 202.959 126.112 202.941 126.067 202.923C125.99 202.887 125.963 202.815 125.936 202.742C125.719 202.141 125.484 201.544 125.19 200.975C125.086 200.771 125 200.554 124.923 200.337C124.819 200.048 124.652 199.786 124.526 199.51C124.508 199.474 124.48 199.447 124.44 199.465C124.422 199.474 124.404 199.505 124.399 199.528C124.39 199.618 124.381 199.709 124.381 199.795C124.385 200.179 124.367 200.563 124.413 200.948C124.431 201.088 124.399 201.228 124.399 201.368C124.404 201.793 124.408 202.213 124.417 202.638C124.417 202.729 124.435 202.819 124.385 202.901C124.349 202.955 124.3 202.996 124.227 202.987C124.173 202.978 124.128 202.946 124.11 202.896C124.087 202.837 124.074 202.774 124.074 202.711C124.069 202.557 124.083 202.403 124.083 202.25C124.087 201.648 124.092 201.043 124.092 200.441C124.092 200.342 124.105 200.238 124.019 200.156C123.924 200.26 123.902 200.387 123.87 200.514C123.748 201.011 123.585 201.499 123.468 201.996C123.386 202.345 123.224 202.67 123.097 203.005C123.083 203.036 123.038 203.068 123.011 203.068C122.961 203.068 122.921 203.027 122.912 202.973C122.894 202.883 122.894 202.792 122.93 202.711C123.183 202.146 123.246 201.526 123.432 200.939C123.558 200.536 123.667 200.129 123.829 199.736C123.888 199.596 123.938 199.447 123.983 199.302C124.015 199.203 124.024 199.103 123.988 198.999C123.843 198.574 123.707 198.149 123.563 197.724C123.522 197.611 123.463 197.58 123.355 197.611C122.83 197.774 122.306 197.946 121.777 198.113C121.497 198.199 121.352 198.375 121.266 198.669C120.977 199.641 120.728 200.622 120.488 201.603C120.47 201.675 120.47 201.757 120.457 201.829C120.443 201.892 120.425 201.956 120.393 202.01C120.371 202.051 120.335 202.096 120.271 202.091C120.19 202.087 120.176 202.015 120.158 201.956C120.136 201.893 120.154 201.834 120.172 201.766C120.253 201.404 120.326 201.043 120.416 200.681C120.525 200.22 120.642 199.763 120.764 199.302C120.791 199.193 120.846 199.085 120.882 198.976C120.891 198.954 120.886 198.918 120.873 198.904C120.837 198.877 120.809 198.9 120.782 198.931C120.651 199.071 120.52 199.212 120.393 199.356C119.874 199.944 119.286 200.464 118.743 201.024C118.662 201.106 118.585 201.192 118.504 201.278C118.44 201.345 118.373 201.4 118.278 201.413C118.223 201.418 118.169 201.413 118.138 201.368C118.106 201.327 118.11 201.269 118.142 201.223C118.178 201.169 118.214 201.115 118.26 201.07C118.748 200.577 119.241 200.093 119.729 199.6C120.072 199.252 120.403 198.895 120.737 198.542C120.742 198.538 120.733 198.524 120.723 198.502C120.606 198.502 120.516 198.588 120.421 198.642C119.996 198.882 119.553 199.076 119.132 199.325C118.802 199.524 118.454 199.686 118.106 199.849C118.002 199.899 117.907 199.962 117.807 200.016C117.731 200.057 117.649 200.098 117.554 200.098C117.491 200.098 117.441 200.025 117.459 199.962C117.477 199.899 117.509 199.84 117.568 199.808C117.744 199.709 117.921 199.6 118.106 199.514C118.558 199.302 119.001 199.08 119.43 198.818C119.801 198.592 120.204 198.42 120.588 198.221C120.723 198.149 120.855 198.072 120.986 197.991C121.302 197.783 121.465 197.466 121.628 197.15C121.781 196.852 121.917 196.553 122.093 196.268C122.161 196.164 122.139 196.097 122.026 196.06C121.587 195.916 121.148 195.776 120.705 195.636C120.592 195.599 120.479 195.613 120.366 195.663C120.041 195.812 119.706 195.943 119.385 196.097C118.734 196.404 118.074 196.684 117.419 196.974C117.206 197.069 116.994 197.159 116.786 197.249C116.741 197.272 116.695 197.299 116.646 197.313C116.546 197.34 116.442 197.367 116.361 197.277C116.302 197.213 116.401 197.005 116.537 196.983C116.795 196.938 117.012 196.788 117.251 196.707C117.432 196.644 117.609 196.567 117.785 196.49C118.404 196.214 119.024 195.938 119.638 195.654C119.729 195.613 119.905 195.599 119.869 195.459C119.846 195.369 119.688 195.423 119.589 195.423C119.051 195.418 118.513 195.441 117.975 195.432C117.518 195.423 117.057 195.446 116.596 195.45C116.569 195.45 116.546 195.455 116.519 195.455C116.429 195.446 116.334 195.373 116.32 195.301C116.302 195.224 116.37 195.152 116.496 195.138C116.664 195.125 116.831 195.102 116.994 195.12C117.572 195.179 118.147 195.125 118.725 195.138C118.879 195.143 119.046 195.22 119.186 195.088C119.073 194.966 118.915 194.957 118.775 194.908C118.35 194.763 117.916 194.645 117.477 194.546C117.089 194.46 116.718 194.315 116.352 194.153C116.297 194.125 116.23 194.094 116.261 194.008C116.288 193.936 116.361 193.922 116.42 193.931C116.505 193.945 116.591 193.972 116.677 194.003C116.98 194.107 117.288 194.189 117.6 194.261C118.074 194.37 118.54 194.514 119.001 194.659C119.331 194.763 119.648 194.903 119.973 195.021C120.199 195.102 120.416 195.111 120.647 195.021C121.004 194.88 121.37 194.767 121.736 194.636C121.809 194.609 121.881 194.578 121.944 194.541C122.066 194.474 122.075 194.424 121.998 194.293C121.818 193.967 121.628 193.651 121.465 193.321C121.375 193.14 121.311 192.941 121.216 192.76C121.167 192.661 121.099 192.597 120.995 192.561C120.326 192.313 119.652 192.059 118.983 191.806C118.504 191.625 118.029 191.436 117.554 191.246C117.459 191.209 117.364 191.173 117.265 191.142C117.179 191.115 117.098 191.074 117.043 190.997C117.016 190.956 116.985 190.911 117.003 190.857C117.021 190.798 117.075 190.794 117.125 190.78C117.215 190.757 117.301 190.766 117.387 190.807C117.948 191.087 118.526 191.336 119.128 191.521C119.286 191.571 119.435 191.653 119.589 191.711C119.901 191.833 120.208 191.955 120.525 192.064C120.597 192.091 120.687 192.145 120.791 192.064C120.633 191.897 120.484 191.725 120.321 191.567C119.702 190.956 119.078 190.346 118.454 189.736C118.418 189.699 118.386 189.659 118.368 189.609C118.341 189.546 118.35 189.482 118.404 189.433C118.458 189.383 118.526 189.365 118.581 189.41C118.689 189.496 118.793 189.595 118.893 189.695C119.453 190.256 120.009 190.821 120.561 191.377C120.629 191.359 120.61 191.322 120.597 191.291C120.312 190.717 120.005 190.156 119.666 189.614C119.476 189.306 119.354 188.972 119.209 188.642C119.191 188.596 119.2 188.533 119.245 188.506C119.29 188.479 119.349 188.483 119.385 188.524C119.431 188.569 119.48 188.619 119.503 188.673C119.738 189.234 120.1 189.718 120.384 190.247C120.61 190.662 120.841 191.078 121.022 191.517C121.085 191.671 121.167 191.82 121.234 191.969C121.302 192.118 121.411 192.209 121.569 192.263C121.922 192.385 122.265 192.521 122.613 192.652C122.785 192.719 122.966 192.697 123.147 192.71C123.215 192.715 123.269 192.67 123.305 192.611C123.513 192.272 123.721 191.933 123.915 191.589C124.001 191.436 123.947 191.259 123.924 191.101C123.816 190.35 123.603 189.632 123.337 188.922C123.282 188.782 123.278 188.619 123.233 188.474C123.115 188.095 122.984 187.719 122.862 187.344C122.803 187.163 122.74 186.982 122.686 186.797C122.672 186.752 122.681 186.698 122.69 186.648C122.704 186.598 122.735 186.553 122.79 186.539C122.844 186.53 122.889 186.557 122.921 186.603C122.948 186.643 122.979 186.689 122.988 186.738C123.106 187.276 123.359 187.774 123.486 188.312C123.612 188.85 123.811 189.365 123.97 189.889C123.974 189.907 124.001 189.926 124.033 189.962C124.046 189.424 124.064 188.904 124.069 188.379C124.078 187.724 124.074 187.073 124.078 186.417C124.078 186.34 124.083 186.264 124.096 186.187C124.11 186.128 124.123 186.056 124.209 186.065C124.281 186.074 124.322 186.123 124.345 186.187C124.385 186.3 124.367 186.413 124.372 186.53C124.404 187.841 124.34 189.148 124.34 190.454C124.34 190.545 124.34 190.631 124.34 190.721C124.363 190.726 124.385 190.73 124.404 190.735ZM126.519 192.778C126.284 192.774 126.067 192.842 125.864 192.959C125.706 193.045 125.547 193.126 125.389 193.208C125.276 193.267 125.204 193.244 125.131 193.131C125.095 193.077 125.068 193.018 125.041 192.964C124.91 192.715 124.752 192.48 124.648 192.218C124.612 192.127 124.548 191.996 124.449 192.01C124.322 192.028 124.363 192.172 124.354 192.267C124.345 192.344 124.349 192.421 124.349 192.498C124.345 193.226 124.44 193.954 124.399 194.682C124.399 194.709 124.404 194.731 124.408 194.758C124.417 194.781 124.426 194.808 124.444 194.822C124.48 194.849 124.512 194.826 124.544 194.804C124.575 194.781 124.602 194.754 124.63 194.727C125.208 194.148 125.787 193.569 126.361 192.991C126.42 192.927 126.506 192.878 126.506 192.774C126.528 192.774 126.556 192.783 126.578 192.774C126.596 192.765 126.61 192.742 126.623 192.724C126.601 192.715 126.578 192.697 126.56 192.701C126.528 192.71 126.497 192.733 126.519 192.778ZM126.045 195.418C125.688 195.418 125.326 195.418 124.969 195.418C124.905 195.418 124.842 195.423 124.779 195.428C124.729 195.432 124.702 195.504 124.738 195.545C124.788 195.604 124.838 195.663 124.896 195.712C125.344 196.137 125.787 196.562 126.239 196.983C126.388 197.123 126.56 197.24 126.723 197.363C126.75 197.381 126.8 197.394 126.827 197.381C126.849 197.367 126.863 197.317 126.858 197.286C126.822 197.028 126.75 196.784 126.655 196.544C126.592 196.391 126.619 196.305 126.741 196.205C126.791 196.164 126.845 196.124 126.904 196.106C127.256 195.975 127.523 195.699 127.858 195.532C127.871 195.522 127.885 195.486 127.876 195.468C127.871 195.45 127.839 195.432 127.817 195.432C127.74 195.432 127.659 195.459 127.586 195.446C127.071 195.342 126.56 195.373 126.045 195.418ZM122.03 192.769C122.677 193.484 123.314 194.184 124.015 194.804C124.083 194.767 124.092 194.722 124.096 194.668C124.132 194.202 124.069 192.629 123.997 192.245C123.857 192.376 123.771 192.53 123.689 192.683C123.617 192.819 123.545 192.955 123.436 193.063C123.237 193.262 123.187 193.28 122.93 193.176C122.821 193.135 122.717 193.086 122.613 193.036C122.419 192.946 122.224 192.86 122.03 192.769ZM124.06 198.19C124.033 197.408 124.2 196.626 124.042 195.857C123.974 195.839 123.924 195.857 123.884 195.889C123.26 196.445 122.668 197.032 122.089 197.643C122.536 197.521 122.97 197.381 123.409 197.24C123.626 197.173 123.662 197.191 123.748 197.408C123.857 197.674 123.956 197.932 124.06 198.19ZM121.745 193.072C121.813 193.271 121.912 193.461 122.021 193.646C122.157 193.877 122.301 194.103 122.432 194.342C122.591 194.636 122.582 194.645 122.256 194.763C122.039 194.84 121.827 194.926 121.61 195.012C121.578 195.025 121.537 195.061 121.537 195.088C121.542 195.161 121.61 195.143 121.655 195.143C122.193 195.147 122.731 195.152 123.269 195.147C123.418 195.147 123.576 195.201 123.712 195.093C123.73 194.894 123.563 194.813 123.454 194.704C122.925 194.166 122.369 193.655 121.858 193.095C121.84 193.072 121.809 193.04 121.745 193.072ZM124.458 198.357C124.544 198.312 124.562 198.217 124.598 198.14C124.747 197.815 124.892 197.485 125.036 197.159C125.118 196.978 125.127 196.974 125.321 197.055C125.534 197.145 125.742 197.24 125.954 197.331C125.986 197.344 126.027 197.367 126.049 197.322C126.058 197.304 126.049 197.268 126.036 197.249C125.99 197.191 125.941 197.127 125.886 197.073C125.493 196.689 125.095 196.309 124.693 195.934C124.625 195.871 124.557 195.785 124.444 195.776C124.385 196.02 124.349 197.448 124.385 198.185C124.399 198.249 124.395 198.316 124.458 198.357ZM125.95 195.111C125.95 195.111 125.95 195.107 125.95 195.111C126.307 195.093 126.669 195.079 127.026 195.066C127.062 195.066 127.107 195.075 127.116 195.025C127.125 194.98 127.094 194.962 127.053 194.948C126.768 194.835 126.47 194.754 126.167 194.709C126.09 194.7 126.013 194.686 125.941 194.668C125.85 194.645 125.819 194.578 125.85 194.492C125.882 194.406 125.927 194.329 125.995 194.266C126.406 193.872 126.678 193.37 127.03 192.932C127.039 192.923 127.044 192.909 127.044 192.896C127.039 192.873 127.03 192.851 127.017 192.833C127.012 192.828 126.994 192.828 126.985 192.833C126.953 192.851 126.917 192.869 126.89 192.896C126.262 193.52 125.633 194.144 125.009 194.767C124.946 194.831 124.883 194.894 124.829 194.966C124.806 194.994 124.783 195.043 124.792 195.07C124.81 195.12 124.865 195.138 124.919 195.138C124.969 195.138 125.023 195.138 125.073 195.134C125.362 195.129 125.656 195.12 125.95 195.111ZM121.971 197.191C122.279 197.055 122.441 196.829 122.636 196.648C123.025 196.296 123.4 195.929 123.78 195.568C123.802 195.545 123.811 195.5 123.811 195.468C123.807 195.418 123.757 195.423 123.721 195.423C122.943 195.423 122.161 195.423 121.384 195.428C121.37 195.428 121.338 195.459 121.343 195.473C121.347 195.495 121.37 195.518 121.388 195.527C121.686 195.64 121.994 195.739 122.31 195.771C122.6 195.798 122.658 195.907 122.509 196.173C122.478 196.228 122.46 196.291 122.423 196.345C122.247 196.589 122.13 196.874 121.971 197.191Z" fill="white"/>
<path d="M114.937 49.1066C114.756 49.1292 114.552 49.084 114.385 49.0433C113.273 48.754 112.143 48.8308 111.008 48.98C110.651 49.0252 110.321 49.0614 109.936 49.0117C108.327 48.7902 106.717 48.8354 105.126 49.084C104.877 49.1247 104.597 49.188 104.385 49.075C103.955 48.8489 103.557 48.9122 103.119 49.0659C102.667 49.2196 102.151 49.2965 101.618 49.2739C101.139 49.2513 100.677 49.2513 100.234 49.3643C99.9677 49.4321 99.7281 49.3507 99.4794 49.3281C98.3401 49.2332 97.1963 49.1292 96.1972 49.5858C96.0299 49.6627 95.7632 49.6582 95.614 49.5723C95.1122 49.292 94.5516 49.2558 93.896 49.3914C93.7649 49.4186 93.5795 49.4095 93.4349 49.3869C91.9294 49.1563 90.4375 49.2603 88.9501 49.4321C88.5794 49.4773 88.2222 49.4638 87.8741 49.3869C87.2321 49.2422 86.6534 49.2875 86.129 49.5406C85.9572 49.622 85.7312 49.6446 85.6001 49.5316C85.2519 49.2287 84.7727 49.2196 84.2438 49.3462C83.6334 49.4954 83.0322 49.5045 82.4218 49.3643C82.1732 49.3055 81.8974 49.2784 81.6578 49.3372C81.0429 49.4864 80.4643 49.4909 79.8494 49.3281C79.6324 49.2694 79.3295 49.2694 79.0763 49.2875C78.2128 49.3507 77.3538 49.5361 76.4903 49.2875C76.4542 49.2784 76.3818 49.2874 76.3366 49.2965C75.6268 49.5135 74.9306 49.3824 74.2118 49.301C73.5381 49.2242 72.851 49.2242 72.1909 49.3508C71.2912 49.5225 70.3237 49.5361 69.4195 49.5271C68.651 49.518 67.8553 49.4638 67.0867 49.509C66.5939 49.5406 66.169 49.5361 65.735 49.414C65.3416 49.3055 64.8624 49.2829 64.5279 49.4186C63.7096 49.7531 62.6698 49.396 61.8515 49.7034C61.6571 49.7757 61.431 49.6627 61.327 49.5813C60.8885 49.2377 60.3053 49.2423 59.6543 49.3508C59.2519 49.414 58.836 49.4547 58.4517 49.5406C57.977 49.6446 57.5385 49.631 57.0909 49.5135C56.5665 49.3779 56.0149 49.292 55.4181 49.3462C54.8485 49.396 54.2879 49.4276 53.7228 49.2965C53.4108 49.2242 53.1124 49.3101 52.8683 49.4276C52.701 49.5045 52.5066 49.5587 52.3529 49.4412C52.0093 49.1744 51.5211 49.2558 51.0644 49.2829C50.4903 49.3191 49.8935 49.613 49.3691 49.2106C49.3058 49.1654 48.9848 49.2061 48.7814 49.2196C47.5924 49.2965 46.4033 49.4457 45.2505 49.1157C45.0787 49.0659 44.8346 49.0976 44.6311 49.075C43.4512 48.9529 42.2802 48.8128 41.0641 48.9122C40.8652 48.9303 40.6301 48.9122 40.4447 48.8715C39.3959 48.6364 38.3877 48.8896 37.3705 48.9484C36.7827 48.98 36.308 49.1835 36.1724 49.5271C36.0277 49.8978 35.7158 50.1826 35.015 50.3499C34.6624 50.4313 34.6217 50.698 34.8975 50.8562C35.3225 51.1004 35.7972 51.3219 36.2538 51.5479C37.0359 51.9413 37.9763 52.0859 39.0116 51.9548C39.9926 51.8328 40.9917 51.8554 41.9683 51.783C43.4195 51.6745 44.7758 51.774 46.1502 51.9865C47.6918 52.2261 49.2606 52.2396 50.8158 52.0407C51.4578 51.9593 52.05 51.9684 52.6649 52.0588C52.9587 52.104 53.2978 52.2351 53.56 52.1266C54.089 51.9096 54.5004 52.0181 54.9615 52.1718C55.3413 52.2984 55.7572 52.2939 56.1641 52.1899C56.4579 52.1176 56.7654 52.0769 57.0728 52.1537C57.7509 52.3165 58.4065 52.2035 59.0756 52.1357C59.5865 52.0859 60.0838 51.9955 60.6218 52.0814C62.0504 52.3165 63.5197 52.2894 64.989 52.2351C65.7214 52.208 66.4538 52.1628 67.1591 52.3301C67.4755 52.4069 67.792 52.3708 68.0452 52.2623C68.5967 52.0181 69.1392 51.9684 69.7496 52.208C69.9123 52.2713 70.1384 52.2848 70.3283 52.3346C70.6493 52.4114 70.9748 52.4114 71.1963 52.2713C71.7433 51.9277 72.3717 51.9187 73.0047 52.1492C73.5472 52.3482 74.0174 52.3979 74.5734 52.1764C74.7136 52.1221 74.9848 52.1131 75.1657 52.1447C75.6811 52.2261 76.0201 52.104 76.4542 51.9729C76.965 51.8192 77.3177 52.2442 77.8647 52.2216C78.0727 52.2125 78.2851 52.2035 78.4841 52.1764C78.8955 52.1176 79.2978 52.0859 79.7273 52.1311C80.0393 52.1628 80.3693 52.1583 80.6451 52.0678C81.3187 51.8418 81.9336 51.896 82.5303 52.1447C83.1226 52.3934 83.8233 52.425 84.4698 52.2894C85.6543 52.0452 86.8298 52.095 88.0278 52.2125C88.9908 52.3075 89.9085 52.2442 90.7359 51.9458C91.1608 51.7921 91.5948 51.7559 92.065 51.887C93.7016 52.3391 95.3879 52.3255 97.0969 52.0226C97.4992 51.9503 97.879 52.0045 98.2904 52.0272C99.0861 52.0724 99.9315 52.1628 100.727 51.896C101.374 51.679 102.065 51.661 102.775 51.9232C103.435 52.1673 104.163 52.1266 104.837 51.878C105.094 51.783 105.352 51.6881 105.623 51.6022C105.917 51.5118 106.216 51.4756 106.455 51.6474C106.934 51.9865 107.418 51.9051 107.906 51.6564C108.114 51.5524 108.35 51.5118 108.612 51.5931C109.643 51.9141 110.728 51.8328 111.822 51.7288C112.852 51.6293 113.906 51.6157 114.923 51.462V49.1066H114.937Z" fill="white"/>
<path d="M213.48 50.6121C213.073 50.472 212.906 50.3047 212.883 50.0696C212.865 49.9023 212.874 49.7351 212.833 49.5723C212.811 49.4955 212.689 49.4186 212.512 49.4231C211.898 49.4457 211.233 49.4096 210.677 49.5226C210.085 49.6401 209.673 49.5859 209.248 49.3915C208.76 49.1699 208.231 49.1247 207.648 49.2694C207.282 49.3598 206.925 49.3237 206.594 49.2242C206.102 49.0705 205.645 48.9575 205.288 49.3191C205.211 49.396 205.012 49.387 204.867 49.3463C204.452 49.2332 204.031 49.0614 203.547 49.2016C202.919 49.3869 202.779 49.0027 202.367 48.9484C202.096 48.9123 201.847 48.9484 201.608 49.0072C201.201 49.1021 200.803 49.1112 200.405 48.9891C199.858 48.8218 199.325 48.8038 198.791 49.0117C198.61 49.0795 198.393 49.0479 198.19 49.0117C197.842 48.9484 197.48 48.9077 197.15 48.8264C196.522 48.6726 195.934 48.6817 195.378 48.9077C194.958 49.0795 194.492 49.0705 194.035 48.9801C193.461 48.8625 192.9 48.6455 192.358 49.0208C192.259 49.0886 192.082 49.0208 191.938 48.9936C191.748 48.9575 191.499 48.8897 191.354 48.9258C190.839 49.0524 190.364 49.2061 189.786 49.0027C189.727 48.9801 189.514 49.0614 189.392 49.1067C189.189 49.188 189.071 49.3327 188.601 49.3553C188.583 49.3417 188.529 49.2604 188.438 49.2016C187.778 48.7721 187.597 48.7178 186.738 48.9303C185.875 49.1428 184.871 49.0343 184.039 49.292C184.003 49.3056 183.935 49.2965 183.886 49.2875C183.33 49.2061 182.755 49.1519 182.227 49.0388C181.607 48.9077 180.974 49.1654 180.382 48.9846C179.821 48.8173 179.134 48.9349 178.565 48.7631C178.452 48.7269 178.225 48.7314 178.108 48.7721C177.389 48.9982 176.702 48.8761 175.988 48.7676C175.319 48.6636 174.631 48.6681 174.035 48.9077C173.768 49.0162 173.501 49.0027 173.171 48.9936C172.412 48.971 171.593 48.8083 170.879 49.0434C170.07 49.3056 169.319 49.283 168.537 49.0434C168.401 49.0027 168.261 48.9575 168.112 48.9394C167.967 48.9258 167.723 48.9258 167.678 48.9665C167.28 49.3237 166.95 49.0931 166.548 48.962C165.829 48.7269 164.975 48.8083 164.391 49.1835C164.21 49.301 164.129 49.3915 163.817 49.3598C163.46 49.3237 163.094 49.3101 162.732 49.2739C162.339 49.2332 162.054 49.2875 161.751 49.4412C160.915 49.8707 160.734 49.83 160.368 49.1835C160.255 48.9891 159.884 48.8942 159.681 49.0343C159.418 49.2152 159.174 49.2604 158.754 49.2332C158.247 49.1971 157.628 49.1383 157.266 49.3644C156.868 49.6085 156.493 49.5814 156.014 49.5045C154.897 49.3237 153.772 49.2106 152.619 49.4141C152.18 49.4909 151.805 49.387 151.425 49.2875C151.113 49.2061 150.806 49.2287 150.575 49.3734C150.403 49.4819 150.223 49.622 149.947 49.5633C149.138 49.396 148.387 49.5904 147.668 49.6944C146.931 49.7984 146.339 49.7938 145.792 49.5271C145.485 49.3779 145.146 49.3282 144.784 49.4096C144.029 49.5813 143.202 49.6492 142.487 49.4955C141.646 49.3101 140.81 49.5813 140.019 49.396C139.969 49.3869 139.919 49.3779 139.874 49.3644C139.467 49.2513 139.097 49.2875 138.681 49.3915C138.215 49.509 137.718 49.5814 137.248 49.7034C136.669 49.8526 136.226 49.4864 135.656 49.4683C135.082 49.4457 134.508 49.4276 133.934 49.4186C133.902 49.4186 133.866 49.4186 133.834 49.4231V52.1221C134.639 52.1583 135.435 52.2306 136.221 52.3617C136.429 52.3979 136.633 52.3889 136.823 52.3301C137.889 51.9955 139.042 52.095 140.173 52.1764C140.602 52.208 140.982 52.2532 141.38 52.1402C141.714 52.0453 142.094 52.0091 142.442 52.0995C143.048 52.2578 143.595 52.3572 144.133 52.0227C144.327 51.9051 144.621 52.0091 144.865 52.0498C145.566 52.1764 146.249 52.2894 146.99 52.095C147.338 52.0046 147.691 52.1086 148.021 52.2126C148.921 52.5019 149.861 52.5019 150.648 52.1402C151.267 51.8554 151.864 51.8599 152.533 51.9955C153.532 52.199 154.576 52.1899 155.621 52.2397C156.945 52.303 158.116 51.8509 159.45 51.9729C159.613 51.9865 159.834 51.8916 159.997 51.8238C160.413 51.661 160.747 51.6972 161.096 51.8916C161.421 52.0724 161.819 52.0317 162.262 51.9955C163.288 51.9187 164.342 51.8373 165.368 51.8644C166.222 51.887 167.032 51.8825 167.845 51.7514C168.664 51.6203 169.468 51.5977 170.309 51.7559C171.146 51.9142 173.261 51.9142 174.021 51.7514C175.052 51.5344 176.042 51.5208 177.086 51.7017C178.058 51.869 179.053 51.8735 180.007 51.652C180.4 51.5615 180.707 51.5932 181.01 51.7379C181.277 51.8644 181.576 51.878 181.865 51.7605C182.177 51.6339 182.48 51.6067 182.882 51.661C183.877 51.7966 184.654 51.7605 185.875 51.5932C186.02 51.5751 186.187 51.5661 186.336 51.5796C187.15 51.6565 188 51.5887 188.791 51.7831C189.451 51.9413 190.125 51.9277 190.726 51.6836C191.051 51.5525 191.404 51.557 191.775 51.6022C192.503 51.6881 193.231 51.661 193.963 51.6203C194.958 51.5661 195.948 51.5435 196.92 51.7198C197.313 51.7921 197.747 51.8328 198.154 51.7379C198.719 51.6067 199.261 51.5977 199.818 51.7469C200.021 51.8011 200.265 51.7695 200.41 51.6972C201.106 51.331 201.829 51.4666 202.566 51.6429C202.801 51.6972 203.068 51.7831 203.299 51.7695C204.253 51.7017 205.148 51.8147 206.061 51.9323C206.5 51.9865 206.983 51.9413 207.431 52.0543C207.725 52.1312 208.046 52.0724 208.349 52.0182C208.543 51.982 208.819 51.8961 208.932 51.9323C209.705 52.1945 210.704 51.8825 211.459 52.2532C211.794 52.416 212.725 52.2532 212.793 52.0408C212.892 51.7333 213.209 51.5751 213.638 51.3988C214.208 51.1727 214.135 50.8337 213.48 50.6121Z" fill="white"/>
<path d="M124.024 45.8561C124.046 45.829 124.074 45.8018 124.083 45.7702C124.196 45.3633 124.313 44.9564 124.413 44.545C124.449 44.3958 124.512 44.2557 124.562 44.111C124.693 43.7358 124.806 43.356 124.928 42.9762C125.068 42.5377 125.213 42.0992 125.357 41.6652C125.394 41.5567 125.443 41.4482 125.493 41.3487C125.507 41.3216 125.556 41.2945 125.584 41.299C125.615 41.3035 125.656 41.3397 125.66 41.3713C125.697 41.5114 125.674 41.6516 125.629 41.7872C125.461 42.2981 125.285 42.809 125.127 43.3244C124.937 43.9482 124.697 44.5586 124.544 45.1915C124.458 45.5396 124.354 45.8832 124.245 46.2223C124.191 46.3805 124.196 46.5207 124.277 46.6654C124.426 46.9321 124.575 47.2033 124.725 47.4701C124.752 47.5153 124.783 47.556 124.801 47.6012C124.973 47.9764 124.987 47.9041 125.326 47.7775C125.565 47.6871 125.791 47.5695 126.04 47.5017C126.257 47.4429 126.456 47.3164 126.664 47.2214C126.759 47.1762 126.782 47.0858 126.804 47.0044C126.922 46.6382 127.039 46.272 127.148 45.9058C127.347 45.2322 127.546 44.5541 127.785 43.894C127.83 43.7719 127.876 43.6544 127.93 43.5368C127.953 43.4916 127.998 43.451 128.052 43.46C128.129 43.469 128.147 43.5368 128.156 43.6001C128.17 43.7177 128.147 43.8307 128.106 43.9392C127.871 44.5495 127.672 45.1734 127.505 45.8064C127.424 46.1138 127.306 46.4122 127.202 46.7286C127.424 46.6473 127.446 46.6337 127.609 46.4709C128.16 45.9149 128.712 45.3588 129.264 44.8072C129.354 44.7168 129.449 44.6309 129.544 44.545C129.598 44.4998 129.666 44.5088 129.72 44.5495C129.774 44.5902 129.802 44.6535 129.77 44.7213C129.743 44.7756 129.711 44.8344 129.666 44.8796C129.164 45.3769 128.662 45.8697 128.16 46.367C127.889 46.6382 127.595 46.8869 127.36 47.1853C127.383 47.2712 127.437 47.244 127.482 47.2259C127.799 47.1174 128.12 47.0315 128.423 46.8914C128.843 46.697 129.291 46.5795 129.716 46.3986C130.055 46.2539 130.394 46.1002 130.733 45.951C130.756 45.942 130.778 45.9239 130.801 45.9149C130.918 45.8742 131.086 45.9058 131.117 45.9736C131.153 46.0505 131.067 46.1906 130.941 46.2404C130.525 46.4031 130.104 46.5614 129.689 46.7241C129.209 46.9095 128.73 47.0948 128.251 47.2757C128.002 47.3706 127.749 47.4565 127.496 47.5515C127.288 47.6283 127.125 47.7368 127.021 47.9629C126.899 48.2296 126.75 48.4873 126.519 48.6817C126.501 48.6998 126.479 48.7179 126.47 48.7405C126.339 48.962 126.194 49.17 126.027 49.3644C125.954 49.4503 125.981 49.5362 126.099 49.5678C126.632 49.7125 127.139 49.9295 127.681 50.0425C127.745 50.0561 127.812 50.0742 127.871 50.0651C128.147 50.0199 128.432 49.9883 128.698 49.9159C129.132 49.7984 129.553 49.6447 129.982 49.509C130.019 49.4955 130.055 49.4774 130.091 49.4683C130.688 49.3689 131.244 49.1338 131.813 48.9394C131.908 48.9077 132.008 48.8806 132.107 48.849C132.171 48.8264 132.234 48.8309 132.297 48.858C132.347 48.8806 132.388 48.9168 132.383 48.971C132.379 49.0072 132.36 49.0479 132.338 49.0705C132.302 49.1021 132.252 49.1248 132.202 49.1383C131.831 49.2423 131.461 49.3463 131.108 49.5C130.991 49.5497 130.864 49.5678 130.742 49.604C130.29 49.7396 129.833 49.8662 129.381 50.0109C129.277 50.0425 129.151 50.0561 129.069 50.1555C129.096 50.2369 129.173 50.2098 129.227 50.2098C130.254 50.2188 131.28 50.2233 132.306 50.2324C132.469 50.2324 132.641 50.1736 132.799 50.2686C132.831 50.2866 132.885 50.3228 132.88 50.3364C132.867 50.3816 132.84 50.4313 132.804 50.463C132.709 50.5489 132.587 50.5308 132.473 50.5262C131.501 50.5082 130.525 50.5534 129.548 50.5036C129.557 50.5353 129.557 50.5669 129.571 50.5715C130.299 50.8201 131.022 51.0642 131.75 51.3084C131.836 51.3355 131.917 51.3762 131.963 51.4621C131.976 51.4937 131.981 51.5389 131.967 51.5706C131.954 51.5977 131.904 51.6339 131.877 51.6248C131.7 51.5842 131.529 51.5389 131.357 51.4847C130.859 51.3219 130.358 51.1592 129.86 50.9829C129.413 50.8246 128.961 50.68 128.5 50.5624C128.292 50.5082 128.133 50.5353 127.962 50.6574C127.573 50.9241 127.184 51.1999 126.764 51.4214C126.605 51.5073 126.587 51.5887 126.641 51.774C126.732 52.095 126.818 52.416 126.899 52.737C126.931 52.8545 126.985 52.9359 127.08 53.0173C127.247 53.162 127.433 53.2659 127.627 53.3654C128.084 53.596 128.536 53.8356 128.979 54.0933C129.268 54.2651 129.571 54.3917 129.869 54.5454C130.109 54.6674 130.344 54.7985 130.579 54.9206C130.643 54.9523 130.67 55.0065 130.683 55.0743C130.701 55.1602 130.633 55.2326 130.552 55.21C130.489 55.1919 130.425 55.1783 130.371 55.1467C129.815 54.8031 129.2 54.577 128.644 54.2289C128.269 53.9893 127.849 53.8175 127.451 53.6141C127.378 53.6728 127.446 53.7045 127.473 53.7316C128.273 54.5454 129.074 55.3592 129.878 56.1729C129.915 56.2091 129.951 56.2453 129.982 56.286C130.05 56.3673 130.064 56.4532 130.014 56.4894C129.942 56.5436 129.865 56.5301 129.797 56.4984C129.743 56.4713 129.689 56.4306 129.643 56.3854C129.16 55.9062 128.676 55.427 128.201 54.9432C128.002 54.7443 127.812 54.5318 127.622 54.3239C127.537 54.2289 127.455 54.1295 127.342 54.0662C127.27 54.0933 127.297 54.143 127.311 54.1882C127.424 54.5273 127.555 54.8618 127.65 55.21C127.717 55.4586 127.83 55.6892 127.907 55.9333C128.007 56.2362 128.115 56.5391 128.219 56.842C128.233 56.8782 128.242 56.9144 128.246 56.955C128.255 57.0274 128.215 57.0771 128.151 57.1042C128.097 57.1268 128.047 57.1042 128.02 57.059C127.975 56.9822 127.93 56.9053 127.898 56.8194C127.69 56.2272 127.487 55.6349 127.279 55.0427C127.134 54.6313 126.994 54.2199 126.849 53.8085C126.773 53.5915 126.452 53.2479 126.239 53.1484C125.855 52.9721 125.475 52.7958 125.091 52.6194C125.068 52.6104 125.041 52.6014 125.018 52.5923C124.933 52.5607 124.869 52.5878 124.829 52.6692C124.697 52.963 124.562 53.2524 124.435 53.5463C124.363 53.709 124.254 53.8808 124.259 54.0481C124.263 54.2153 124.381 54.3781 124.453 54.5454C124.716 55.1421 124.982 55.7389 125.254 56.3357C125.471 56.8104 125.633 57.3122 125.891 57.7733C125.914 57.814 125.923 57.8728 125.923 57.918C125.923 57.9813 125.905 58.0536 125.832 58.0717C125.787 58.0808 125.733 58.0627 125.688 58.0446C125.611 58.0084 125.584 57.9361 125.556 57.8638C125.339 57.2625 125.104 56.6657 124.81 56.0961C124.706 55.8926 124.621 55.6756 124.544 55.4586C124.44 55.1693 124.272 54.9071 124.146 54.6313C124.128 54.5951 124.101 54.568 124.06 54.5861C124.042 54.5951 124.024 54.6268 124.019 54.6494C124.01 54.7398 124.001 54.8302 124.001 54.9161C124.006 55.3004 123.988 55.6847 124.033 56.0689C124.051 56.2091 124.019 56.3492 124.019 56.4894C124.024 56.9144 124.028 57.3348 124.037 57.7598C124.037 57.8502 124.055 57.9406 124.006 58.022C123.97 58.0763 123.92 58.1169 123.847 58.1079C123.793 58.0989 123.748 58.0672 123.73 58.0175C123.707 57.9587 123.694 57.8954 123.694 57.8321C123.689 57.6784 123.703 57.5247 123.703 57.371C123.707 56.7697 123.712 56.1639 123.712 55.5626C123.712 55.4631 123.725 55.3591 123.64 55.2778C123.545 55.3818 123.522 55.5083 123.49 55.6349C123.368 56.1322 123.206 56.6205 123.088 57.1178C123.007 57.4659 122.844 57.7914 122.717 58.126C122.704 58.1576 122.658 58.1893 122.631 58.1893C122.582 58.1893 122.541 58.1486 122.532 58.0943C122.514 58.0039 122.514 57.9135 122.55 57.8321C122.803 57.267 122.866 56.6476 123.052 56.0599C123.178 55.6575 123.287 55.2507 123.45 54.8573C123.508 54.7172 123.558 54.568 123.603 54.4233C123.635 54.3239 123.644 54.2244 123.608 54.1204C123.463 53.6954 123.328 53.2705 123.183 52.8455C123.142 52.7325 123.083 52.7008 122.975 52.7325C122.451 52.8952 121.926 53.067 121.397 53.2343C121.117 53.3202 120.972 53.4965 120.886 53.7904C120.597 54.7624 120.348 55.7434 120.109 56.7245C120.091 56.7968 120.091 56.8782 120.077 56.9505C120.063 57.0138 120.045 57.0771 120.014 57.1314C119.991 57.1721 119.955 57.2173 119.892 57.2127C119.81 57.2082 119.797 57.1359 119.779 57.0771C119.756 57.0138 119.774 56.955 119.792 56.8872C119.874 56.5256 119.946 56.1639 120.036 55.8022C120.145 55.3411 120.262 54.8845 120.384 54.4233C120.412 54.3148 120.466 54.2063 120.502 54.0978C120.511 54.0752 120.507 54.039 120.493 54.0255C120.457 53.9983 120.43 54.021 120.403 54.0526C120.271 54.1927 120.14 54.3329 120.014 54.4776C119.494 55.0653 118.906 55.5852 118.364 56.1458C118.282 56.2272 118.205 56.3131 118.124 56.399C118.061 56.4668 117.993 56.521 117.898 56.5346C117.844 56.5391 117.789 56.5346 117.758 56.4894C117.726 56.4487 117.731 56.3899 117.762 56.3447C117.798 56.2905 117.835 56.2362 117.88 56.191C118.368 55.6982 118.861 55.2145 119.349 54.7217C119.693 54.3736 120.023 54.0164 120.357 53.6638C120.362 53.6593 120.353 53.6457 120.344 53.6231C120.226 53.6231 120.136 53.709 120.041 53.7632C119.616 54.0029 119.173 54.1973 118.752 54.4459C118.422 54.6448 118.074 54.8076 117.726 54.9704C117.622 55.0201 117.527 55.0834 117.428 55.1376C117.351 55.1783 117.269 55.219 117.175 55.219C117.111 55.219 117.062 55.1467 117.08 55.0834C117.098 55.0201 117.129 54.9613 117.188 54.9297C117.364 54.8302 117.541 54.7217 117.726 54.6358C118.178 54.4233 118.621 54.2018 119.051 53.9396C119.421 53.7135 119.824 53.5417 120.208 53.3428C120.344 53.2705 120.475 53.1936 120.606 53.1122C120.922 52.9043 121.085 52.5878 121.248 52.2713C121.402 51.973 121.537 51.6746 121.714 51.3897C121.781 51.2858 121.759 51.218 121.646 51.1818C121.207 51.0371 120.769 50.897 120.326 50.7568C120.213 50.7206 120.1 50.7342 119.987 50.7839C119.661 50.9331 119.327 51.0642 119.006 51.2179C118.355 51.5254 117.694 51.8057 117.039 52.095C116.826 52.19 116.614 52.2804 116.406 52.3708C116.361 52.3934 116.316 52.4205 116.266 52.4341C116.166 52.4612 116.062 52.4883 115.981 52.3979C115.922 52.3346 116.022 52.1267 116.157 52.1041C116.415 52.0589 116.632 51.9097 116.872 51.8283C117.052 51.765 117.229 51.6881 117.405 51.6113C118.024 51.3355 118.644 51.0597 119.259 50.7749C119.349 50.7342 119.525 50.7207 119.489 50.5805C119.467 50.4901 119.308 50.5443 119.209 50.5443C118.671 50.5398 118.133 50.5624 117.595 50.5534C117.138 50.5443 116.677 50.5669 116.216 50.5715C116.189 50.5715 116.166 50.576 116.139 50.576C116.049 50.5669 115.954 50.4946 115.94 50.4223C115.922 50.3454 115.99 50.2731 116.117 50.2595C116.284 50.2459 116.451 50.2233 116.614 50.2414C117.193 50.3002 117.767 50.2459 118.345 50.2595C118.499 50.264 118.666 50.3409 118.807 50.2098C118.694 50.0877 118.535 50.0787 118.395 50.0289C117.97 49.8843 117.536 49.7667 117.098 49.6673C116.709 49.5814 116.338 49.4367 115.972 49.2739C115.918 49.2468 115.85 49.2152 115.882 49.1293C115.909 49.0569 115.981 49.0434 116.04 49.0524C116.126 49.066 116.212 49.0931 116.297 49.1248C116.6 49.2287 116.908 49.3101 117.22 49.3824C117.694 49.4909 118.16 49.6356 118.621 49.7803C118.951 49.8843 119.268 50.0244 119.593 50.142C119.819 50.2233 120.036 50.2324 120.267 50.142C120.624 50.0018 120.99 49.8888 121.356 49.7577C121.429 49.7306 121.501 49.6989 121.564 49.6627C121.686 49.5949 121.696 49.5452 121.619 49.4141C121.438 49.0886 121.248 48.7721 121.085 48.4421C120.995 48.2612 120.931 48.0623 120.837 47.8815C120.787 47.782 120.719 47.7187 120.615 47.6826C119.946 47.4339 119.272 47.1807 118.603 46.9276C118.124 46.7467 117.649 46.5568 117.175 46.367C117.08 46.3308 116.985 46.2946 116.885 46.263C116.799 46.2359 116.718 46.1952 116.664 46.1183C116.637 46.0776 116.605 46.0324 116.623 45.9782C116.641 45.9194 116.695 45.9149 116.745 45.9013C116.835 45.8787 116.921 45.8877 117.007 45.9284C117.568 46.2087 118.147 46.4574 118.748 46.6427C118.906 46.6925 119.055 46.7739 119.209 46.8326C119.521 46.9547 119.828 47.0768 120.145 47.1853C120.217 47.2124 120.308 47.2666 120.412 47.1853C120.253 47.018 120.104 46.8462 119.941 46.688C119.322 46.0776 118.698 45.4673 118.074 44.857C118.038 44.8208 118.006 44.7801 117.988 44.7304C117.961 44.6671 117.97 44.6038 118.024 44.5541C118.079 44.5043 118.147 44.4862 118.201 44.5315C118.309 44.6174 118.413 44.7168 118.513 44.8163C119.073 45.3769 119.629 45.942 120.181 46.4981C120.249 46.48 120.231 46.4438 120.217 46.4122C119.932 45.838 119.625 45.2774 119.286 44.7349C119.096 44.4275 118.974 44.0929 118.829 43.7629C118.811 43.7177 118.82 43.6544 118.865 43.6273C118.911 43.6001 118.969 43.6047 119.006 43.6453C119.051 43.6905 119.1 43.7403 119.123 43.7945C119.358 44.3551 119.72 44.8389 120.005 45.3678C120.231 45.7838 120.461 46.1997 120.642 46.6382C120.705 46.7919 120.787 46.9411 120.855 47.0903C120.922 47.2395 121.031 47.3299 121.189 47.3842C121.542 47.5062 121.885 47.6419 122.234 47.773C122.405 47.8408 122.586 47.8182 122.767 47.8318C122.835 47.8363 122.889 47.7911 122.925 47.7323C123.133 47.3932 123.341 47.0541 123.536 46.7105C123.621 46.5568 123.567 46.3805 123.545 46.2223C123.436 45.4718 123.224 44.753 122.957 44.0432C122.903 43.903 122.898 43.7403 122.853 43.5956C122.735 43.2159 122.604 42.8406 122.482 42.4654C122.423 42.2845 122.36 42.1037 122.306 41.9183C122.292 41.8731 122.301 41.8189 122.31 41.7691C122.324 41.7194 122.356 41.6742 122.41 41.6606C122.464 41.6516 122.509 41.6787 122.541 41.7239C122.568 41.7646 122.6 41.8098 122.609 41.8596C122.726 42.3976 122.979 42.8949 123.106 43.4329C123.233 43.9708 123.432 44.4862 123.59 45.0107C123.594 45.0288 123.621 45.0468 123.653 45.083C123.667 44.545 123.685 44.0251 123.689 43.5007C123.698 42.8451 123.694 42.1941 123.698 41.5386C123.698 41.4617 123.703 41.3849 123.716 41.308C123.73 41.2492 123.743 41.1769 123.829 41.186C123.902 41.195 123.942 41.2447 123.965 41.308C124.006 41.421 123.988 41.5341 123.992 41.6516C124.024 42.9627 123.961 44.2692 123.961 45.5758C123.961 45.6662 123.961 45.7521 123.961 45.8425C123.983 45.8425 124.001 45.8516 124.024 45.8561ZM126.14 47.8996C125.905 47.895 125.688 47.9629 125.484 48.0804C125.326 48.1663 125.168 48.2477 125.009 48.3291C124.896 48.3878 124.824 48.3652 124.752 48.2522C124.716 48.1979 124.688 48.1392 124.661 48.0849C124.53 47.8363 124.372 47.6012 124.268 47.339C124.232 47.2486 124.168 47.1174 124.069 47.131C123.942 47.1491 123.983 47.2938 123.974 47.3887C123.965 47.4655 123.97 47.5424 123.97 47.6193C123.965 48.3471 124.06 49.075 124.019 49.8029C124.019 49.83 124.024 49.8526 124.028 49.8797C124.037 49.9024 124.046 49.9295 124.064 49.943C124.101 49.9702 124.132 49.9476 124.164 49.925C124.196 49.9024 124.223 49.8752 124.25 49.8481C124.829 49.2694 125.407 48.6907 125.981 48.112C126.04 48.0488 126.126 47.999 126.126 47.8951C126.149 47.8951 126.176 47.9041 126.198 47.8951C126.216 47.886 126.23 47.8634 126.244 47.8453C126.221 47.8363 126.198 47.8182 126.18 47.8227C126.149 47.8272 126.117 47.8498 126.14 47.8996ZM125.665 50.5353C125.308 50.5353 124.946 50.5353 124.589 50.5353C124.526 50.5353 124.462 50.5398 124.399 50.5443C124.349 50.5488 124.322 50.6212 124.358 50.6619C124.408 50.7206 124.458 50.7794 124.517 50.8292C124.964 51.2541 125.407 51.6791 125.859 52.0995C126.009 52.2397 126.18 52.3572 126.343 52.4793C126.37 52.4974 126.42 52.5109 126.447 52.4974C126.47 52.4838 126.483 52.4341 126.479 52.4024C126.443 52.1448 126.37 51.9006 126.275 51.661C126.212 51.5073 126.239 51.4214 126.361 51.3219C126.411 51.2812 126.465 51.2406 126.524 51.2225C126.877 51.0914 127.143 50.8156 127.478 50.6483C127.491 50.6393 127.505 50.6031 127.496 50.585C127.491 50.5669 127.46 50.5489 127.437 50.5489C127.36 50.5489 127.279 50.576 127.207 50.5624C126.691 50.4584 126.176 50.4946 125.665 50.5353ZM121.65 47.886C122.297 48.6003 122.934 49.3011 123.635 49.9204C123.703 49.8843 123.712 49.8391 123.716 49.7848C123.753 49.3192 123.689 47.7459 123.617 47.3616C123.477 47.4927 123.391 47.6464 123.309 47.8001C123.237 47.9357 123.165 48.0714 123.056 48.1799C122.857 48.3788 122.808 48.3969 122.55 48.2929C122.441 48.2522 122.337 48.2025 122.234 48.1527C122.039 48.0668 121.845 47.9764 121.65 47.886ZM123.68 53.3112C123.653 52.529 123.82 51.7469 123.662 50.9783C123.594 50.9603 123.545 50.9783 123.504 51.01C122.88 51.5661 122.288 52.1538 121.709 52.7641C122.157 52.6421 122.591 52.5019 123.029 52.3617C123.246 52.2939 123.282 52.312 123.368 52.529C123.472 52.7913 123.576 53.0489 123.68 53.3112ZM121.365 48.1889C121.433 48.3878 121.533 48.5777 121.641 48.7631C121.777 48.9936 121.922 49.2197 122.053 49.4593C122.211 49.7532 122.202 49.7622 121.876 49.8797C121.659 49.9566 121.447 50.0425 121.23 50.1284C121.198 50.142 121.158 50.1781 121.158 50.2053C121.162 50.2776 121.23 50.2595 121.275 50.2595C121.813 50.264 122.351 50.2686 122.889 50.264C123.038 50.264 123.196 50.3183 123.332 50.2098C123.35 50.0109 123.183 49.9295 123.074 49.821C122.545 49.283 121.989 48.7721 121.479 48.2115C121.456 48.1889 121.429 48.1573 121.365 48.1889ZM124.078 53.4784C124.164 53.4332 124.182 53.3383 124.218 53.2614C124.367 52.9359 124.512 52.6059 124.657 52.2804C124.738 52.0995 124.747 52.095 124.942 52.1764C125.154 52.2668 125.362 52.3618 125.575 52.4522C125.606 52.4657 125.647 52.4883 125.669 52.4431C125.678 52.4251 125.669 52.3889 125.656 52.3708C125.611 52.312 125.561 52.2487 125.507 52.1945C125.113 51.8102 124.716 51.4304 124.313 51.0552C124.245 50.9919 124.178 50.906 124.064 50.897C124.006 51.1411 123.97 52.5697 124.006 53.3066C124.019 53.3699 124.01 53.4332 124.078 53.4784ZM125.57 50.2279C125.927 50.2098 126.289 50.1962 126.646 50.1827C126.682 50.1827 126.727 50.1917 126.736 50.142C126.745 50.0968 126.714 50.0787 126.673 50.0651C126.388 49.9521 126.09 49.8707 125.787 49.8255C125.71 49.8165 125.633 49.8029 125.561 49.7848C125.471 49.7622 125.439 49.6944 125.471 49.6085C125.502 49.5226 125.547 49.4457 125.615 49.3824C126.027 48.9891 126.298 48.4873 126.65 48.0488C126.66 48.0397 126.664 48.0262 126.664 48.0126C126.66 47.99 126.65 47.9674 126.637 47.9493C126.632 47.9448 126.614 47.9448 126.605 47.9493C126.574 47.9674 126.537 47.9855 126.51 48.0126C125.882 48.6365 125.254 49.2604 124.63 49.8843C124.566 49.9476 124.503 50.0109 124.449 50.0832C124.426 50.1103 124.404 50.16 124.413 50.1872C124.431 50.2369 124.485 50.255 124.539 50.255C124.589 50.255 124.643 50.255 124.693 50.2505C124.982 50.2459 125.276 50.2369 125.57 50.2279ZM121.587 52.3075C121.894 52.1719 122.057 51.9458 122.252 51.765C122.64 51.4124 123.016 51.0462 123.395 50.6845C123.418 50.6619 123.427 50.6167 123.427 50.585C123.423 50.5353 123.373 50.5398 123.337 50.5398C122.559 50.5398 121.777 50.5398 120.999 50.5443C120.986 50.5443 120.954 50.576 120.959 50.5895C120.963 50.6121 120.986 50.6347 121.004 50.6438C121.302 50.7568 121.61 50.8563 121.926 50.8879C122.215 50.9151 122.274 51.0235 122.125 51.2903C122.093 51.3445 122.075 51.4078 122.039 51.4621C121.867 51.7107 121.75 51.991 121.587 52.3075Z" fill="white"/>
<path d="M47.6374 19.7159C48.2704 19.3814 48.9124 19.1101 49.5634 18.8976C50.2099 18.6897 50.8247 18.5767 51.3989 18.5631C51.973 18.5495 52.4975 18.6535 52.9677 18.875C53.4378 19.0966 53.8131 19.4763 54.0979 20.0143C54.4415 20.6608 54.5048 21.2666 54.2923 21.8317C54.0798 22.3969 53.7453 22.9213 53.2977 23.405L53.3203 23.4457C54.0708 23.2965 54.7806 23.3146 55.4542 23.4955C56.1233 23.6808 56.6703 24.1646 57.0817 24.9512C57.2987 25.3671 57.4117 25.7966 57.4208 26.2442C57.4253 26.6918 57.3258 27.1393 57.1088 27.5869C56.8964 28.0345 56.5708 28.4685 56.1368 28.8799C55.7028 29.2959 55.1603 29.6711 54.5138 30.0147L46.9186 34.0293L46.7197 33.6586C47.104 33.4551 47.2351 33.2291 47.104 32.9804L42.14 23.5859C42.0088 23.3372 41.7511 23.3146 41.3623 23.5181L41.1634 23.1473L47.6374 19.7159ZM50.3003 23.7622C50.9196 23.4322 51.3944 23.084 51.7153 22.7088C52.0363 22.3336 52.0634 21.895 51.7967 21.3842C51.5255 20.8733 51.1457 20.6472 50.6574 20.7015C50.1692 20.7603 49.6131 20.9502 48.9892 21.2802L45.0379 23.3689L46.349 25.8509L50.3003 23.7622ZM52.7959 28.4776C53.6639 28.0164 54.2199 27.5553 54.455 27.0851C54.6901 26.6149 54.6947 26.1583 54.4596 25.7198C54.2245 25.2767 53.8492 25.0235 53.3293 24.9557C52.8094 24.8879 52.1132 25.0823 51.2406 25.5435L47.2893 27.6321L48.84 30.5708L52.7959 28.4776Z" fill="white"/>
<path d="M79.0716 6.57349L80.0662 9.62062L79.6639 9.75172C79.6051 9.5754 79.4876 9.45786 79.3158 9.39909C79.1395 9.34031 78.9405 9.34936 78.719 9.4217L72.0009 11.6189L74.8943 20.4754C74.9802 20.7422 75.2333 20.81 75.6493 20.6744L75.7804 21.0767L71.9557 22.329L71.8245 21.9267C72.2676 21.782 72.4484 21.574 72.3625 21.3073L69.0622 11.2075C68.9763 10.9407 68.7096 10.882 68.262 11.0266L68.1309 10.6243L78.0544 7.38274C78.276 7.31041 78.4523 7.23808 78.5834 7.16122C78.7145 7.08436 78.7461 6.93518 78.6738 6.71365L79.0716 6.57349Z" fill="white"/>
<path d="M91.7395 3.91515C92.5804 3.74335 93.462 3.69362 94.3843 3.77048C95.3065 3.84733 96.1791 4.05982 97.0019 4.42149C97.8247 4.77865 98.5435 5.29856 99.1584 5.97671C99.7732 6.65485 100.189 7.52287 100.406 8.57626C100.623 9.62964 100.578 10.5926 100.275 11.4561C99.9722 12.3241 99.5155 13.0791 98.9007 13.7301C98.2858 14.3812 97.567 14.9101 96.7397 15.317C95.9169 15.7239 95.0805 16.0132 94.2396 16.185C93.3987 16.3568 92.5171 16.4156 91.5994 16.3659C90.6816 16.3161 89.8091 16.1082 88.9908 15.751C88.1679 15.3939 87.4491 14.874 86.8343 14.1958C86.2194 13.5177 85.8035 12.6496 85.5865 11.5963C85.3695 10.5429 85.4147 9.57991 85.7176 8.71641C86.0205 7.8529 86.4771 7.09338 87.092 6.44236C87.7068 5.79135 88.4256 5.24883 89.2439 4.81934C90.0668 4.38533 90.8986 4.08695 91.7395 3.91515ZM92.169 6.02643C91.5858 6.14397 91.0252 6.35646 90.4827 6.65936C89.9402 6.96227 89.47 7.33299 89.0721 7.77153C88.6743 8.21006 88.3849 8.71188 88.1951 9.277C88.0052 9.84212 87.9781 10.4434 88.1092 11.0854C88.2403 11.7274 88.5025 12.2699 88.8958 12.7175C89.2891 13.165 89.7548 13.5086 90.2928 13.7573C90.8308 14.0059 91.405 14.1642 92.0243 14.2275C92.6437 14.2908 93.2405 14.2636 93.8237 14.1461C94.4069 14.0285 94.9675 13.816 95.51 13.5177C96.0525 13.2148 96.5227 12.844 96.9205 12.4055C97.3184 11.967 97.6077 11.4651 97.7976 10.9C97.9829 10.3349 98.0146 9.73362 97.8835 9.09164C97.7524 8.44966 97.4902 7.90715 97.0968 7.45958C96.7035 7.012 96.2379 6.6684 95.6999 6.41975C95.1619 6.1711 94.5877 6.01287 93.9683 5.94958C93.349 5.87725 92.7477 5.90436 92.169 6.02643Z" fill="white"/>
<path d="M119.873 11.2572C119.828 11.2617 119.783 11.2617 119.742 11.2572C119.702 11.2527 119.661 11.2527 119.611 11.2572C119.516 11.2662 119.304 11.3747 118.969 11.5872C118.635 11.7997 118.205 12.0438 117.685 12.3196C117.165 12.5954 116.573 12.8441 115.899 13.0656C115.226 13.2871 114.516 13.4273 113.77 13.486C112.789 13.5584 111.84 13.5086 110.917 13.3278C109.995 13.1469 109.168 12.8214 108.435 12.3558C107.703 11.8856 107.106 11.2798 106.641 10.5338C106.175 9.78788 105.904 8.89273 105.827 7.84839C105.75 6.82213 105.881 5.89986 106.229 5.08156C106.573 4.26327 107.075 3.56705 107.726 2.98385C108.377 2.40064 109.145 1.94401 110.027 1.61398C110.908 1.27943 111.84 1.076 112.821 1.00366C113.612 0.944891 114.34 0.949406 114.995 1.02626C115.651 1.10312 116.225 1.18902 116.718 1.293C117.211 1.39698 117.604 1.50096 117.893 1.60494C118.183 1.70893 118.359 1.75866 118.422 1.75414C118.499 1.74962 118.562 1.70441 118.612 1.62303C118.662 1.54165 118.698 1.47384 118.725 1.42863L119.096 1.68181L117.491 4.64303L117.247 4.49836C117.242 4.45315 117.233 4.40342 117.224 4.35821C117.215 4.313 117.197 4.25874 117.179 4.19997C117.134 4.0327 116.966 3.86995 116.673 3.71171C116.379 3.55348 116.022 3.42237 115.597 3.31387C115.176 3.20536 114.729 3.11947 114.263 3.06069C113.797 3.00192 113.368 2.98836 112.979 3.01548C112.328 3.06521 111.704 3.20536 111.121 3.44045C110.538 3.67102 110.036 3.98297 109.62 4.37629C109.204 4.76962 108.883 5.23527 108.657 5.77327C108.431 6.31578 108.345 6.92159 108.395 7.59069C108.444 8.25979 108.621 8.843 108.928 9.34482C109.231 9.84665 109.62 10.2581 110.09 10.5836C110.56 10.9091 111.103 11.1396 111.713 11.2798C112.328 11.4199 112.961 11.4652 113.612 11.4154C114.109 11.3793 114.625 11.2798 115.163 11.1216C115.696 10.9633 116.184 10.778 116.623 10.5655C117.061 10.353 117.423 10.1224 117.708 9.87378C117.993 9.62513 118.128 9.39908 118.115 9.19564C118.106 9.08714 118.07 8.99671 118.002 8.92438L118.314 8.71189L120.041 11.0673L119.873 11.2572Z" fill="white"/>
<path d="M132.338 12.3106C132.329 12.5909 132.491 12.7401 132.835 12.7491L132.817 13.1696L129.214 13.0339L129.227 12.6135C129.336 12.618 129.435 12.5864 129.526 12.5185C129.611 12.4507 129.661 12.3467 129.666 12.2066L130.018 2.89794L126.157 2.75327C126.017 2.74875 125.877 2.7804 125.742 2.85273C125.606 2.92507 125.534 3.06974 125.524 3.29126L125.104 3.27318L125.231 0L125.651 0.0180877C125.642 0.235094 125.705 0.388806 125.832 0.470184C125.963 0.551561 126.099 0.596767 126.239 0.601288L136.623 0.994617C136.764 0.999138 136.904 0.96749 137.039 0.895155C137.175 0.82282 137.247 0.678148 137.256 0.456621L137.677 0.474702L137.55 3.74787L137.13 3.7298C137.139 3.51279 137.076 3.35908 136.949 3.2777C136.818 3.19633 136.682 3.15111 136.542 3.14659L132.681 3.00192L132.338 12.3106Z" fill="white"/>
<path d="M156.782 3.58966L156.719 4.00558C156.271 3.93777 156.027 4.04175 155.987 4.31753L154.377 14.8197C154.337 15.0955 154.535 15.2718 154.983 15.3396L154.92 15.7556L150.919 15.1407L150.982 14.7248C151.244 14.7655 151.43 14.7564 151.543 14.7022C151.656 14.6479 151.719 14.553 151.742 14.4128L152.37 10.2942L148.993 9.77886L145.896 12.9978C145.747 13.147 145.634 13.269 145.557 13.3594C145.48 13.4499 145.435 13.5358 145.426 13.6126C145.417 13.6895 145.453 13.7573 145.548 13.8206C145.643 13.8839 145.756 13.9246 145.896 13.9427L145.833 14.3586L141.574 13.7076L141.637 13.2916C141.759 13.3097 141.899 13.3142 142.049 13.3052C142.198 13.2962 142.342 13.2238 142.474 13.0882L146.226 9.164C145.236 8.82493 144.481 8.33666 143.965 7.70372C143.446 7.07079 143.265 6.24798 143.418 5.22625C143.522 4.56167 143.721 4.02367 144.024 3.60322C144.327 3.18277 144.711 2.86631 145.191 2.64478C145.665 2.42778 146.217 2.29666 146.836 2.25597C147.46 2.21528 148.138 2.25597 148.88 2.369L156.782 3.58966ZM152.641 8.49489L153.166 5.07254L149.165 4.45768C148.608 4.37178 148.138 4.34465 147.759 4.37178C147.374 4.3989 147.062 4.47576 146.823 4.59783C146.583 4.71989 146.402 4.87813 146.276 5.07254C146.154 5.26694 146.068 5.48846 146.032 5.73259C145.995 5.98124 146.004 6.21181 146.068 6.43786C146.126 6.65939 146.253 6.86284 146.447 7.05272C146.637 7.23808 146.913 7.40535 147.27 7.5455C147.627 7.68565 148.084 7.79867 148.64 7.88457L152.641 8.49489Z" fill="white"/>
<path d="M167.696 6.65487C167.574 6.62323 167.452 6.6187 167.321 6.65035C167.19 6.67747 167.108 6.75433 167.077 6.8764C167.045 6.98038 167.054 7.12053 167.095 7.29233C167.135 7.46413 167.203 7.65401 167.289 7.85745L168.496 10.6921L171.024 8.84302C171.25 8.68026 171.439 8.53559 171.602 8.42257C171.765 8.30955 171.855 8.21008 171.878 8.13322C171.932 7.93882 171.756 7.78511 171.349 7.67209L171.462 7.26519L176.042 8.53559L175.929 8.94248C175.567 8.84302 175.296 8.79329 175.11 8.78877C174.925 8.78425 174.749 8.84301 174.591 8.96055L169.351 12.7039L171.769 18.5224C171.806 18.6309 171.846 18.753 171.896 18.8976C171.946 19.0423 172.014 19.187 172.104 19.3316C172.194 19.4763 172.298 19.6119 172.416 19.734C172.538 19.8561 172.687 19.942 172.868 19.9917L172.755 20.3986L168.221 19.1418L168.334 18.7349C168.573 18.8027 168.727 18.7168 168.795 18.4727C168.826 18.3687 168.808 18.2331 168.749 18.0703C168.691 17.9075 168.614 17.7267 168.523 17.5233L167.199 14.241L164.192 16.4201C164.088 16.506 163.962 16.601 163.808 16.714C163.654 16.827 163.564 16.9401 163.528 17.0621C163.469 17.2746 163.582 17.4193 163.867 17.4961L163.754 17.903L159.604 16.7547L159.717 16.3478C160.001 16.4292 160.232 16.4608 160.408 16.4427C160.585 16.4247 160.784 16.3342 161.005 16.1715L166.349 12.2337L163.984 6.57349C163.822 6.17112 163.65 5.87727 163.478 5.69191C163.302 5.50655 163.071 5.37092 162.786 5.29406L162.899 4.88718L167.818 6.24798L167.696 6.65487Z" fill="white"/>
<path d="M191.205 28.0345L187.308 26.199L187.489 25.8192C187.701 25.9187 187.891 25.982 188.059 26.0091C188.226 26.0362 188.434 25.9729 188.682 25.8102L191.734 23.7803L190.242 14.9237C190.21 14.7383 190.116 14.5439 189.957 14.3495C189.799 14.1551 189.65 14.024 189.51 13.9562L189.691 13.5764L194.094 15.6516L193.913 16.0313C193.787 15.9726 193.655 15.9319 193.529 15.9138C193.398 15.8957 193.303 15.959 193.235 16.0991C193.19 16.1986 193.199 16.4518 193.262 16.8632L193.986 22.3019L198.389 19.3859C198.511 19.3045 198.638 19.2186 198.76 19.1191C198.882 19.0197 198.972 18.9157 199.026 18.8027C199.072 18.7032 199.049 18.6038 198.95 18.4953C198.855 18.3913 198.733 18.3008 198.592 18.2376L198.773 17.8578L202.67 19.6933L202.489 20.0731C202.277 19.9736 202.083 19.9329 201.911 19.9555C201.734 19.9781 201.572 20.0369 201.422 20.1409L191.716 26.5606C191.589 26.642 191.458 26.7234 191.314 26.8093C191.169 26.8952 191.069 26.9946 191.015 27.1077C190.97 27.2071 190.97 27.2976 191.015 27.3789C191.06 27.4603 191.187 27.5507 191.381 27.6411L191.205 28.0345Z" fill="white"/>
<path d="M37.2799 230.917C36.9996 231.252 36.9951 231.523 37.2664 231.731L36.9951 232.052L34.5448 229.981L34.816 229.66C35.0421 229.85 35.2952 229.782 35.5801 229.448L36.3938 228.48L27.3791 220.872L26.5653 221.839C26.285 222.174 26.2533 222.436 26.4839 222.626L26.2126 222.947L23.7623 220.881L24.0335 220.56C24.2867 220.795 24.5534 220.745 24.8337 220.41L26.9631 217.888L28.4098 219.108L36.9725 215.338C37.176 215.243 37.3613 215.157 37.5331 215.076C37.7049 214.994 37.827 214.908 37.9084 214.813C38.0078 214.696 38.0395 214.574 37.9943 214.456C37.9536 214.339 37.8903 214.226 37.8179 214.122L38.0892 213.801L41.3217 216.527L41.0504 216.848C40.9464 216.803 40.8379 216.762 40.7159 216.735C40.5983 216.708 40.4853 216.757 40.3723 216.889C40.2909 216.983 40.2321 217.097 40.1914 217.228C40.1508 217.359 40.1101 217.535 40.0603 217.761L37.9626 227.169L39.4093 228.39L37.2799 230.917ZM30.3312 220.74L35.675 225.248L37.7411 217.25L30.3312 220.74Z" fill="white"/>
<path d="M58.5466 231.27C58.637 231.125 58.6461 230.98 58.5828 230.836C58.515 230.691 58.3432 230.537 58.0629 230.365L51.6115 226.383L50.0879 228.851L53.9895 231.261C54.2562 231.423 54.4823 231.514 54.6722 231.532C54.862 231.55 55.0519 231.405 55.2418 231.098L55.5989 231.319L53.6821 234.425L53.3249 234.204C53.5148 233.896 53.56 233.657 53.4696 233.48C53.3746 233.304 53.1983 233.132 52.9316 232.97L49.03 230.56L47.3346 233.309L53.985 237.418C54.1839 237.54 54.3738 237.594 54.5591 237.581C54.7445 237.567 54.8846 237.477 54.9841 237.319L55.3413 237.54L53.6549 240.266L53.2978 240.045C53.4198 239.846 53.4289 239.692 53.3159 239.588C53.2074 239.484 53.0537 239.371 52.8547 239.249L43.5732 233.517L43.7947 233.159C43.8897 233.218 43.9891 233.236 44.0976 233.223C44.2061 233.209 44.3011 233.141 44.3734 233.019L49.9568 223.977C50.0291 223.86 50.0472 223.747 50.011 223.643C49.9749 223.539 49.9116 223.457 49.8166 223.399L50.0382 223.042L59.1208 228.652C59.4011 228.824 59.6226 228.901 59.7899 228.887C59.9572 228.869 60.0837 228.788 60.1742 228.643L60.5313 228.865L58.9083 231.491L58.5466 231.27Z" fill="white"/>
<path d="M63.0585 243.58C62.9997 243.707 62.9997 243.824 63.054 243.924C63.1082 244.028 63.1941 244.105 63.3071 244.154L63.1353 244.539L59.8079 243.033L59.9797 242.649C60.2916 242.789 60.5087 242.735 60.6217 242.477L65.007 232.798C65.1245 232.54 65.0251 232.346 64.7131 232.201L64.8895 231.817L68.2169 233.322L68.0451 233.706C67.9321 233.657 67.819 233.643 67.7015 233.666C67.5885 233.693 67.5026 233.77 67.4438 233.896L65.6083 237.947L71.5986 236.473C71.8743 236.392 72.0913 236.324 72.2541 236.27C72.4169 236.216 72.5118 236.152 72.5434 236.08C72.5887 235.981 72.5887 235.895 72.5434 235.822C72.4982 235.75 72.4349 235.696 72.349 235.655L72.5208 235.271L76.9966 237.301L76.8203 237.685C76.5626 237.567 76.2597 237.558 75.907 237.658L69.2341 239.34L71.3635 246.551C71.4494 246.849 71.5714 247.156 71.7297 247.473C71.8834 247.794 72.0687 248.042 72.2767 248.223L72.1049 248.608L68.1581 246.822L68.3299 246.438C68.5153 246.519 68.6283 246.514 68.6735 246.415C68.7052 246.343 68.678 246.144 68.5876 245.809L66.8425 239.959L64.4238 240.533L63.0585 243.58Z" fill="white"/>
<path d="M76.3773 249.76C76.5807 249.792 76.7616 249.742 76.9243 249.611C77.0871 249.48 77.2498 249.326 77.4216 249.15L84.2257 241.713C84.3884 241.55 84.5376 241.401 84.6687 241.261C84.7998 241.121 84.8857 240.994 84.9219 240.872C84.9671 240.723 84.949 240.601 84.8631 240.511C84.7772 240.42 84.6778 240.339 84.5693 240.275L84.6913 239.873L88.4754 241.03L88.3533 241.433C88.2403 241.433 88.1227 241.442 88.0007 241.46C87.8786 241.478 87.7927 241.573 87.743 241.736C87.7068 241.853 87.6978 241.984 87.7113 242.115C87.7249 242.251 87.7565 242.432 87.8017 242.658L89.6689 253.192C89.6915 253.377 89.7593 253.531 89.8588 253.644C89.9628 253.757 90.0848 253.874 90.225 254.001L90.1029 254.403L86.1652 253.196L86.2872 252.794C86.346 252.812 86.4274 252.812 86.5314 252.794C86.6353 252.776 86.6986 252.722 86.7258 252.636C86.771 252.487 86.771 252.274 86.7258 251.998L86.3822 250.081L80.9208 248.409L79.6279 249.751C79.3837 250.018 79.239 250.222 79.1984 250.353C79.1486 250.515 79.2662 250.642 79.5465 250.728L79.4244 251.13L76.2462 250.158L76.3773 249.76ZM86.0883 248.183L85.4825 243.445L82.1053 246.962L86.0883 248.183Z" fill="white"/>
<path d="M101.075 246.148L100.664 248.594L105.628 249.426C106.32 249.543 106.939 249.715 107.49 249.941C108.038 250.167 108.485 250.461 108.829 250.818C109.172 251.175 109.412 251.609 109.548 252.116C109.683 252.622 109.697 253.214 109.584 253.888C109.358 255.244 108.774 256.18 107.843 256.705C106.907 257.229 105.741 257.374 104.339 257.139L96.0977 255.755L96.1655 255.339C96.595 255.412 96.8346 255.308 96.8798 255.032L98.6384 244.552C98.6837 244.276 98.4938 244.1 98.0598 244.028L98.1276 243.612L108.286 245.316C108.517 245.352 108.707 245.375 108.856 245.375C109.005 245.375 109.091 245.307 109.118 245.172L109.534 245.239L109.028 248.264L108.612 248.196C108.657 247.934 108.616 247.73 108.49 247.581C108.363 247.432 108.187 247.342 107.956 247.301L101.075 246.148ZM103.901 254.883C104.868 255.045 105.596 254.982 106.08 254.693C106.564 254.403 106.853 253.965 106.952 253.377C107.052 252.794 106.907 252.337 106.528 252.012C106.148 251.686 105.47 251.442 104.502 251.279L100.325 250.579L99.719 254.182L103.901 254.883Z" fill="white"/>
<path d="M115.678 258.549L115.696 258.129C116.275 258.151 116.569 258.02 116.578 257.74L116.966 247.12C116.976 246.84 116.695 246.691 116.117 246.668L116.13 246.248L124.363 246.546C125.859 246.6 127.026 246.921 127.867 247.504C128.703 248.088 129.101 249.046 129.051 250.371C129.001 251.695 128.54 252.622 127.663 253.142C126.786 253.662 125.597 253.897 124.101 253.843L119.399 253.671L119.245 257.835C119.236 258.115 119.48 258.264 119.977 258.282L119.964 258.703L115.678 258.549ZM124.458 251.704C124.973 251.722 125.416 251.637 125.791 251.447C126.167 251.257 126.361 250.868 126.384 250.276C126.406 249.684 126.234 249.281 125.877 249.064C125.52 248.847 125.082 248.73 124.566 248.711L119.584 248.531L119.476 251.524L124.458 251.704Z" fill="white"/>
<path d="M142.578 250.249C143.278 250.185 143.92 250.194 144.508 250.276C145.096 250.357 145.602 250.524 146.023 250.787C146.448 251.044 146.787 251.402 147.049 251.858C147.311 252.31 147.469 252.88 147.533 253.567C147.655 254.937 147.334 255.99 146.561 256.732C145.788 257.473 144.698 257.912 143.283 258.038L134.96 258.793L134.924 258.373C135.358 258.332 135.566 258.174 135.539 257.894L134.58 247.31C134.553 247.03 134.322 246.912 133.888 246.948L133.852 246.528L137.767 246.171L137.804 246.591C137.401 246.627 137.211 246.786 137.234 247.066L137.564 250.701L142.578 250.249ZM142.297 255.959C143.278 255.868 143.961 255.624 144.359 255.222C144.752 254.819 144.924 254.322 144.87 253.73C144.816 253.142 144.562 252.735 144.115 252.518C143.663 252.301 142.948 252.238 141.972 252.324L137.754 252.704L138.084 256.338L142.297 255.959Z" fill="white"/>
<path d="M183.926 248.264L183.664 248.359C183.605 248.196 183.506 248.133 183.361 248.169C183.216 248.205 183.063 248.25 182.905 248.309L173.637 251.655C173.474 251.713 173.347 251.772 173.252 251.831C173.157 251.89 173.135 251.985 173.18 252.116L172.918 252.211L172.633 251.42C172.353 250.642 172.307 249.905 172.493 249.204C172.678 248.508 172.99 247.839 173.424 247.202C173.858 246.564 174.355 245.963 174.911 245.393C175.472 244.828 175.987 244.281 176.458 243.752C176.928 243.223 177.299 242.721 177.57 242.242C177.837 241.763 177.886 241.297 177.724 240.841C177.61 240.533 177.452 240.303 177.24 240.158C177.027 240.009 176.792 239.914 176.525 239.869C176.259 239.823 175.987 239.828 175.707 239.878C175.427 239.927 175.16 240 174.911 240.09C174.663 240.18 174.369 240.334 174.034 240.556C173.7 240.777 173.392 241.035 173.121 241.333C172.845 241.632 172.633 241.944 172.479 242.274C172.325 242.604 172.303 242.92 172.416 243.232C172.443 243.304 172.493 243.395 172.574 243.499C172.651 243.603 172.728 243.666 172.805 243.689L172.642 243.924L169.5 242.323L169.663 242.088C169.73 242.097 169.803 242.106 169.871 242.111C169.938 242.12 170.011 242.111 170.083 242.084C170.173 242.052 170.291 241.885 170.449 241.577C170.603 241.27 170.838 240.913 171.155 240.501C171.471 240.09 171.896 239.661 172.434 239.218C172.972 238.774 173.664 238.399 174.518 238.092C175.074 237.888 175.648 237.757 176.232 237.698C176.815 237.635 177.366 237.676 177.891 237.811C178.411 237.947 178.881 238.191 179.301 238.544C179.722 238.901 180.047 239.398 180.278 240.045C180.527 240.737 180.603 241.356 180.504 241.907C180.404 242.459 180.196 242.97 179.875 243.44C179.554 243.91 179.166 244.358 178.7 244.774C178.234 245.19 177.76 245.606 177.271 246.022C176.783 246.437 176.322 246.858 175.883 247.283C175.449 247.708 175.097 248.174 174.835 248.684L174.916 248.906L182.181 246.284C182.344 246.225 182.484 246.144 182.602 246.031C182.719 245.922 182.728 245.719 182.62 245.425L182.882 245.33L183.926 248.264Z" fill="white"/>
<path d="M189.157 231.794C189.966 231.387 190.794 231.148 191.639 231.075C192.485 231.003 193.294 231.084 194.067 231.324C194.84 231.564 195.55 231.952 196.192 232.481C196.834 233.015 197.363 233.693 197.774 234.516C198.185 235.339 198.416 236.166 198.457 237.002C198.497 237.834 198.384 238.63 198.109 239.389C197.833 240.149 197.412 240.836 196.838 241.455C196.269 242.075 195.577 242.586 194.768 242.993C193.958 243.399 193.136 243.644 192.299 243.734C191.463 243.824 190.658 243.748 189.885 243.517C189.112 243.282 188.407 242.902 187.765 242.369C187.123 241.835 186.594 241.157 186.182 240.334C185.771 239.511 185.54 238.684 185.5 237.848C185.459 237.016 185.572 236.216 185.843 235.452C186.115 234.688 186.53 233.991 187.096 233.358C187.661 232.716 188.348 232.201 189.157 231.794ZM190.057 233.593C189.569 233.838 189.166 234.163 188.845 234.57C188.524 234.977 188.298 235.424 188.172 235.917C188.045 236.41 188.009 236.934 188.068 237.486C188.126 238.042 188.294 238.589 188.565 239.136C188.836 239.679 189.18 240.144 189.587 240.524C189.994 240.904 190.437 241.189 190.907 241.383C191.377 241.573 191.874 241.663 192.39 241.65C192.905 241.636 193.407 241.505 193.895 241.261C194.383 241.017 194.786 240.691 195.107 240.284C195.428 239.878 195.654 239.43 195.78 238.937C195.907 238.444 195.943 237.92 195.884 237.368C195.826 236.812 195.658 236.265 195.387 235.718C195.116 235.171 194.772 234.715 194.365 234.335C193.958 233.955 193.515 233.67 193.045 233.476C192.575 233.286 192.082 233.196 191.562 233.209C191.051 233.218 190.545 233.349 190.057 233.593Z" fill="white"/>
<path d="M214.999 231.175L214.764 231.328C214.669 231.184 214.556 231.148 214.425 231.215C214.294 231.283 214.153 231.365 214.009 231.46L205.785 236.889C205.641 236.984 205.532 237.07 205.451 237.151C205.374 237.233 205.374 237.328 205.451 237.445L205.216 237.599L204.75 236.894C204.293 236.202 204.076 235.497 204.094 234.773C204.112 234.05 204.257 233.327 204.528 232.608C204.8 231.885 205.139 231.184 205.55 230.501C205.961 229.818 206.332 229.167 206.667 228.544C207.001 227.92 207.245 227.345 207.39 226.817C207.539 226.288 207.476 225.822 207.209 225.42C207.028 225.148 206.82 224.963 206.581 224.868C206.341 224.773 206.088 224.737 205.817 224.755C205.55 224.773 205.283 224.841 205.026 224.958C204.763 225.076 204.524 225.207 204.302 225.352C204.081 225.496 203.832 225.718 203.561 226.012C203.285 226.306 203.05 226.627 202.856 226.984C202.661 227.336 202.526 227.694 202.453 228.051C202.381 228.408 202.435 228.724 202.616 228.996C202.661 229.059 202.734 229.136 202.833 229.217C202.932 229.299 203.023 229.344 203.1 229.348L202.996 229.615L199.564 228.797L199.668 228.53C199.736 228.521 199.808 228.512 199.876 228.507C199.944 228.498 200.012 228.471 200.08 228.431C200.157 228.381 200.238 228.186 200.315 227.852C200.396 227.517 200.541 227.115 200.749 226.64C200.957 226.166 201.273 225.65 201.689 225.094C202.105 224.538 202.693 224.009 203.448 223.512C203.941 223.186 204.465 222.924 205.021 222.725C205.573 222.531 206.12 222.436 206.658 222.445C207.196 222.454 207.711 222.58 208.199 222.829C208.688 223.078 209.122 223.485 209.501 224.059C209.904 224.669 210.125 225.257 210.157 225.813C210.189 226.373 210.107 226.916 209.908 227.449C209.709 227.983 209.434 228.507 209.081 229.018C208.728 229.529 208.362 230.049 207.987 230.569C207.612 231.089 207.259 231.604 206.933 232.12C206.608 232.635 206.377 233.168 206.242 233.725L206.373 233.919L212.82 229.66C212.964 229.565 213.077 229.452 213.168 229.317C213.258 229.181 213.218 228.987 213.046 228.724L213.281 228.571L214.999 231.175Z" fill="white"/>
<path d="M228.801 219.99L228.584 220.171C228.476 220.04 228.358 220.017 228.232 220.098C228.11 220.18 227.983 220.279 227.852 220.392L220.329 226.758C220.198 226.871 220.099 226.97 220.031 227.056C219.963 227.147 219.977 227.241 220.067 227.35L219.854 227.531L219.312 226.889C218.778 226.256 218.476 225.582 218.408 224.863C218.34 224.145 218.399 223.412 218.584 222.662C218.769 221.911 219.023 221.174 219.348 220.451C219.674 219.723 219.967 219.031 220.225 218.371C220.483 217.711 220.655 217.11 220.741 216.572C220.822 216.03 220.709 215.577 220.397 215.207C220.184 214.958 219.954 214.8 219.705 214.732C219.457 214.669 219.199 214.66 218.937 214.709C218.674 214.759 218.417 214.859 218.173 215.003C217.929 215.148 217.702 215.306 217.504 215.478C217.3 215.65 217.083 215.898 216.843 216.219C216.608 216.54 216.409 216.893 216.26 217.268C216.107 217.644 216.016 218.01 215.984 218.376C215.953 218.738 216.043 219.045 216.256 219.294C216.305 219.352 216.387 219.42 216.495 219.488C216.608 219.56 216.699 219.592 216.78 219.588L216.708 219.863L213.204 219.456L213.276 219.181C213.344 219.163 213.412 219.149 213.48 219.131C213.548 219.113 213.611 219.081 213.67 219.031C213.742 218.973 213.796 218.769 213.837 218.43C213.878 218.091 213.973 217.671 214.122 217.173C214.276 216.676 214.524 216.129 214.872 215.523C215.22 214.922 215.74 214.33 216.432 213.742C216.884 213.358 217.372 213.037 217.897 212.774C218.421 212.512 218.955 212.354 219.488 212.3C220.026 212.245 220.551 212.309 221.066 212.499C221.581 212.684 222.061 213.041 222.504 213.566C222.978 214.126 223.263 214.682 223.363 215.229C223.462 215.781 223.444 216.332 223.308 216.884C223.173 217.436 222.96 217.992 222.671 218.543C222.382 219.095 222.079 219.651 221.767 220.211C221.455 220.772 221.166 221.328 220.908 221.875C220.646 222.422 220.483 222.983 220.41 223.552L220.56 223.729L226.455 218.738C226.586 218.625 226.686 218.498 226.762 218.358C226.835 218.213 226.771 218.023 226.568 217.784L226.781 217.603L228.801 219.99Z" fill="white"/>
</svg>
