<svg version="1.2" xmlns="http://www.w3.org/2000/svg" viewBox="0 0 250 260" width="250" height="260"><style>.a{fill:#fff}</style><path class="a" d="m127.6 132.3v7.1h-5.5v-6.1c0-0.6-0.5-1.2-1.2-1.2h-4c-0.6 0-1.1 0.6-1.1 1.2v23.8c0 0.6 0.5 1.1 1.1 1.1h4c0.7 0 1.2-0.5 1.2-1.1v-5.8h5.5v6.8c0 2.9-2.3 5.2-5.2 5.2h-7.2c-3 0-5.2-2.2-5.2-5.2v-25.8c0-2.8 2.4-5.2 5.2-5.2h7.2c2.9 0 5.2 2.4 5.2 5.2z"/><path class="a" d="m146.1 139.4h-5.3v23.9h-5.6v-23.9h-5.4v-5.1h16.3z"/><path class="a" d="m62.2 134.3h5v29h-5.6v-15.5h-0.5l-6.1 15.5h-4.9v-29h5.6v16.3h0.5z"/><path class="a" d="m40.5 127.1l6.7 36.2h-5.9l-4.8-30.3h-0.6l-4.6 30.3h-5.9l6.8-36.2z"/><path fill-rule="evenodd" class="a" d="m159.7 134.3l6 29.1h-5.6l-0.7-3.8h-7.4l-0.7 3.8h-5.6l6.1-29.1zm-1.2 20.5l-2.6-15.4h-0.5l-2.6 15.4z"/><path fill-rule="evenodd" class="a" d="m96.5 134.3l6 29.1h-5.6l-0.7-3.8h-7.5l-0.7 3.8h-5.6l6.1-29.1zm-1.1 20.5l-2.6-15.4h-0.5l-2.6 15.4z"/><path class="a" d="m84 139.4h-7.1v23.9h-5.5v-29h12.6z"/><path fill-rule="evenodd" class="a" d="m188.2 139.3c0-2.7 2.2-5 5-5h6.6c2.7 0 5 2.3 5 5v19.1c0 2.7-2.3 5-5 5h-6.6c-2.8 0-5-2.3-5-5zm5.6 17.8c0 0.6 0.4 1 1 1h3.4c0.6 0 1-0.4 1-1v-16.7c0-0.6-0.4-1-1-1h-3.4c-0.6 0-1 0.4-1 1z"/><path class="a" d="m250 83.3v80.1h-15.4v-65.5h-219.2v65.5h-15.4v-80.1z"/><path class="a" d="m220.3 148.8l6.5 14.6h-6l-5.2-11.9h-1.1v11.9h-5.6v-29.1h5.6v12.4h0.9l5.1-12.4h6z"/><path fill-rule="evenodd" class="a" d="m184.9 154v4.1c0 2.9-2.4 5.2-5.3 5.2h-11v-29h10.8c2.9 0 5.2 2.4 5.2 5.2v4.5c0 2.3-1.6 4.2-3.8 4.6v0.6c2.3 0.4 4.1 2.4 4.1 4.8zm-10.7-7.3h3.7c0.6 0 1.1-0.6 1.1-1.2v-4.9c0-0.6-0.5-1.2-1.1-1.2h-3.7zm5.1 6c0-0.6-0.5-1.1-1.2-1.1h-4v6.7h4c0.7 0 1.2-0.5 1.2-1.1z"/><path class="a" d="m115.3 194.2v2.9q0 0-0.1 0c-1.2 0.1-2.5 0.1-3.7-0.2q-0.5-0.1-0.8 0.1c-0.6 0.2-1.1 0.3-1.7 0-0.3-0.2-0.6-0.2-1-0.1q-0.4 0.2-0.9 0.3c-0.8 0.3-1.6 0.3-2.4 0.1-0.8-0.3-1.6-0.3-2.3-0.1-1 0.3-1.9 0.2-2.9 0.2-0.4-0.1-0.9-0.1-1.4 0-1.9 0.3-3.9 0.3-5.8-0.2q-0.8-0.2-1.5 0.1c-1 0.3-2.1 0.3-3.2 0.2-1.4-0.1-2.7-0.1-4.1 0.1-0.8 0.2-1.6 0.1-2.3-0.1-0.6-0.3-1.4-0.3-2.1-0.1-0.4 0.1-0.7 0.1-1.1 0.1q-0.7-0.1-1.4 0-0.4 0-0.8 0.1c-0.6 0-1-0.4-1.6-0.3-0.5 0.1-0.9 0.3-1.5 0.2-0.2-0.1-0.5 0-0.7 0-0.6 0.2-1.2 0.2-1.8 0-0.7-0.3-1.5-0.2-2.1 0.1-0.3 0.1-0.6 0.1-1 0.1-0.2-0.1-0.5-0.1-0.7-0.2-0.7-0.2-1.3-0.2-2 0.1-0.2 0.1-0.6 0.1-1 0.1-0.8-0.2-1.6-0.2-2.5-0.1-1.7 0-3.4 0-5.1-0.2-0.6-0.1-1.2 0-1.8 0.1-0.7 0-1.5 0.1-2.3 0-0.3-0.1-0.7-0.1-1 0q-0.8 0.2-1.4 0c-0.6-0.2-1-0.3-1.7 0-0.3 0.1-0.7-0.1-1-0.1-0.7-0.1-1.4-0.1-2.1 0q-2.8 0.3-5.5-0.1c-1.5-0.2-3.1-0.3-4.8-0.2-1.1 0.1-2.3 0.1-3.4 0.2q-1.9 0.2-3.2-0.4c-0.6-0.2-1.1-0.5-1.6-0.7-0.3-0.2-0.3-0.4 0.1-0.5 0.8-0.2 1.2-0.5 1.4-0.8 0.1-0.4 0.7-0.6 1.4-0.6 1.1-0.1 2.3-0.3 3.5-0.1 0.2 0 0.5 0.1 0.7 0 1.4-0.1 2.8 0.1 4.2 0.2 0.2 0 0.5 0 0.7 0 1.3 0.4 2.7 0.2 4.1 0.2 0.2-0.1 0.6-0.1 0.7-0.1 0.6 0.4 1.3 0.2 1.9 0.1 0.6 0 1.1-0.1 1.5 0.2 0.2 0.1 0.4 0 0.6 0 0.3-0.2 0.7-0.2 1-0.2 0.7 0.2 1.3 0.1 2 0.1 0.7-0.1 1.3 0 1.9 0.1 0.6 0.2 1.1 0.2 1.6 0.1 0.5-0.1 0.9-0.2 1.4-0.2 0.8-0.1 1.4-0.1 2 0.2 0.1 0.1 0.3 0.2 0.6 0.1 0.9-0.3 2.1 0.1 3.1-0.2 0.4-0.2 0.9-0.2 1.4-0.1 0.5 0.2 1 0.2 1.5 0.1 0.9 0 1.8 0.1 2.7 0.1 1.1 0 2.2 0 3.3-0.2 0.7-0.1 1.5-0.1 2.3-0.1 0.8 0.1 1.6 0.2 2.5 0 0 0 0.1 0 0.1 0 1 0.3 2 0.1 3 0 0.3 0 0.7 0 0.9 0.1 0.8 0.1 1.4 0.1 2.1 0 0.3-0.1 0.6-0.1 0.9 0q1.1 0.2 2.1 0c0.6-0.1 1.2-0.1 1.6 0.2 0.2 0.1 0.4 0.1 0.6 0q0.9-0.4 2-0.2 0.6 0.1 1.3 0.1c1.7-0.2 3.5-0.3 5.2-0.1 0.2 0 0.4 0.1 0.5 0 0.8-0.1 1.4-0.1 2 0.2 0.2 0.1 0.5 0.1 0.7 0 1.2-0.4 2.5-0.3 3.8-0.2 0.3 0 0.6 0.1 0.9 0 0.5-0.1 1-0.1 1.6-0.1q0.9 0 1.7-0.2c0.5-0.2 1-0.2 1.5 0 0.2 0.1 0.6 0.1 0.9 0 1.8-0.2 3.7-0.3 5.5-0.1 0.5 0.1 0.9 0.1 1.3 0q0.5 0 1-0.1z"/><path class="a" d="m222.5 196.1c-0.5 0.2-0.9 0.3-1 0.7-0.1 0.2-1.1 0.3-1.5 0.2-0.9-0.4-2.1-0.1-3-0.4-0.1 0-0.4 0.1-0.6 0.1-0.4 0.1-0.8 0.1-1.1 0.1-0.5-0.1-1.1-0.1-1.6-0.2-1-0.1-2.1-0.2-3.2-0.1-0.3 0-0.6-0.1-0.8-0.1-0.9-0.2-1.7-0.4-2.5 0-0.2 0.1-0.5 0.1-0.7 0.1-0.7-0.2-1.3-0.2-2 0-0.4 0-0.9 0-1.4-0.1-1.1-0.1-2.3-0.1-3.4-0.1-0.9 0.1-1.7 0.1-2.6 0-0.4 0-0.8 0-1.2 0.1-0.7 0.2-1.5 0.3-2.2 0.1-0.9-0.2-1.9-0.1-2.9-0.2q-0.2 0-0.5 0c-1.4 0.2-2.3 0.2-3.5 0.1-0.4-0.1-0.8 0-1.2 0.1q-0.5 0.1-0.9 0c-0.4-0.2-0.8-0.2-1.2-0.1-1.1 0.2-2.3 0.2-3.4 0-1.2-0.2-2.4-0.1-3.6 0.1-0.8 0.1-3.3 0.1-4.3 0-0.9-0.2-1.9-0.2-2.8 0-1 0.1-1.9 0.1-2.9 0.1-1.2 0-2.4 0-3.6 0.1-0.5 0-1 0.1-1.4-0.1-0.4-0.2-0.8-0.2-1.2-0.1-0.2 0.1-0.5 0.2-0.7 0.2-1.5-0.1-2.9 0.3-4.4 0.3-1.2-0.1-2.4-0.1-3.6-0.3-0.8-0.1-1.5-0.1-2.2 0.2-0.9 0.3-2 0.3-3 0-0.4-0.1-0.8-0.2-1.2-0.1-0.9 0.2-1.7 0.1-2.5 0-0.3-0.1-0.6-0.2-0.8-0.1-0.7 0.4-1.3 0.3-2 0.1-0.4-0.1-0.8 0-1.2 0.1-0.5 0.1-0.9 0-1.4 0-1.3-0.1-2.6-0.2-3.9 0.1v-2.6q0.2 0.1 0.5 0c0.5-0.1 1.1-0.2 1.6-0.3 0.5-0.1 0.9-0.1 1.4 0q0.1 0 0.2 0c0.9 0.2 1.9-0.1 2.9 0.1 0.8 0.2 1.7 0.1 2.6-0.1q0.7-0.1 1.2 0.1c0.6 0.3 1.3 0.3 2.2 0.2 0.8-0.1 1.7-0.3 2.6-0.1 0.3 0 0.5-0.1 0.7-0.2 0.3-0.2 0.7-0.2 1-0.1 0.5 0.1 0.9 0.2 1.4 0.1 1.4-0.2 2.7-0.1 4 0.1 0.5 0.1 0.9 0.1 1.4-0.1 0.4-0.3 1.2-0.2 1.7-0.2 0.5 0.1 0.8 0 1.1-0.2 0.2-0.1 0.7 0 0.8 0.2 0.4 0.6 0.6 0.7 1.6 0.2 0.4-0.1 0.7-0.2 1.2-0.1q0.6 0 1.2 0.1c0.4 0 0.5-0.1 0.7-0.2 0.7-0.4 1.6-0.5 2.5-0.2 0.4 0.1 0.8 0.3 1.3 0 0-0.1 0.3-0.1 0.5-0.1q0.3 0.1 0.5 0.1c0.9 0.3 1.8 0.3 2.7 0 0.8-0.2 1.8 0 2.7 0 0.4 0 0.7 0 1-0.1 0.7-0.2 1.5-0.2 2.2-0.1 0.9 0.1 1.7 0.2 2.5 0 0.1-0.1 0.4-0.1 0.5 0 0.7 0.1 1.5 0 2.1 0.2 0.7 0.2 1.5-0.1 2.2 0 0.6 0.2 1.3 0.2 1.9 0.3q0.1 0 0.2 0c0.9-0.3 2.1-0.2 3.1-0.4 1-0.2 1.2-0.1 2 0.3 0.1 0.1 0.2 0.1 0.2 0.2 0.5-0.1 0.6-0.2 0.9-0.3 0.1 0 0.4-0.1 0.4-0.1 0.7 0.2 1.3 0.1 1.9-0.1 0.1 0 0.4 0.1 0.6 0.1 0.2 0 0.4 0.1 0.5 0 0.7-0.4 1.3-0.1 2 0 0.5 0.1 1 0.1 1.5-0.1q1-0.3 2.1-0.1c0.4 0.1 0.8 0.2 1.2 0.2 0.2 0.1 0.5 0.1 0.7 0 0.6-0.2 1.2-0.2 1.9 0q0.7 0.2 1.4 0 0.4-0.1 0.8 0c0.5 0 0.7 0.4 1.4 0.2 0.6-0.1 1.1 0 1.5 0.2 0.2 0 0.5 0 0.5-0.1 0.5-0.3 1-0.2 1.6-0.1 0.3 0.1 0.8 0.2 1.2 0.1q1-0.2 1.8 0.1c0.5 0.2 1 0.2 1.7 0.1 0.6-0.1 1.4 0 2.1-0.1 0.2 0 0.4 0.1 0.4 0.2 0 0.1 0 0.3 0.1 0.5 0 0.2 0.2 0.4 0.6 0.5 0.8 0.2 0.9 0.6 0.2 0.8z"/><path fill-rule="evenodd" class="a" d="m124.4 190.7q0 0 0.1-0.1 0.1-0.6 0.3-1.2 0.1-0.2 0.1-0.4 0.2-0.6 0.4-1.1 0.2-0.7 0.4-1.4 0.1-0.1 0.2-0.3c0 0 0 0 0.1 0q0 0 0 0.1 0.1 0.2 0 0.4-0.2 0.7-0.5 1.5c-0.2 0.6-0.4 1.2-0.6 1.9q-0.1 0.5-0.3 1-0.1 0.2 0.1 0.4 0.2 0.4 0.4 0.8 0 0.1 0.1 0.2c0.2 0.4 0.2 0.3 0.5 0.2 0.2-0.1 0.5-0.3 0.7-0.3 0.2-0.1 0.4-0.2 0.6-0.3 0.1 0 0.2-0.1 0.2-0.2q0.2-0.6 0.3-1.1 0.3-1 0.7-2 0-0.2 0.1-0.4 0-0.1 0.1-0.1c0.1 0 0.1 0.1 0.1 0.2q0.1 0.2 0 0.3-0.4 0.9-0.6 1.9-0.2 0.4-0.3 0.9c0.2-0.1 0.2-0.1 0.4-0.2q0.8-0.9 1.6-1.7 0.2-0.1 0.3-0.3 0.1 0 0.2 0 0.1 0.1 0 0.2 0 0.1-0.1 0.2-0.7 0.7-1.5 1.4c-0.2 0.3-0.5 0.6-0.8 0.9 0.1 0.1 0.1 0 0.2 0 0.3-0.1 0.6-0.2 0.9-0.3 0.4-0.2 0.9-0.3 1.3-0.5q0.5-0.2 1-0.5 0 0 0.1 0c0.1 0 0.3 0 0.3 0.1 0 0-0.1 0.2-0.2 0.2q-0.6 0.3-1.2 0.5-0.8 0.3-1.5 0.6-0.3 0.1-0.7 0.2c-0.2 0.1-0.4 0.2-0.5 0.4-0.1 0.3-0.3 0.6-0.5 0.8q0 0-0.1 0-0.1 0.4-0.4 0.6-0.1 0.2 0.1 0.2c0.5 0.2 1 0.4 1.6 0.5q0.1 0 0.2 0 0.4 0 0.8-0.1 0.6-0.2 1.3-0.4 0 0 0.1-0.1c0.6-0.1 1.1-0.3 1.7-0.5q0.1 0 0.3-0.1 0.1 0 0.2 0 0.1 0.1 0.1 0.2 0 0-0.1 0 0 0.1-0.1 0.1-0.6 0.2-1.1 0.4-0.2 0-0.4 0.1-0.7 0.2-1.3 0.4c-0.1 0-0.3 0-0.4 0.1 0.1 0.1 0.2 0.1 0.2 0.1q1.5 0 3.1 0c0.1 0 0.3 0 0.5 0 0 0.1 0.1 0.1 0.1 0.1q-0.1 0.1-0.1 0.1c-0.1 0.1-0.2 0.1-0.3 0.1-1 0-2 0-3 0q0 0 0.1 0 1 0.4 2.1 0.8 0.2 0 0.2 0.1 0.1 0.1 0 0.1c0 0.1 0 0.1 0 0.1q-0.3-0.1-0.6-0.1-0.7-0.3-1.5-0.5-0.6-0.3-1.3-0.5c-0.2 0-0.4 0-0.6 0.1-0.3 0.3-0.7 0.6-1.2 0.8-0.1 0.1-0.1 0.2-0.1 0.4q0.2 0.4 0.3 0.9 0 0.2 0.2 0.3 0.2 0.2 0.5 0.3 0.7 0.4 1.4 0.8c0.2 0.1 0.6 0.3 0.8 0.4q0.4 0.2 0.8 0.4 0 0 0.1 0.2c0 0-0.1 0.1-0.2 0.1q-0.1 0-0.1-0.1c-0.6-0.3-1.2-0.5-1.8-0.9-0.4-0.2-0.8-0.4-1.2-0.6 0 0.1 0 0.1 0.1 0.1q1.2 1.2 2.4 2.5 0 0 0.1 0.1 0.1 0.1 0 0.2-0.1 0-0.2 0-0.1-0.1-0.2-0.1-0.7-0.8-1.4-1.5-0.3-0.3-0.6-0.6-0.1-0.1-0.3-0.3c-0.1 0.1 0 0.1 0 0.2q0.2 0.5 0.3 1c0.1 0.2 0.2 0.5 0.3 0.7q0.1 0.5 0.3 0.9 0 0.1 0 0.1 0 0.1-0.1 0.2-0.1 0-0.1-0.1-0.1-0.1-0.1-0.2-0.3-0.9-0.6-1.8-0.3-0.6-0.5-1.2c0-0.2-0.4-0.6-0.6-0.7q-0.6-0.2-1.1-0.5-0.1 0-0.1 0-0.1-0.1-0.2 0-0.2 0.5-0.4 0.9c-0.1 0.2-0.2 0.4-0.2 0.5 0 0.2 0.2 0.4 0.2 0.5q0.4 0.9 0.8 1.8c0.2 0.5 0.4 1 0.7 1.5q0 0 0 0.1c0 0.1 0 0.1-0.1 0.1q-0.1 0.1-0.1 0-0.1 0-0.2-0.2-0.3-0.9-0.7-1.7-0.2-0.3-0.3-0.7c-0.1-0.3-0.2-0.5-0.4-0.8q0-0.1-0.1 0 0 0 0 0 0 0.2 0 0.3c0 0.4 0 0.8 0 1.1 0 0.2 0 0.3 0 0.5q0 0.6 0 1.2c0 0.1 0 0.2 0 0.3q-0.1 0.1-0.2 0.1-0.1 0-0.1-0.1 0-0.1 0-0.2 0-0.2 0-0.4 0-1 0-1.9c0-0.1 0-0.2-0.1-0.2-0.1 0.1-0.1 0.2-0.1 0.3-0.2 0.5-0.3 1-0.4 1.5-0.1 0.3-0.3 0.7-0.4 1q0 0.1-0.1 0.1-0.1 0-0.1-0.1 0-0.2 0-0.3c0.3-0.6 0.3-1.2 0.5-1.8 0.2-0.4 0.3-0.8 0.4-1.2q0.1-0.2 0.2-0.4 0-0.1 0-0.3-0.2-0.6-0.4-1.3-0.1-0.1-0.2-0.1-0.8 0.3-1.6 0.5c-0.3 0.1-0.4 0.3-0.5 0.6q-0.5 1.4-0.8 2.9 0 0.1 0 0.2-0.1 0.1-0.1 0.2 0 0.1-0.1 0.1c-0.1 0-0.1-0.1-0.1-0.1q-0.1-0.1 0-0.2 0.1-0.6 0.2-1.1 0.2-0.7 0.4-1.4 0-0.2 0.1-0.3 0-0.1 0-0.1-0.1 0-0.1 0-0.2 0.2-0.4 0.5c-0.5 0.5-1.1 1.1-1.7 1.6q-0.1 0.1-0.2 0.3-0.1 0.1-0.2 0.1-0.1 0-0.2 0 0-0.1 0-0.2 0.1-0.1 0.2-0.1 0.7-0.8 1.4-1.5 0.5-0.5 1-1.1 0 0 0 0c-0.1 0-0.2 0.1-0.3 0.1-0.4 0.3-0.8 0.5-1.3 0.7q-0.5 0.3-1 0.5-0.1 0.1-0.3 0.2-0.1 0.1-0.2 0.1c-0.1 0-0.2-0.1-0.1-0.1q0-0.1 0.1-0.2 0.2-0.1 0.5-0.3 0.7-0.3 1.3-0.7c0.4-0.2 0.8-0.4 1.2-0.6q0.2-0.1 0.4-0.2c0.3-0.2 0.5-0.5 0.6-0.8q0.2-0.5 0.5-0.9 0.1-0.2-0.1-0.2-0.6-0.3-1.3-0.5-0.2 0-0.3 0.1-0.5 0.2-1 0.4-1 0.4-2 0.9-0.3 0.1-0.6 0.2-0.1 0.1-0.2 0.1c-0.1 0-0.2 0.1-0.2 0-0.1-0.1 0-0.3 0.1-0.3 0.3-0.1 0.5-0.2 0.8-0.3q0.2-0.1 0.5-0.2 0.9-0.4 1.8-0.8c0.1-0.1 0.3-0.1 0.3-0.2-0.1-0.1-0.2-0.1-0.3-0.1q-0.8 0-1.6 0-0.7 0-1.4 0 0 0.1-0.1 0.1c-0.1-0.1-0.2-0.1-0.2-0.2q0-0.1 0.2-0.2 0.2 0 0.5 0c0.6 0.1 1.1 0 1.7 0 0.2 0 0.3 0.1 0.5 0-0.1-0.1-0.3-0.1-0.4-0.2q-0.7-0.2-1.3-0.4-0.6-0.1-1.1-0.3c-0.1-0.1-0.2-0.1-0.1-0.2 0-0.1 0.1-0.1 0.1-0.1q0.1 0.1 0.3 0.1 0.4 0.2 0.9 0.3 0.7 0.1 1.4 0.4 0.5 0.1 1 0.3 0.3 0.1 0.6 0 0.6-0.2 1.1-0.4 0.1 0 0.2-0.1c0.2 0 0.2-0.1 0.1-0.2q-0.3-0.5-0.5-1c-0.1-0.2-0.2-0.4-0.3-0.5q-0.1-0.2-0.2-0.2-1-0.4-2-0.8-0.7-0.3-1.4-0.6-0.2 0-0.3-0.1-0.2 0-0.3-0.1 0-0.1 0-0.1c0-0.1 0.1-0.1 0.1-0.1q0.2-0.1 0.3 0 0.8 0.4 1.7 0.7 0.3 0.1 0.5 0.2 0.5 0.2 0.9 0.4c0.1 0 0.2 0 0.3 0q-0.2-0.3-0.5-0.5-0.9-0.9-1.8-1.9-0.1 0-0.1-0.1-0.1-0.1 0-0.2 0.1 0 0.2 0 0.1 0.1 0.3 0.3 0.8 0.8 1.7 1.7c0 0 0-0.1 0-0.1q-0.4-0.9-0.9-1.7c-0.2-0.3-0.3-0.6-0.5-1q0 0 0-0.1 0.1 0 0.2 0 0.1 0.1 0.1 0.2c0.2 0.5 0.6 1 0.9 1.5q0.3 0.7 0.6 1.3 0.1 0.2 0.2 0.5 0.1 0.2 0.4 0.3 0.5 0.2 1 0.4c0.2 0 0.4 0 0.5 0q0.1 0 0.2-0.1 0.3-0.5 0.6-1c0.1-0.2 0-0.3 0-0.5q-0.2-1.1-0.6-2.2c0-0.1 0-0.3-0.1-0.4q-0.1-0.6-0.3-1.2-0.1-0.2-0.2-0.5 0-0.1 0-0.2 0 0 0.1-0.1 0.1 0 0.1 0.1 0.1 0.1 0.1 0.1c0.1 0.6 0.4 1.1 0.5 1.6 0.1 0.6 0.3 1.1 0.5 1.6q0 0 0 0.1 0.1-0.8 0.1-1.6 0-1 0-2 0-0.1 0-0.2c0-0.1 0-0.1 0.1-0.1q0.1 0 0.1 0.1c0.1 0.1 0.1 0.2 0.1 0.3 0 1.3-0.1 2.6-0.1 4q0 0.1 0 0.2 0.1 0 0.1 0zm2.1 2.1q0 0 0 0 0 0 0 0 0 0 0 0 0 0 0 0zm-0.6 0.2q-0.3 0.1-0.5 0.2-0.2 0.1-0.3-0.1 0-0.1-0.1-0.1c-0.1-0.3-0.2-0.5-0.4-0.8 0-0.1-0.1-0.2-0.2-0.2-0.1 0 0 0.2 0 0.3q-0.1 0.1-0.1 0.2c0 0.7 0.1 1.5 0.1 2.2q0 0 0 0.1 0 0 0 0 0.1 0 0.1 0 0.1 0 0.1-0.1 0.9-0.8 1.8-1.7c0-0.1 0.1-0.1 0.1-0.2q-0.3 0-0.6 0.2zm0.7-0.2q0 0 0-0.1 0 0 0 0-0.1 0-0.1 0.1 0 0 0.1 0zm-0.6 2.6q-0.5 0-1 0-0.1 0-0.2 0c-0.1 0-0.1 0.1-0.1 0.1q0.1 0.1 0.2 0.2 0.7 0.7 1.3 1.3 0.3 0.2 0.5 0.4 0.1 0 0.1 0 0.1-0.1 0.1-0.1-0.1-0.4-0.2-0.8c-0.1-0.1-0.1-0.2 0-0.3q0.1-0.1 0.2-0.1c0.4-0.1 0.6-0.4 1-0.6q0 0 0 0 0-0.1-0.1-0.1c-0.1 0-0.1 0.1-0.2 0-0.5-0.1-1 0-1.6 0zm-4-2.6c0.7 0.7 1.3 1.4 2 2q0.1-0.1 0.1-0.1c0-0.5 0-2.1-0.1-2.5q-0.2 0.2-0.3 0.5-0.1 0.2-0.3 0.4c-0.2 0.2-0.2 0.2-0.5 0.1q-0.1-0.1-0.3-0.2-0.3-0.1-0.6-0.2zm2.1 5.4c-0.1-0.8 0.1-1.6-0.1-2.3q-0.1-0.1-0.1 0-0.9 0.8-1.8 1.7 0.7-0.1 1.3-0.4c0.2 0 0.3 0 0.3 0.2q0.2 0.4 0.4 0.8zm-2.4-5.1q0.2 0.3 0.3 0.5 0.2 0.4 0.4 0.7c0.2 0.3 0.2 0.3-0.1 0.5q-0.4 0.1-0.7 0.2-0.1 0-0.1 0.1c0 0.1 0.1 0 0.2 0q0.8 0.1 1.6 0c0.1 0 0.3 0.1 0.4 0 0-0.2-0.1-0.3-0.2-0.4-0.6-0.5-1.1-1-1.6-1.6-0.1 0-0.1-0.1-0.2 0zm2.8 5.3c0-0.1 0.1-0.2 0.1-0.3q0.2-0.4 0.4-0.9c0.1-0.2 0.1-0.2 0.3-0.1q0.3 0.1 0.7 0.2c0 0 0 0.1 0 0q0.1 0 0-0.1 0 0-0.1-0.1-0.6-0.6-1.2-1.2c-0.1 0-0.1-0.1-0.3-0.1 0 0.2-0.1 1.6 0 2.4 0 0 0 0.1 0.1 0.2zm1.4-3.3q0.1 0 0 0 0.6 0 1.1 0c0.1 0 0.1 0 0.1-0.1q0 0 0-0.1-0.5-0.1-0.9-0.2-0.1 0-0.3 0-0.1-0.1-0.1-0.2 0.1-0.1 0.2-0.2c0.4-0.4 0.7-0.9 1-1.4q0 0 0 0 0 0 0-0.1 0 0 0 0-0.1 0.1-0.1 0.1-1 0.9-1.9 1.9-0.1 0.1-0.2 0.2 0 0 0 0.1 0 0 0.1 0 0.1 0 0.2 0 0.4 0 0.8 0zm-3.9 2.1c0.3-0.1 0.4-0.4 0.6-0.6q0.6-0.5 1.2-1 0-0.1 0-0.1c0-0.1 0-0.1-0.1-0.1q-1.1 0-2.3 0c0 0-0.1 0.1-0.1 0.1q0.1 0 0.1 0 0.4 0.2 0.9 0.3c0.3 0 0.4 0.1 0.2 0.4q0 0.1-0.1 0.1c-0.2 0.3-0.3 0.6-0.4 0.9z"/><path class="a" d="m114.9 49.1v2.4c-1 0.1-2 0.1-3.1 0.2-1.1 0.1-2.2 0.2-3.2-0.1q-0.4-0.1-0.7 0.1c-0.5 0.2-1 0.3-1.4-0.1-0.3-0.1-0.6-0.1-0.9 0q-0.4 0.1-0.8 0.3c-0.6 0.2-1.4 0.3-2 0-0.7-0.2-1.4-0.2-2.1 0-0.8 0.3-1.6 0.2-2.4 0.1-0.4 0-0.8 0-1.2 0-1.7 0.3-3.4 0.3-5-0.1q-0.7-0.2-1.4 0c-0.8 0.3-1.7 0.4-2.7 0.3-1.2-0.1-2.3-0.2-3.5 0.1-0.7 0.1-1.4 0.1-2-0.2-0.6-0.2-1.2-0.3-1.9 0-0.2 0.1-0.6 0.1-0.9 0q-0.6 0-1.2 0.1-0.3 0-0.6 0c-0.6 0-0.9-0.4-1.4-0.2-0.5 0.1-0.8 0.2-1.3 0.1-0.2 0-0.5 0-0.6 0.1-0.6 0.2-1.1 0.1-1.6-0.1-0.6-0.2-1.3-0.2-1.8 0.2-0.2 0.1-0.6 0.1-0.9 0-0.2 0-0.4 0-0.6-0.1-0.6-0.2-1.1-0.2-1.7 0.1-0.2 0.1-0.5 0.1-0.8 0-0.7-0.1-1.5-0.1-2.2-0.1-1.5 0.1-2.9 0.1-4.4-0.1-0.5-0.1-1 0-1.5 0-0.7 0.1-1.3 0.2-2 0.1-0.3-0.1-0.6-0.1-0.9 0q-0.7 0.2-1.2 0c-0.5-0.2-0.9-0.3-1.4-0.1-0.3 0.1-0.6 0-0.9 0-0.7-0.1-1.2-0.1-1.9-0.1q-2.3 0.3-4.6 0c-1.4-0.2-2.8-0.3-4.2-0.2-1 0.1-2 0-3 0.2-1 0.1-2-0.1-2.7-0.5-0.5-0.2-1-0.4-1.4-0.6-0.3-0.2-0.2-0.5 0.1-0.6 0.7-0.1 1-0.4 1.2-0.8 0.1-0.3 0.6-0.5 1.2-0.6 1 0 2-0.3 3 0 0.2 0 0.5 0 0.7 0 1.2-0.1 2.4 0.1 3.5 0.2 0.2 0 0.5 0 0.7 0 1.1 0.3 2.3 0.2 3.5 0.1 0.2 0 0.5 0 0.6 0 0.5 0.4 1.1 0.1 1.7 0.1 0.4 0 0.9-0.1 1.3 0.1 0.1 0.2 0.3 0.1 0.5 0 0.2-0.1 0.5-0.2 0.8-0.1 0.6 0.1 1.1 0.1 1.7 0 0.6 0 1.2 0.1 1.7 0.2q0.7 0.2 1.4 0c0.3 0 0.8-0.1 1.2-0.1 0.6-0.2 1.2-0.2 1.6 0.2 0.1 0.1 0.4 0.2 0.6 0.1 0.8-0.3 1.8 0.1 2.6-0.3 0.4-0.1 0.8-0.1 1.2 0 0.5 0.1 0.9 0.1 1.4 0.1 0.8 0 1.6 0 2.3 0 0.9 0 1.9 0 2.8-0.1 0.7-0.2 1.3-0.2 2-0.1 0.7 0.1 1.4 0.2 2.1 0 0.1 0 0.2 0 0.2 0 0.9 0.2 1.7 0.1 2.6 0 0.2 0 0.5 0 0.7 0 0.7 0.2 1.2 0.2 1.9 0 0.2 0 0.5 0 0.7 0.1q0.9 0.2 1.8-0.1c0.6-0.1 1.1-0.1 1.4 0.2 0.1 0.1 0.4 0.1 0.5 0q0.8-0.3 1.8-0.1 0.5 0.1 1.1 0c1.4-0.1 2.9-0.2 4.4 0 0.2 0 0.4 0 0.5 0 0.7-0.1 1.2-0.1 1.7 0.2 0.2 0.1 0.4 0.1 0.6 0 1-0.5 2.1-0.4 3.3-0.3 0.2 0.1 0.5 0.1 0.7 0.1 0.5-0.1 0.9-0.1 1.4-0.1q0.8 0 1.5-0.2c0.5-0.2 0.9-0.3 1.3 0 0.2 0.1 0.5 0 0.7 0 1.6-0.3 3.2-0.3 4.8-0.1 0.4 0.1 0.8 0 1.1 0 1.1-0.2 2.3-0.2 3.4 0 0.2 0.1 0.4 0.1 0.5 0.1z"/><path class="a" d="m213.6 51.4c-0.4 0.2-0.7 0.3-0.8 0.6-0.1 0.3-1 0.4-1.3 0.3-0.8-0.4-1.8-0.1-2.6-0.4-0.1 0-0.4 0.1-0.6 0.1-0.3 0.1-0.6 0.1-0.9 0.1-0.4-0.2-0.9-0.1-1.3-0.2-1-0.1-1.8-0.2-2.8-0.1-0.2 0-0.5-0.1-0.7-0.2-0.8-0.1-1.5-0.3-2.2 0.1-0.1 0.1-0.4 0.1-0.6 0q-0.8-0.2-1.6 0c-0.5 0.1-0.9 0.1-1.3 0-1-0.2-1.9-0.1-2.9-0.1-0.8 0.1-1.5 0.1-2.2 0-0.4 0-0.7 0-1.1 0.1-0.6 0.2-1.2 0.2-1.9 0.1-0.8-0.2-1.6-0.1-2.5-0.2q-0.2 0-0.4 0c-1.2 0.2-2 0.2-3 0.1-0.4-0.1-0.7-0.1-1 0.1q-0.5 0.1-0.9-0.1c-0.3-0.1-0.6-0.1-1 0-0.9 0.2-1.9 0.2-2.9 0-1.1-0.2-2-0.2-3.1 0.1-0.7 0.1-2.9 0.1-3.7 0-0.8-0.2-1.6-0.2-2.5 0-0.8 0.1-1.6 0.1-2.4 0.1-1.1-0.1-2.1 0-3.1 0.1-0.5 0-0.9 0.1-1.2-0.1-0.4-0.2-0.7-0.2-1.1-0.1-0.2 0.1-0.4 0.2-0.6 0.2-1.3-0.1-2.5 0.3-3.8 0.2-1 0-2.1 0-3.1-0.2-0.6-0.1-1.2-0.1-1.9 0.1-0.7 0.4-1.7 0.4-2.6 0.1-0.3-0.1-0.7-0.2-1-0.1-0.8 0.2-1.4 0.1-2.1-0.1-0.3 0-0.6-0.1-0.8 0-0.5 0.4-1.1 0.3-1.7 0.1-0.3-0.1-0.7-0.1-1 0-0.4 0.2-0.8 0.1-1.2 0.1-1.2-0.1-2.3-0.2-3.4 0.1q-0.3 0.1-0.6 0.1-1.2-0.2-2.4-0.3v-2.7q0.1 0 0.1 0 0.9 0 1.8 0.1c0.5 0 1 0.4 1.5 0.2 0.5-0.1 1-0.2 1.5-0.3 0.4-0.1 0.8-0.1 1.2 0q0 0 0.1 0c0.8 0.2 1.6-0.1 2.5 0.1 0.7 0.1 1.5 0.1 2.3-0.1q0.5-0.1 1 0.1c0.5 0.3 1.1 0.3 1.9 0.2 0.7-0.1 1.4-0.3 2.2-0.1 0.3 0 0.5-0.1 0.7-0.2 0.2-0.2 0.5-0.2 0.8-0.1 0.4 0.1 0.8 0.2 1.2 0.1 1.2-0.2 2.3-0.1 3.4 0.1 0.5 0.1 0.9 0.1 1.3-0.1 0.3-0.3 0.9-0.2 1.5-0.2 0.4 0.1 0.6 0 0.9-0.2 0.2-0.1 0.6 0 0.7 0.2 0.3 0.6 0.5 0.7 1.4 0.2 0.3-0.1 0.5-0.2 0.9-0.1q0.6 0 1.1 0.1c0.3 0 0.4-0.1 0.6-0.2 0.6-0.4 1.4-0.5 2.1-0.2 0.4 0.1 0.8 0.3 1.2 0 0-0.1 0.3-0.1 0.4-0.1q0.2 0.1 0.4 0.1c0.8 0.3 1.6 0.3 2.4 0 0.7-0.2 1.5 0 2.3 0 0.3 0 0.6 0 0.8-0.1 0.6-0.2 1.3-0.2 2-0.1 0.7 0.1 1.4 0.2 2.1 0 0.1-0.1 0.4-0.1 0.5 0 0.5 0.1 1.2 0 1.8 0.2 0.6 0.2 1.2-0.1 1.8 0 0.6 0.2 1.1 0.2 1.7 0.3q0.1 0 0.1 0c0.9-0.3 1.9-0.2 2.7-0.4 0.9-0.2 1.1-0.1 1.7 0.3 0.1 0.1 0.2 0.1 0.2 0.2 0.5-0.1 0.6-0.2 0.8-0.3 0.1 0 0.3-0.1 0.4-0.1 0.6 0.2 1 0.1 1.6-0.1 0.1 0 0.3 0.1 0.5 0.1 0.2 0 0.4 0.1 0.5 0 0.5-0.4 1.1-0.1 1.6 0 0.5 0.1 1 0.1 1.4-0.1q0.8-0.3 1.8-0.1c0.3 0.1 0.6 0.1 1 0.2 0.2 0 0.4 0.1 0.6 0 0.5-0.2 1.1-0.2 1.6 0q0.6 0.2 1.2 0 0.4-0.1 0.8-0.1c0.4 0.1 0.5 0.5 1.1 0.3 0.5-0.1 1 0 1.4 0.1 0.1 0.1 0.3 0.1 0.4 0 0.3-0.3 0.8-0.2 1.3-0.1 0.3 0.1 0.7 0.2 1 0.1q0.9-0.2 1.6 0.1c0.5 0.2 0.9 0.2 1.5 0.1 0.5-0.1 1.2-0.1 1.8-0.1 0.2 0 0.3 0.1 0.3 0.2 0.1 0.1 0.1 0.3 0.1 0.5 0 0.2 0.2 0.4 0.6 0.5 0.6 0.2 0.7 0.6 0.1 0.8z"/><path fill-rule="evenodd" class="a" d="m124 45.9q0.1-0.1 0.1-0.1 0.2-0.6 0.3-1.3 0.1-0.2 0.2-0.4 0.2-0.6 0.3-1.1 0.2-0.7 0.5-1.3 0-0.2 0.1-0.4c0 0 0.1 0 0.1 0q0 0 0.1 0.1 0 0.2-0.1 0.4-0.2 0.8-0.5 1.5c-0.2 0.6-0.4 1.3-0.6 1.9q-0.1 0.5-0.3 1 0 0.3 0.1 0.5 0.2 0.4 0.4 0.8 0.1 0 0.1 0.1c0.2 0.4 0.2 0.3 0.5 0.2 0.3-0.1 0.5-0.2 0.7-0.3 0.3-0.1 0.5-0.2 0.7-0.3 0.1 0 0.1-0.1 0.1-0.2q0.2-0.5 0.3-1.1 0.3-1 0.7-2 0.1-0.2 0.1-0.4 0.1 0 0.2 0c0 0 0 0 0.1 0.1q0 0.2-0.1 0.3-0.3 1-0.6 1.9-0.1 0.5-0.3 0.9c0.2-0.1 0.2-0.1 0.4-0.2q0.8-0.9 1.7-1.7 0.1-0.1 0.2-0.3 0.1 0 0.2 0 0.1 0.1 0.1 0.2-0.1 0.1-0.1 0.2-0.8 0.7-1.5 1.5c-0.3 0.2-0.6 0.5-0.8 0.8 0 0.1 0 0 0.1 0 0.3-0.1 0.6-0.2 0.9-0.3 0.4-0.2 0.9-0.3 1.3-0.5q0.5-0.2 1-0.4 0.1-0.1 0.1-0.1c0.1 0 0.3 0 0.3 0.1 0.1 0.1 0 0.2-0.2 0.2q-0.6 0.3-1.2 0.5-0.7 0.3-1.4 0.6-0.4 0.1-0.8 0.3c-0.2 0-0.4 0.1-0.5 0.4-0.1 0.2-0.3 0.5-0.5 0.7q0 0 0 0-0.2 0.4-0.5 0.7-0.1 0.1 0.1 0.2c0.5 0.1 1 0.3 1.6 0.4q0.1 0.1 0.2 0.1 0.4-0.1 0.8-0.2 0.6-0.2 1.3-0.4 0 0 0.1 0c0.6-0.1 1.1-0.4 1.7-0.6q0.2 0 0.3-0.1 0.1 0 0.2 0.1 0.1 0 0.1 0.1 0 0-0.1 0.1 0 0-0.1 0-0.6 0.2-1.1 0.4-0.2 0.1-0.4 0.1-0.6 0.2-1.3 0.4c-0.1 0-0.2 0.1-0.3 0.2 0 0 0.1 0 0.1 0q1.6 0 3.1 0c0.2 0 0.3 0 0.5 0.1 0 0 0.1 0 0.1 0q0 0.1-0.1 0.2c-0.1 0-0.2 0-0.3 0-1 0-2 0.1-3 0q0.1 0.1 0.1 0.1 1.1 0.3 2.1 0.7 0.2 0 0.3 0.2 0 0 0 0.1c0 0-0.1 0-0.1 0q-0.3 0-0.5-0.1-0.8-0.3-1.5-0.5-0.7-0.3-1.4-0.4-0.3-0.1-0.5 0.1c-0.4 0.2-0.8 0.5-1.2 0.7-0.2 0.1-0.2 0.2-0.2 0.4q0.2 0.5 0.3 0.9 0 0.2 0.2 0.3 0.2 0.2 0.5 0.4 0.7 0.3 1.4 0.7c0.3 0.2 0.6 0.3 0.9 0.4q0.3 0.2 0.7 0.4 0.1 0.1 0.1 0.2c0 0.1-0.1 0.1-0.1 0.1q-0.1 0-0.2-0.1c-0.6-0.3-1.2-0.5-1.8-0.9-0.3-0.2-0.8-0.4-1.1-0.6-0.1 0.1-0.1 0.1 0 0.1q1.2 1.3 2.4 2.5 0 0 0.1 0.1 0.1 0.1 0 0.2-0.1 0.1-0.2 0-0.1 0-0.2-0.1-0.7-0.7-1.4-1.5-0.3-0.3-0.6-0.6-0.1-0.1-0.3-0.2c0 0 0 0 0 0.1q0.2 0.5 0.4 1c0 0.3 0.1 0.5 0.2 0.7q0.2 0.5 0.3 0.9 0 0.1 0 0.2 0.1 0.1 0 0.1-0.1 0-0.2 0-0.1-0.2-0.1-0.3-0.3-0.9-0.6-1.8-0.2-0.6-0.5-1.2c0-0.2-0.3-0.6-0.6-0.7q-0.5-0.2-1.1-0.5 0 0-0.1 0-0.1-0.1-0.2 0.1-0.2 0.4-0.4 0.8c0 0.2-0.1 0.4-0.1 0.5 0 0.2 0.1 0.4 0.2 0.5q0.3 0.9 0.8 1.8c0.2 0.5 0.3 1 0.6 1.5q0 0 0 0.1c0 0.1 0 0.2-0.1 0.2q0 0-0.1-0.1-0.1 0-0.1-0.1-0.4-0.9-0.8-1.8-0.1-0.3-0.3-0.6c-0.1-0.3-0.2-0.6-0.4-0.9q0 0 0 0-0.1 0-0.1 0 0 0.2 0 0.3c0 0.4 0 0.8 0 1.2 0.1 0.1 0 0.2 0 0.4q0 0.6 0 1.3c0 0.1 0.1 0.1 0 0.2q0 0.1-0.2 0.1 0 0-0.1-0.1 0-0.1 0-0.2 0-0.2 0-0.4 0-0.9 0-1.8c0-0.1 0-0.2-0.1-0.3-0.1 0.1-0.1 0.2-0.1 0.3-0.1 0.5-0.3 1-0.4 1.5-0.1 0.4-0.3 0.7-0.4 1q0 0.1-0.1 0.1 0 0-0.1-0.1 0-0.1 0-0.3c0.3-0.5 0.4-1.2 0.6-1.7 0.1-0.4 0.2-0.8 0.4-1.2q0-0.3 0.1-0.5 0.1-0.1 0-0.3-0.2-0.6-0.4-1.3-0.1-0.1-0.2-0.1-0.8 0.3-1.6 0.5c-0.3 0.1-0.4 0.3-0.5 0.6q-0.4 1.5-0.8 2.9 0 0.1 0 0.3 0 0-0.1 0.1 0 0.1-0.1 0.1c-0.1 0-0.1-0.1-0.1-0.1q0-0.1 0-0.2 0.1-0.6 0.2-1.1 0.2-0.7 0.4-1.4 0-0.1 0.1-0.3 0 0 0-0.1-0.1 0-0.1 0.1-0.2 0.2-0.4 0.4c-0.5 0.6-1.1 1.1-1.6 1.6q-0.2 0.2-0.3 0.3-0.1 0.1-0.2 0.1-0.1 0-0.1 0-0.1-0.1 0-0.2 0 0 0.1-0.1 0.7-0.7 1.4-1.5 0.6-0.5 1.1-1 0 0-0.1-0.1c-0.1 0-0.2 0.1-0.3 0.2-0.4 0.2-0.8 0.4-1.2 0.6q-0.5 0.3-1.1 0.6-0.1 0.1-0.3 0.1-0.1 0.1-0.2 0.1c-0.1 0-0.1-0.1-0.1-0.1q0-0.1 0.1-0.2 0.3-0.1 0.5-0.3 0.7-0.3 1.4-0.7c0.3-0.2 0.7-0.4 1.1-0.6q0.2-0.1 0.4-0.2c0.3-0.2 0.5-0.5 0.6-0.8q0.3-0.5 0.5-0.9 0.1-0.2-0.1-0.2-0.6-0.2-1.3-0.4-0.1-0.1-0.3 0-0.5 0.2-1 0.4-1 0.5-2 0.9-0.3 0.1-0.6 0.3-0.1 0-0.1 0c-0.1 0.1-0.2 0.1-0.3 0-0.1-0.1 0-0.3 0.2-0.3 0.2 0 0.4-0.2 0.7-0.3q0.2-0.1 0.5-0.2 0.9-0.4 1.9-0.8c0-0.1 0.2-0.1 0.2-0.2 0-0.1-0.2-0.1-0.3-0.1q-0.8 0.1-1.6 0.1-0.7 0-1.4 0 0 0-0.1 0c-0.1 0-0.1-0.1-0.2-0.2q0-0.1 0.2-0.1 0.3-0.1 0.5-0.1c0.6 0.1 1.2 0 1.7 0.1 0.2 0 0.4 0 0.5-0.1-0.1-0.1-0.3-0.1-0.4-0.2q-0.6-0.2-1.3-0.3-0.6-0.2-1.1-0.4c-0.1-0.1-0.2-0.1-0.1-0.2 0 0 0.1-0.1 0.1 0q0.2 0 0.3 0 0.5 0.2 0.9 0.3 0.7 0.2 1.4 0.4 0.5 0.2 1 0.3 0.3 0.2 0.7 0 0.5-0.2 1.1-0.3 0.1-0.1 0.2-0.1c0.1-0.1 0.1-0.2 0-0.3q-0.3-0.5-0.5-1c-0.1-0.1-0.2-0.3-0.3-0.5q0-0.2-0.2-0.2-1-0.4-2-0.8-0.7-0.2-1.4-0.5-0.2-0.1-0.3-0.1-0.1-0.1-0.2-0.2-0.1 0-0.1-0.1c0-0.1 0.1-0.1 0.1-0.1q0.2 0 0.3 0 0.8 0.5 1.7 0.7 0.3 0.1 0.5 0.2 0.5 0.2 0.9 0.4c0.1 0 0.2 0.1 0.3 0q-0.2-0.3-0.5-0.5-0.9-0.9-1.8-1.8-0.1-0.1-0.1-0.2-0.1-0.1 0-0.1 0.1-0.1 0.2-0.1 0.2 0.2 0.3 0.3 0.9 0.9 1.7 1.7c0 0 0-0.1 0-0.1q-0.4-0.9-0.9-1.7c-0.2-0.3-0.3-0.6-0.5-0.9q0-0.1 0.1-0.2 0 0 0.1 0 0.1 0.1 0.1 0.2c0.3 0.6 0.6 1 0.9 1.6q0.4 0.6 0.6 1.2 0.1 0.3 0.3 0.5 0.1 0.2 0.3 0.3 0.5 0.2 1 0.4c0.2 0 0.4 0 0.6 0q0.1 0 0.1-0.1 0.3-0.5 0.6-1c0.1-0.1 0.1-0.3 0-0.5q-0.1-1.1-0.5-2.2c-0.1-0.1-0.1-0.3-0.1-0.4q-0.2-0.6-0.4-1.1-0.1-0.3-0.2-0.6 0-0.1 0-0.1 0-0.1 0.1-0.1 0.1 0 0.1 0 0.1 0.1 0.1 0.2c0.1 0.5 0.4 1 0.5 1.5 0.1 0.6 0.3 1.1 0.5 1.6q0 0 0.1 0.1 0-0.8 0-1.6 0-1 0-2 0-0.1 0-0.2c0-0.1 0-0.1 0.1-0.1q0.1 0 0.2 0.1c0 0.1 0 0.2 0 0.4 0 1.3 0 2.6 0 3.9q0 0.1 0 0.2 0 0 0 0.1zm2.1 2q0 0 0 0 0 0 0 0 0 0 0 0 0 0 0 0zm-0.6 0.2q-0.3 0.1-0.5 0.2-0.2 0.1-0.2 0-0.1-0.1-0.1-0.2c-0.2-0.3-0.3-0.5-0.4-0.8-0.1-0.1-0.1-0.2-0.2-0.2-0.2 0-0.1 0.2-0.1 0.3q0 0.1 0 0.2c0 0.7 0.1 1.5 0 2.2q0 0 0 0.1 0 0 0.1 0 0 0.1 0.1 0 0 0 0.1-0.1 0.8-0.8 1.7-1.7c0-0.1 0.1-0.1 0.1-0.2q-0.3 0-0.6 0.2zm0.7-0.2q0 0 0-0.1 0 0 0 0-0.1 0-0.1 0.1 0.1 0 0.1 0zm-0.5 2.6q-0.6 0-1.1 0-0.1 0-0.2 0c-0.1 0-0.1 0.1 0 0.2q0 0.1 0.1 0.1 0.7 0.7 1.4 1.3 0.2 0.2 0.4 0.4 0.1 0 0.1 0 0.1 0 0.1-0.1-0.1-0.4-0.2-0.7c-0.1-0.2-0.1-0.3 0.1-0.4q0 0 0.1-0.1c0.4-0.1 0.6-0.4 1-0.6q0 0 0 0 0 0-0.1-0.1c0 0-0.1 0.1-0.2 0.1-0.5-0.1-1-0.1-1.5-0.1zm-4-2.6c0.6 0.7 1.2 1.4 1.9 2q0.1 0 0.1-0.1c0.1-0.5 0-2.1-0.1-2.4q-0.2 0.2-0.3 0.4-0.1 0.2-0.2 0.4c-0.2 0.2-0.3 0.2-0.6 0.1q-0.1-0.1-0.3-0.1-0.3-0.2-0.5-0.3zm2 5.4c0-0.8 0.1-1.6 0-2.3q-0.1 0-0.2 0-0.9 0.8-1.8 1.8 0.7-0.2 1.3-0.4c0.2-0.1 0.3-0.1 0.4 0.1q0.1 0.4 0.3 0.8zm-2.3-5.1q0.1 0.3 0.2 0.6 0.3 0.3 0.5 0.7c0.1 0.3 0.1 0.3-0.2 0.4q-0.3 0.1-0.7 0.2 0 0.1 0 0.1c0 0.1 0 0.1 0.1 0.1q0.8 0 1.6 0c0.1 0 0.3 0 0.4-0.1 0-0.2-0.1-0.3-0.2-0.4-0.6-0.5-1.1-1-1.6-1.6 0 0-0.1 0-0.1 0zm2.7 5.3c0.1-0.1 0.1-0.2 0.1-0.2q0.2-0.5 0.5-1c0-0.2 0-0.2 0.2-0.1q0.4 0.1 0.7 0.3c0 0 0 0 0.1-0.1q0 0 0 0-0.1-0.1-0.2-0.2-0.6-0.6-1.2-1.1c-0.1-0.1-0.1-0.2-0.2-0.2-0.1 0.2-0.1 1.7-0.1 2.4 0 0.1 0 0.1 0.1 0.2zm1.5-3.3q0.5 0 1 0c0.1 0 0.1 0 0.1-0.1q0 0 0 0-0.5-0.2-0.9-0.3-0.1 0-0.2 0-0.2-0.1-0.1-0.2 0-0.1 0.1-0.2c0.4-0.4 0.7-0.9 1.1-1.4q0 0 0 0 0 0-0.1-0.1 0 0 0 0 0 0.1-0.1 0.1-0.9 0.9-1.9 1.9-0.1 0.1-0.2 0.2 0 0 0 0.1 0 0.1 0.1 0.1 0.1 0 0.2 0 0.4-0.1 0.9-0.1zm-4 2.1c0.3-0.1 0.5-0.4 0.7-0.5q0.5-0.6 1.1-1.1 0-0.1 0-0.1c0-0.1 0-0.1-0.1-0.1q-1.1 0-2.3 0c0 0 0 0.1 0 0.1q0 0 0 0 0.5 0.2 0.9 0.3c0.3 0 0.4 0.1 0.2 0.4q0 0.1-0.1 0.2c-0.1 0.2-0.2 0.5-0.4 0.8z"/><path fill-rule="evenodd" class="a" d="m47.6 19.7q1-0.5 2-0.8 0.9-0.3 1.8-0.3 0.9-0.1 1.6 0.3 0.7 0.3 1.1 1.1 0.5 1 0.2 1.8-0.3 0.9-1 1.6 1.1-0.2 2.2 0.1 1 0.3 1.6 1.5 0.3 0.6 0.3 1.2 0 0.7-0.3 1.4-0.3 0.7-1 1.3-0.6 0.6-1.6 1.1l-7.6 4-0.2-0.3q0.6-0.3 0.4-0.7l-5-9.4q-0.2-0.4-0.7-0.1l-0.2-0.4zm2.6 4.1q1-0.5 1.4-1.1 0.5-0.5 0.1-1.3-0.4-0.7-1.1-0.7-0.7 0.1-1.7 0.6l-3.9 2.1 1.3 2.5zm2.5 4.7q1.3-0.7 1.6-1.4 0.4-0.7 0-1.4-0.3-0.6-1.1-0.7-0.8-0.1-2.1 0.6l-3.9 2.1 1.5 2.9z"/><path class="a" d="m79.1 6.6l1 3-0.4 0.2q-0.1-0.3-0.4-0.4-0.2-0.1-0.6 0l-6.7 2.2 2.9 8.9q0.1 0.4 0.7 0.2l0.2 0.4-3.8 1.2-0.2-0.4q0.7-0.2 0.6-0.6l-3.3-10.1q-0.2-0.4-0.8-0.2l-0.2-0.4 10-3.2q0.3-0.1 0.5-0.2 0.2-0.2 0.1-0.5z"/><path fill-rule="evenodd" class="a" d="m91.7 3.9q1.3-0.2 2.7-0.1 1.4 0.1 2.6 0.6 1.2 0.6 2.2 1.6 0.9 1 1.2 2.6 0.3 1.6-0.1 2.9-0.5 1.3-1.4 2.2-0.9 1-2.2 1.6-1.2 0.6-2.5 0.9-1.2 0.2-2.6 0.2-1.4-0.1-2.6-0.6-1.2-0.6-2.2-1.6-0.9-1-1.2-2.6-0.3-1.6 0.1-2.9 0.5-1.3 1.4-2.3 0.9-0.9 2.1-1.6 1.3-0.6 2.5-0.9zm0.5 2.1q-0.9 0.2-1.7 0.7-0.8 0.4-1.4 1.1-0.6 0.6-0.9 1.5-0.3 0.8-0.1 1.8 0.2 0.9 0.8 1.6 0.6 0.7 1.4 1.1 0.8 0.3 1.7 0.4 1 0.1 1.8-0.1 0.9-0.1 1.7-0.6 0.8-0.4 1.4-1.1 0.6-0.7 0.9-1.5 0.3-0.8 0.1-1.8-0.2-1-0.8-1.6-0.6-0.7-1.4-1.1-0.8-0.4-1.7-0.5-1-0.1-1.8 0.1z"/><path class="a" d="m119.9 11.3q-0.1 0-0.2 0 0 0-0.1 0-0.1 0-0.6 0.3-0.5 0.3-1.3 0.7-0.8 0.4-1.8 0.8-1 0.3-2.1 0.4-1.5 0.1-2.9-0.2-1.4-0.2-2.5-0.9-1.1-0.7-1.8-1.9-0.7-1.1-0.8-2.7-0.1-1.5 0.4-2.7 0.5-1.2 1.5-2.1 1-0.9 2.3-1.4 1.3-0.5 2.8-0.6 1.2-0.1 2.2 0 1 0.1 1.7 0.3 0.8 0.1 1.2 0.3 0.4 0.2 0.5 0.2 0.1-0.1 0.2-0.2 0.1-0.1 0.1-0.2l0.4 0.3-1.6 2.9-0.3-0.1q0-0.1 0-0.1 0-0.1 0-0.2-0.1-0.3-0.5-0.5-0.5-0.2-1.1-0.4-0.6-0.2-1.3-0.2-0.7-0.1-1.3-0.1-1 0.1-1.9 0.4-0.9 0.4-1.5 1-0.6 0.6-0.9 1.4-0.4 0.8-0.3 1.8 0.1 1 0.5 1.7 0.5 0.8 1.2 1.3 0.7 0.5 1.6 0.7 0.9 0.2 1.9 0.1 0.8 0 1.6-0.3 0.8-0.2 1.4-0.5 0.7-0.4 1.1-0.7 0.4-0.4 0.4-0.7 0-0.2-0.1-0.3l0.3-0.2 1.7 2.4z"/><path class="a" d="m132.3 12.3q0 0.4 0.5 0.4v0.5l-3.6-0.2v-0.4q0.2 0 0.3-0.1 0.2-0.1 0.2-0.3l0.3-9.3-3.8-0.1q-0.3-0.1-0.5 0.1-0.2 0.1-0.2 0.4h-0.4l0.1-3.3h0.5q-0.1 0.3 0.1 0.5 0.2 0.1 0.4 0.1l10.4 0.4q0.2 0 0.4-0.1 0.2-0.1 0.3-0.4h0.4l-0.2 3.2h-0.4q0-0.3-0.2-0.4-0.1-0.1-0.4-0.2l-3.8-0.1z"/><path fill-rule="evenodd" class="a" d="m156.8 3.6l-0.1 0.4q-0.7-0.1-0.7 0.3l-1.6 10.5q-0.1 0.4 0.6 0.5l-0.1 0.5-4-0.7 0.1-0.4q0.4 0.1 0.5 0 0.2-0.1 0.2-0.3l0.7-4.1-3.4-0.5-3.1 3.2q-0.2 0.2-0.3 0.4-0.2 0.1-0.2 0.2 0 0.1 0.1 0.2 0.2 0.1 0.4 0.1l-0.1 0.5-4.2-0.7v-0.4q0.2 0 0.4 0 0.3 0 0.5-0.2l3.7-3.9q-1.5-0.5-2.2-1.5-0.8-0.9-0.6-2.5 0.2-1 0.6-1.6 0.5-0.6 1.2-1 0.7-0.3 1.6-0.3 1-0.1 2.1 0.1zm-4.2 4.9l0.6-3.4-4-0.7q-0.9-0.1-1.4 0-0.6 0-1 0.2-0.3 0.2-0.5 0.5-0.2 0.2-0.3 0.6 0 0.4 0.1 0.7 0.1 0.3 0.3 0.6 0.3 0.3 0.9 0.5 0.5 0.2 1.3 0.4z"/><path class="a" d="m167.7 6.7q-0.2-0.1-0.4 0-0.2 0-0.2 0.2-0.1 0.1 0 0.4 0.1 0.3 0.2 0.6l1.2 2.8 2.5-1.9q0.4-0.2 0.6-0.4 0.2-0.1 0.3-0.3 0.1-0.3-0.6-0.4l0.2-0.4 4.5 1.2-0.1 0.4q-0.5-0.1-0.8-0.1-0.3 0-0.5 0.2l-5.2 3.7 2.4 5.8q0 0.2 0.1 0.4 0.1 0.2 0.2 0.4 0.1 0.2 0.3 0.4 0.2 0.2 0.5 0.3l-0.1 0.4-4.6-1.3 0.1-0.4q0.4 0.1 0.5-0.2 0-0.2-0.1-0.4 0-0.3-0.2-0.6l-1.3-3.3-3 2.2q-0.2 0.1-0.4 0.3-0.2 0.2-0.3 0.4-0.1 0.3 0.4 0.4l-0.1 0.4-4.2-1.1 0.1-0.5q0.4 0.2 0.7 0.1 0.3 0 0.6-0.2l5.3-4-2.3-5.6q-0.3-0.6-0.5-0.9-0.3-0.3-0.7-0.4l0.1-0.4 4.9 1.3z"/><path class="a" d="m191.2 28l-3.9-1.8 0.2-0.4q0.3 0.2 0.6 0.2 0.2 0.1 0.6-0.2l3-2-1.5-8.9q0-0.3-0.2-0.6-0.3-0.2-0.5-0.3l0.2-0.4 4.4 2.1-0.2 0.3q-0.2-0.1-0.4-0.1-0.2 0-0.3 0.2 0 0.1 0.1 0.8l0.7 5.4 4.4-2.9q0.2-0.1 0.4-0.3 0.1-0.1 0.2-0.3 0.1-0.1-0.1-0.3-0.1-0.2-0.3-0.3l0.2-0.3 3.9 1.8-0.2 0.4q-0.3-0.2-0.6-0.1-0.3 0-0.5 0.1l-9.7 6.5q-0.2 0.1-0.4 0.2-0.2 0.1-0.3 0.3-0.1 0.2 0 0.3 0.1 0.1 0.4 0.2z"/><path fill-rule="evenodd" class="a" d="m37.3 230.9q-0.4 0.5 0 0.8l-0.3 0.4-2.5-2.1 0.3-0.3q0.4 0.2 0.8-0.3l0.8-0.9-9-7.6-0.8 0.9q-0.5 0.5-0.1 0.8l-0.3 0.3-2.4-2 0.2-0.3q0.4 0.3 0.8-0.2l2.2-2.5 1.4 1.2 8.6-3.8q0.3-0.1 0.5-0.2 0.3-0.1 0.4-0.3 0.2-0.2 0.1-0.3-0.1-0.2-0.2-0.4l0.3-0.3 3.2 2.7-0.2 0.3q-0.2 0-0.4-0.1-0.2 0-0.3 0.2-0.1 0.1-0.2 0.3-0.1 0.2-0.1 0.6l-2.1 9.4 1.4 1.2zm-6.9-10.2l5.3 4.5 2.1-8z"/><path class="a" d="m58.5 231.3q0.2-0.2 0.1-0.5-0.1-0.2-0.5-0.4l-6.5-4-1.5 2.5 3.9 2.4q0.4 0.2 0.7 0.2 0.3 0.1 0.5-0.4l0.4 0.2-1.9 3.1-0.4-0.2q0.3-0.5 0.2-0.7-0.2-0.3-0.6-0.5l-3.9-2.4-1.7 2.7 6.7 4.1q0.3 0.2 0.6 0.2 0.2 0 0.4-0.3l0.3 0.2-1.6 2.8-0.4-0.3q0.2-0.3 0-0.4-0.1-0.2-0.4-0.4l-9.3-5.7 0.2-0.3q0.1 0 0.3 0 0.2 0 0.3-0.2l5.6-9q0.1-0.2 0-0.4 0-0.1-0.2-0.2l0.2-0.4 9.1 5.7q0.4 0.2 0.7 0.2 0.2 0 0.4-0.3l0.3 0.3-1.6 2.6z"/><path class="a" d="m63.1 243.6q-0.1 0.2 0 0.3 0 0.2 0.2 0.3l-0.2 0.3-3.3-1.5 0.2-0.4q0.4 0.3 0.6-0.1l4.4-9.7q0.2-0.4-0.3-0.6l0.2-0.4 3.3 1.5-0.2 0.4q-0.1-0.1-0.3 0-0.2 0-0.3 0.2l-1.8 4 6-1.4q0.4-0.1 0.7-0.2 0.2-0.1 0.2-0.2 0.1-0.2 0-0.3 0-0.1-0.2-0.1l0.2-0.4 4.5 2-0.2 0.4q-0.4-0.2-0.9 0l-6.7 1.6 2.2 7.3q0.1 0.4 0.3 0.9 0.3 0.5 0.6 0.7l-0.2 0.4-3.9-1.8 0.1-0.4q0.3 0.2 0.4 0 0-0.1-0.1-0.6l-1.8-5.8-2.4 0.5z"/><path fill-rule="evenodd" class="a" d="m76.4 249.8q0.3 0 0.5-0.2 0.3-0.2 0.5-0.5l6.8-7.4q0.3-0.2 0.5-0.4 0.2-0.2 0.2-0.4 0.1-0.3 0-0.4-0.2-0.1-0.3-0.2l0.1-0.4 3.8 1.1-0.1 0.4q-0.2 0-0.4 0.1-0.2 0-0.3 0.2 0 0.2 0 0.4 0 0.2 0.1 0.6l1.9 10.5q0 0.3 0.2 0.4 0.1 0.2 0.3 0.4l-0.1 0.4-3.9-1.2 0.1-0.4q0.1 0 0.2 0 0.2 0 0.2-0.2 0.1-0.2 0-0.6l-0.3-1.9-5.5-1.7-1.3 1.4q-0.3 0.4-0.4 0.6-0.1 0.2 0.3 0.3l-0.1 0.4-3.2-0.9zm9.8-1.6l-0.6-4.8-3.4 3.6z"/><path fill-rule="evenodd" class="a" d="m101.1 246.1l-0.4 2.5 4.9 0.8q1.1 0.2 1.9 0.5 0.8 0.4 1.3 0.9 0.5 0.6 0.7 1.3 0.3 0.8 0.1 1.8-0.4 2-1.8 2.8-1.4 0.8-3.5 0.4l-8.2-1.3 0.1-0.5q0.6 0.1 0.7-0.3l1.7-10.4q0.1-0.5-0.5-0.6v-0.4l10.2 1.7q0.3 0.1 0.6 0.1 0.2 0 0.2-0.2h0.4l-0.5 3.1-0.4-0.1q0.1-0.4-0.1-0.6-0.2-0.2-0.5-0.3zm2.8 8.7q1.4 0.3 2.2-0.2 0.7-0.4 0.8-1.3 0.2-0.8-0.4-1.3-0.6-0.5-2-0.8l-4.2-0.7-0.6 3.6z"/><path fill-rule="evenodd" class="a" d="m115.7 258.5v-0.4q0.9 0.1 0.9-0.4l0.4-10.6q0-0.4-0.9-0.4v-0.5l8.3 0.3q2.2 0.1 3.5 1 1.2 0.9 1.2 2.9-0.1 2-1.4 2.7-1.4 0.8-3.6 0.7l-4.7-0.1-0.2 4.1q0 0.5 0.8 0.5v0.4zm8.7-6.8q0.8 0 1.4-0.3 0.5-0.3 0.6-1.2 0-0.9-0.5-1.2-0.6-0.3-1.3-0.3l-5-0.2-0.1 3z"/><path fill-rule="evenodd" class="a" d="m142.6 250.2q1 0 1.9 0.1 0.9 0.1 1.5 0.5 0.7 0.4 1 1.1 0.4 0.6 0.5 1.7 0.2 2-0.9 3.1-1.2 1.1-3.3 1.3l-8.3 0.8-0.1-0.4q0.7-0.1 0.6-0.5l-0.9-10.6q-0.1-0.4-0.7-0.4v-0.4l3.9-0.3v0.4q-0.6 0-0.6 0.5l0.4 3.6zm-0.3 5.7q1.5-0.1 2-0.7 0.6-0.6 0.6-1.5-0.1-0.9-0.8-1.2-0.7-0.4-2.1-0.2l-4.3 0.4 0.4 3.6z"/><path class="a" d="m183.9 248.3l-0.2 0.1q-0.1-0.3-0.3-0.2-0.3 0-0.5 0.1l-9.3 3.4q-0.2 0-0.3 0.1-0.2 0.1-0.1 0.3l-0.3 0.1-0.3-0.8q-0.4-1.1-0.1-2.2 0.3-1 0.9-2 0.7-1 1.5-1.8 0.9-0.9 1.6-1.6 0.7-0.8 1.1-1.6 0.4-0.7 0.1-1.4-0.1-0.4-0.5-0.6-0.3-0.3-0.7-0.3-0.4-0.1-0.8 0-0.4 0.1-0.8 0.2-0.4 0.1-0.9 0.5-0.5 0.3-0.9 0.7-0.4 0.5-0.6 1-0.3 0.5-0.1 0.9 0.1 0.1 0.2 0.3 0.1 0.2 0.2 0.2l-0.2 0.2-3.1-1.6 0.2-0.2q0.1 0 0.2 0 0.1 0 0.2 0 0.1-0.1 0.3-0.5 0.3-0.5 0.8-1.1 0.4-0.6 1.2-1.3 0.8-0.6 2.1-1.1 0.9-0.3 1.7-0.4 0.9-0.1 1.7 0.1 0.8 0.2 1.4 0.7 0.6 0.6 1 1.5 0.4 1.1 0.2 1.9-0.1 0.8-0.6 1.5-0.5 0.7-1.2 1.4-0.7 0.6-1.4 1.2-0.8 0.6-1.4 1.3-0.7 0.6-1.1 1.4l0.1 0.2 7.3-2.6q0.2-0.1 0.4-0.3 0.2-0.1 0-0.6l0.3-0.1z"/><path fill-rule="evenodd" class="a" d="m189.2 231.8q1.2-0.6 2.4-0.7 1.3-0.1 2.5 0.2 1.1 0.4 2.1 1.2 1 0.8 1.6 2 0.6 1.2 0.7 2.5 0 1.3-0.4 2.4-0.4 1.1-1.3 2.1-0.8 0.9-2 1.5-1.2 0.6-2.5 0.7-1.3 0.2-2.4-0.2-1.2-0.3-2.1-1.1-1-0.8-1.6-2.1-0.6-1.2-0.7-2.5-0.1-1.2 0.3-2.3 0.4-1.2 1.3-2.1 0.8-1 2.1-1.6zm0.9 1.8q-0.8 0.4-1.3 1-0.4 0.6-0.6 1.3-0.2 0.8-0.1 1.6 0.1 0.8 0.5 1.6 0.4 0.9 1 1.4 0.6 0.6 1.3 0.9 0.7 0.3 1.5 0.2 0.8 0 1.5-0.3 0.7-0.4 1.2-1 0.5-0.6 0.7-1.4 0.2-0.7 0.1-1.5-0.1-0.9-0.5-1.7-0.4-0.8-1-1.4-0.6-0.5-1.4-0.8-0.7-0.3-1.4-0.3-0.8 0-1.5 0.4z"/><path class="a" d="m215 231.2l-0.2 0.1q-0.2-0.2-0.4-0.1-0.2 0.1-0.4 0.3l-8.2 5.4q-0.2 0.1-0.3 0.3-0.2 0.1 0 0.2l-0.3 0.2-0.5-0.7q-0.6-1-0.6-2.1 0-1.1 0.4-2.2 0.4-1.1 1.1-2.1 0.6-1 1.1-2 0.5-0.9 0.7-1.7 0.2-0.8-0.2-1.4-0.3-0.4-0.6-0.5-0.4-0.2-0.8-0.1-0.4 0-0.8 0.2-0.4 0.1-0.7 0.4-0.3 0.2-0.7 0.6-0.5 0.5-0.7 1-0.3 0.5-0.4 1.1-0.2 0.5 0.1 0.9 0.1 0.1 0.2 0.2 0.2 0.1 0.3 0.1l-0.1 0.3-3.4-0.8 0.1-0.3q0.1 0 0.2 0 0.1 0 0.2-0.1 0.1 0 0.2-0.5 0.1-0.5 0.4-1.3 0.4-0.7 1-1.5 0.6-0.8 1.7-1.6 0.8-0.5 1.6-0.8 0.9-0.3 1.7-0.3 0.8 0.1 1.5 0.4 0.7 0.4 1.3 1.3 0.6 0.9 0.7 1.7 0 0.9-0.3 1.6-0.3 0.9-0.8 1.6-0.5 0.8-1.1 1.6-0.6 0.7-1.1 1.5-0.5 0.8-0.7 1.6l0.2 0.2 6.4-4.2q0.2-0.2 0.4-0.4 0.1-0.2-0.2-0.6l0.3-0.1z"/><path class="a" d="m228.8 220l-0.2 0.2q-0.2-0.2-0.4-0.1-0.2 0.1-0.3 0.3l-7.6 6.4q-0.2 0.1-0.3 0.3-0.1 0.1 0.1 0.2l-0.2 0.2-0.6-0.6q-0.8-1-0.9-2-0.1-1.1 0.2-2.2 0.3-1.2 0.7-2.2 0.5-1.1 0.9-2.1 0.4-1 0.5-1.8 0.2-0.8-0.3-1.4-0.3-0.4-0.7-0.5-0.4-0.1-0.8 0-0.4 0.1-0.7 0.3-0.4 0.2-0.7 0.5-0.3 0.2-0.7 0.7-0.3 0.5-0.5 1.1-0.3 0.5-0.3 1.1-0.1 0.5 0.3 0.9 0 0.1 0.2 0.2 0.2 0.1 0.3 0.1l-0.1 0.3-3.5-0.4 0.1-0.3q0.1 0 0.2-0.1 0.1 0 0.2-0.1 0.1-0.1 0.1-0.6 0.1-0.5 0.3-1.2 0.3-0.8 0.8-1.7 0.5-0.9 1.5-1.8 0.7-0.5 1.5-0.9 0.8-0.4 1.6-0.5 0.8-0.1 1.6 0.2 0.7 0.3 1.4 1.1 0.7 0.8 0.9 1.6 0.1 0.9-0.1 1.7-0.2 0.8-0.6 1.6-0.5 0.9-0.9 1.7-0.5 0.9-0.9 1.7-0.4 0.8-0.5 1.7l0.2 0.1 5.9-5q0.1-0.1 0.3-0.3 0.1-0.3-0.2-0.6l0.2-0.2z"/></svg>